Athinkra-Sheek-Bakrii-Saphaloo.ufo
<glyph name="quotedbl" format="2">
  <advance width="727"/>
  <unicode hex="0022"/>
  <outline>
    <contour>
      <point x="630.784" y="1226.75" type="line"/>
      <point x="583.68" y="946.176" type="line"/>
      <point x="475.136" y="946.176" type="line"/>
      <point x="425.984" y="1226.75" type="line"/>
      <point x="425.984" y="1466.37" type="line"/>
      <point x="630.784" y="1466.37" type="line"/>
    </contour>
    <contour>
      <point x="299.008" y="1226.75" type="line"/>
      <point x="253.952" y="946.176" type="line"/>
      <point x="143.36" y="946.176" type="line"/>
      <point x="94.208" y="1226.75" type="line"/>
      <point x="94.208" y="1466.37" type="line"/>
      <point x="299.008" y="1466.37" type="line"/>
    </contour>
  </outline>
</glyph>
<glyph name="numbersign" format="2">
  <advance width="1139"/>
  <unicode hex="0023"/>
  <outline>
    <contour>
      <point x="1112.06" y="401.408" type="line"/>
      <point x="804.864" y="401.408" type="line"/>
      <point x="718.848" y="-24.576" type="line"/>
      <point x="567.296" y="-24.576" type="line"/>
      <point x="653.312" y="401.408" type="line"/>
      <point x="339.968" y="401.408" type="line"/>
      <point x="253.952" y="-24.576" type="line"/>
      <point x="102.4" y="-24.576" type="line"/>
      <point x="190.464" y="401.408" type="line"/>
      <point x="20.48" y="401.408" type="line"/>
      <point x="20.48" y="550.912" type="line"/>
      <point x="219.136" y="550.912" type="line"/>
      <point x="294.912" y="913.408" type="line"/>
      <point x="20.48" y="913.408" type="line"/>
      <point x="20.48" y="1062.91" type="line"/>
      <point x="323.584" y="1062.91" type="line"/>
      <point x="411.648" y="1490.94" type="line"/>
      <point x="561.152" y="1490.94" type="line"/>
      <point x="473.088" y="1062.91" type="line"/>
      <point x="788.48" y="1062.91" type="line"/>
      <point x="876.544" y="1490.94" type="line"/>
      <point x="1026.05" y="1490.94" type="line"/>
      <point x="940.032" y="1062.91" type="line"/>
      <point x="1112.06" y="1062.91" type="line"/>
      <point x="1112.06" y="913.408" type="line"/>
      <point x="909.312" y="913.408" type="line"/>
      <point x="835.584" y="550.912" type="line"/>
      <point x="1112.06" y="550.912" type="line"/>
    </contour>
    <contour>
      <point x="759.808" y="913.408" type="line"/>
      <point x="444.416" y="913.408" type="line"/>
      <point x="370.688" y="550.912" type="line"/>
      <point x="684.032" y="550.912" type="line"/>
    </contour>
  </outline>
</glyph>
<glyph name="quotesingle" format="2">
  <advance width="391"/>
  <unicode hex="0027"/>
  <outline>
    <contour>
      <point x="294.912" y="1220.61" type="line"/>
      <point x="247.808" y="946.176" type="line"/>
      <point x="135.168" y="946.176" type="line"/>
      <point x="90.112" y="1220.61" type="line"/>
      <point x="90.112" y="1466.37" type="line"/>
      <point x="294.912" y="1466.37" type="line"/>
    </contour>
  </outline>
</glyph>
<glyph name="hyphen" format="2">
  <advance width="682"/>
  <unicode hex="002D"/>
  <unicode hex="2010"/>
  <outline>
    <contour>
      <point x="618.496" y="440.32" type="line"/>
      <point x="65.536" y="440.32" type="line"/>
      <point x="65.536" y="620.544" type="line"/>
      <point x="618.496" y="620.544" type="line"/>
    </contour>
  </outline>
</glyph>
<glyph name="slash" format="2">
  <advance width="569"/>
  <unicode hex="002F"/>
  <outline>
    <contour>
      <point x="569.344" y="1490.94" type="line"/>
      <point x="145.408" y="-24.576" type="line"/>
      <point x="0" y="-24.576" type="line"/>
      <point x="425.984" y="1490.94" type="line"/>
    </contour>
  </outline>
</glyph>
<glyph name="one" format="2">
  <advance width="1139"/>
  <unicode hex="0031"/>
  <outline>
    <contour>
      <point x="763.904" y="0" type="line"/>
      <point x="583.68" y="0" type="line"/>
      <point x="583.68" y="1146.88" type="line"/>
      <point x="438.272" y="1009.66"/>
      <point x="223.232" y="929.792" type="qcurve"/>
      <point x="223.232" y="1103.87" type="line"/>
      <point x="538.624" y="1251.33"/>
      <point x="647.168" y="1472.51" type="qcurve"/>
      <point x="763.904" y="1472.51" type="line"/>
    </contour>
  </outline>
</glyph>
<glyph name="two" format="2">
  <advance width="1139"/>
  <unicode hex="0032"/>
  <outline>
    <contour>
      <point x="1030.14" y="0" type="line"/>
      <point x="61.44" y="0" type="line"/>
      <point x="57.344" y="149.504"/>
      <point x="200.704" y="319.488" type="qcurve" smooth="yes"/>
      <point x="282.624" y="415.744"/>
      <point x="436.224" y="542.72" type="qcurve" smooth="yes"/>
      <point x="618.496" y="690.176"/>
      <point x="692.224" y="772.096" type="qcurve" smooth="yes"/>
      <point x="843.776" y="935.936"/>
      <point x="843.776" y="1069.06" type="qcurve" smooth="yes"/>
      <point x="843.776" y="1183.74"/>
      <point x="684.032" y="1323.01"/>
      <point x="567.296" y="1323.01" type="qcurve" smooth="yes"/>
      <point x="434.176" y="1323.01"/>
      <point x="282.624" y="1163.26"/>
      <point x="280.576" y="1028.1" type="qcurve"/>
      <point x="96.256" y="1048.58" type="line"/>
      <point x="114.688" y="1255.42"/>
      <point x="362.496" y="1472.51"/>
      <point x="571.392" y="1472.51" type="qcurve" smooth="yes"/>
      <point x="765.952" y="1472.51"/>
      <point x="892.928" y="1368.06" type="qcurve" smooth="yes"/>
      <point x="1028.1" y="1255.42"/>
      <point x="1028.1" y="1064.96" type="qcurve" smooth="yes"/>
      <point x="1028.1" y="888.832"/>
      <point x="874.496" y="712.704" type="qcurve" smooth="yes"/>
      <point x="788.48" y="616.448"/>
      <point x="595.968" y="454.656" type="qcurve" smooth="yes"/>
      <point x="460.8" y="342.016"/>
      <point x="442.368" y="325.632" type="qcurve" smooth="yes"/>
      <point x="354.304" y="243.712"/>
      <point x="311.296" y="172.032" type="qcurve"/>
      <point x="1030.14" y="172.032" type="line"/>
    </contour>
  </outline>
</glyph>
<glyph name="seven" format="2">
  <advance width="1139"/>
  <unicode hex="0037"/>
  <outline>
    <contour>
      <point x="1046.53" y="1306.62" type="line"/>
      <point x="888.832" y="1138.69"/>
      <point x="751.616" y="882.688" type="qcurve" smooth="yes"/>
      <point x="624.64" y="643.072"/>
      <point x="555.008" y="403.456" type="qcurve" smooth="yes"/>
      <point x="501.76" y="215.04"/>
      <point x="487.424" y="0" type="qcurve"/>
      <point x="301.056" y="0" type="line"/>
      <point x="305.152" y="206.848"/>
      <point x="380.928" y="458.752" type="qcurve" smooth="yes"/>
      <point x="450.56" y="690.176"/>
      <point x="557.056" y="890.88" type="qcurve" smooth="yes"/>
      <point x="677.888" y="1118.21"/>
      <point x="815.104" y="1273.86" type="qcurve"/>
      <point x="96.256" y="1273.86" type="line"/>
      <point x="96.256" y="1447.94" type="line"/>
      <point x="1046.53" y="1447.94" type="line"/>
    </contour>
  </outline>
</glyph>
<glyph name="nine" format="2">
  <advance width="1139"/>
  <unicode hex="0039"/>
  <outline>
    <contour>
      <point x="1048.58" y="763.904" type="line"/>
      <point x="1048.58" y="237.568"/>
      <point x="806.912" y="61.44" type="qcurve" smooth="yes"/>
      <point x="686.08" y="-24.576"/>
      <point x="524.288" y="-24.576" type="qcurve" smooth="yes"/>
      <point x="350.208" y="-24.576"/>
      <point x="133.12" y="165.888"/>
      <point x="112.64" y="339.968" type="qcurve"/>
      <point x="284.672" y="354.304" type="line"/>
      <point x="327.68" y="122.88"/>
      <point x="528.384" y="122.88" type="qcurve" smooth="yes"/>
      <point x="688.128" y="122.88"/>
      <point x="776.192" y="262.144" type="qcurve" smooth="yes"/>
      <point x="870.4" y="411.648"/>
      <point x="870.4" y="653.312" type="qcurve" smooth="yes"/>
      <point x="870.4" y="665.6"/>
      <point x="868.352" y="690.176" type="qcurve"/>
      <point x="813.056" y="600.064"/>
      <point x="624.64" y="497.664"/>
      <point x="518.144" y="497.664" type="qcurve" smooth="yes"/>
      <point x="321.536" y="497.664"/>
      <point x="200.704" y="641.024" type="qcurve" smooth="yes"/>
      <point x="86.016" y="776.192"/>
      <point x="86.016" y="976.896" type="qcurve" smooth="yes"/>
      <point x="86.016" y="1189.89"/>
      <point x="208.896" y="1327.1" type="qcurve" smooth="yes"/>
      <point x="335.872" y="1472.51"/>
      <point x="546.816" y="1472.51" type="qcurve" smooth="yes"/>
      <point x="694.272" y="1472.51"/>
      <point x="927.744" y="1312.77"/>
      <point x="987.136" y="1175.55" type="qcurve" smooth="yes"/>
      <point x="1048.58" y="1032.19"/>
      <point x="1048.58" y="763.904" type="qcurve"/>
    </contour>
    <contour>
      <point x="849.92" y="985.088" type="line"/>
      <point x="849.92" y="1122.3"/>
      <point x="778.24" y="1218.56" type="qcurve" smooth="yes"/>
      <point x="700.416" y="1323.01"/>
      <point x="567.296" y="1323.01" type="qcurve" smooth="yes"/>
      <point x="432.128" y="1323.01"/>
      <point x="348.16" y="1212.42" type="qcurve" smooth="yes"/>
      <point x="270.336" y="1110.02"/>
      <point x="270.336" y="970.752" type="qcurve" smooth="yes"/>
      <point x="270.336" y="837.632"/>
      <point x="348.16" y="749.568" type="qcurve" smooth="yes"/>
      <point x="432.128" y="655.36"/>
      <point x="563.2" y="655.36" type="qcurve" smooth="yes"/>
      <point x="700.416" y="655.36"/>
      <point x="778.24" y="753.664" type="qcurve" smooth="yes"/>
      <point x="849.92" y="843.776"/>
      <point x="849.92" y="985.088" type="qcurve"/>
    </contour>
  </outline>
</glyph>
<glyph name="colon" format="2">
  <advance width="569"/>
  <unicode hex="003A"/>
  <outline>
    <contour>
      <point x="389.12" y="856.064" type="line"/>
      <point x="184.32" y="856.064" type="line"/>
      <point x="184.32" y="1062.91" type="line"/>
      <point x="389.12" y="1062.91" type="line"/>
    </contour>
    <contour>
      <point x="389.12" y="0" type="line"/>
      <point x="184.32" y="0" type="line"/>
      <point x="184.32" y="204.8" type="line"/>
      <point x="389.12" y="204.8" type="line"/>
    </contour>
  </outline>
</glyph>
<glyph name="A" format="2">
  <advance width="1366"/>
  <unicode hex="0041"/>
  <outline>
    <contour>
      <point x="1368" y="0" type="line"/>
      <point x="1149" y="0" type="line"/>
      <point x="977" y="444" type="line"/>
      <point x="365" y="444" type="line"/>
      <point x="203" y="0" type="line"/>
      <point x="-2" y="0" type="line"/>
      <point x="559" y="1466" type="line"/>
      <point x="768" y="1466" type="line"/>
    </contour>
    <contour>
      <point x="918" y="602" type="line"/>
      <point x="764" y="1008" type="line" smooth="yes"/>
      <point x="692" y="1196"/>
      <point x="659" y="1313" type="qcurve"/>
      <point x="631" y="1165"/>
      <point x="582" y="1032" type="qcurve" smooth="yes"/>
      <point x="420" y="602" type="line"/>
    </contour>
  </outline>
</glyph>
<glyph name="B" format="2">
  <advance width="1366"/>
  <unicode hex="0042"/>
  <outline>
    <contour>
      <point x="1257" y="426" type="line"/>
      <point x="1257" y="211"/>
      <point x="1106" y="96" type="qcurve" smooth="yes"/>
      <point x="977" y="0"/>
      <point x="709" y="0" type="qcurve" smooth="yes"/>
      <point x="150" y="0" type="line"/>
      <point x="150" y="1466" type="line"/>
      <point x="700" y="1466" type="line" smooth="yes"/>
      <point x="1016" y="1466"/>
      <point x="1128" y="1284" type="qcurve" smooth="yes"/>
      <point x="1186" y="1192"/>
      <point x="1186" y="1092" type="qcurve" smooth="yes"/>
      <point x="1186" y="881"/>
      <point x="981" y="780" type="qcurve"/>
      <point x="1110" y="741"/>
      <point x="1257" y="557"/>
      <point x="1257" y="426" type="qcurve"/>
    </contour>
    <contour>
      <point x="995" y="1067" type="line"/>
      <point x="995" y="1231"/>
      <point x="860" y="1272" type="qcurve" smooth="yes"/>
      <point x="795" y="1292"/>
      <point x="637" y="1292" type="qcurve" smooth="yes"/>
      <point x="344" y="1292" type="line"/>
      <point x="344" y="850" type="line"/>
      <point x="662" y="850" type="line" smooth="yes"/>
      <point x="788" y="850"/>
      <point x="846" y="866" type="qcurve" smooth="yes"/>
      <point x="995" y="911"/>
      <point x="995" y="1067" type="qcurve"/>
    </contour>
    <contour>
      <point x="1057" y="426" type="line"/>
      <point x="1057" y="600"/>
      <point x="897" y="653" type="qcurve" smooth="yes"/>
      <point x="823" y="678"/>
      <point x="682" y="678" type="qcurve" smooth="yes"/>
      <point x="344" y="678" type="line"/>
      <point x="344" y="172" type="line"/>
      <point x="709" y="172" type="line" smooth="yes"/>
      <point x="803" y="172"/>
      <point x="842" y="180" type="qcurve" smooth="yes"/>
      <point x="975" y="205"/>
      <point x="1026" y="301" type="qcurve"/>
      <point x="1057" y="354"/>
      <point x="1057" y="426" type="qcurve"/>
    </contour>
  </outline>
</glyph>
<glyph name="F" format="2">
  <advance width="1251"/>
  <unicode hex="0046"/>
  <outline>
    <contour>
      <point x="1157.12" y="1292.29" type="line"/>
      <point x="362.496" y="1292.29" type="line"/>
      <point x="362.496" y="839.68" type="line"/>
      <point x="1050.62" y="839.68" type="line"/>
      <point x="1050.62" y="665.6" type="line"/>
      <point x="362.496" y="665.6" type="line"/>
      <point x="362.496" y="0" type="line"/>
      <point x="167.936" y="0" type="line"/>
      <point x="167.936" y="1466.37" type="line"/>
      <point x="1157.12" y="1466.37" type="line"/>
    </contour>
  </outline>
</glyph>
<glyph name="G" format="2">
  <advance width="1593"/>
  <unicode hex="0047"/>
  <outline>
    <contour>
      <point x="1464.32" y="204.8" type="line"/>
      <point x="1177.6" y="-24.576"/>
      <point x="858.112" y="-24.576" type="qcurve" smooth="yes"/>
      <point x="645.12" y="-24.576"/>
      <point x="475.136" y="61.44" type="qcurve" smooth="yes"/>
      <point x="290.816" y="155.648"/>
      <point x="198.656" y="335.872" type="qcurve" smooth="yes"/>
      <point x="108.544" y="509.952"/>
      <point x="108.544" y="724.992" type="qcurve" smooth="yes"/>
      <point x="108.544" y="937.984"/>
      <point x="192.512" y="1112.06" type="qcurve" smooth="yes"/>
      <point x="284.672" y="1308.67"/>
      <point x="624.64" y="1490.94"/>
      <point x="843.776" y="1490.94" type="qcurve" smooth="yes"/>
      <point x="1177.6" y="1490.94"/>
      <point x="1331.2" y="1296.38" type="qcurve" smooth="yes"/>
      <point x="1404.93" y="1204.22"/>
      <point x="1443.84" y="1056.77" type="qcurve"/>
      <point x="1267.71" y="1007.62" type="line"/>
      <point x="1206.27" y="1218.56"/>
      <point x="1046.53" y="1286.14" type="qcurve" smooth="yes"/>
      <point x="954.368" y="1325.06"/>
      <point x="843.776" y="1325.06" type="qcurve" smooth="yes"/>
      <point x="589.824" y="1325.06"/>
      <point x="456.704" y="1177.6" type="qcurve" smooth="yes"/>
      <point x="309.248" y="1013.76"/>
      <point x="309.248" y="737.28" type="qcurve" smooth="yes"/>
      <point x="309.248" y="344.064"/>
      <point x="573.44" y="212.992" type="qcurve" smooth="yes"/>
      <point x="702.464" y="149.504"/>
      <point x="847.872" y="149.504" type="qcurve" smooth="yes"/>
      <point x="954.368" y="149.504"/>
      <point x="1198.08" y="233.472"/>
      <point x="1275.9" y="301.056" type="qcurve"/>
      <point x="1275.9" y="575.488" type="line"/>
      <point x="843.776" y="575.488" type="line"/>
      <point x="843.776" y="747.52" type="line"/>
      <point x="1464.32" y="747.52" type="line"/>
    </contour>
  </outline>
</glyph>
<glyph name="J" format="2">
  <advance width="1024"/>
  <unicode hex="004A"/>
  <outline>
    <contour>
      <point x="864.256" y="466.944" type="line" smooth="yes"/>
      <point x="864.256" y="129.024"/>
      <point x="679.936" y="28.672" type="qcurve" smooth="yes"/>
      <point x="583.68" y="-24.576"/>
      <point x="452.608" y="-24.576" type="qcurve" smooth="yes"/>
      <point x="51.2" y="-24.576"/>
      <point x="59.392" y="415.744" type="qcurve"/>
      <point x="233.472" y="440.32" type="line"/>
      <point x="239.616" y="303.104"/>
      <point x="278.528" y="237.568" type="qcurve" smooth="yes"/>
      <point x="329.728" y="147.456"/>
      <point x="452.608" y="147.456" type="qcurve" smooth="yes"/>
      <point x="608.256" y="147.456"/>
      <point x="651.264" y="272.384" type="qcurve" smooth="yes"/>
      <point x="671.744" y="329.728"/>
      <point x="671.744" y="456.704" type="qcurve" smooth="yes"/>
      <point x="671.744" y="1466.37" type="line"/>
      <point x="864.256" y="1466.37" type="line"/>
    </contour>
  </outline>
</glyph>
<glyph name="K" format="2">
  <advance width="1366"/>
  <unicode hex="004B"/>
  <outline>
    <contour>
      <point x="1361.92" y="0" type="line"/>
      <point x="1105.92" y="0" type="line"/>
      <point x="583.68" y="741.376" type="line"/>
      <point x="344.064" y="507.904" type="line"/>
      <point x="344.064" y="0" type="line"/>
      <point x="149.504" y="0" type="line"/>
      <point x="149.504" y="1466.37" type="line"/>
      <point x="344.064" y="1466.37" type="line"/>
      <point x="344.064" y="739.328" type="line"/>
      <point x="1071.1" y="1466.37" type="line"/>
      <point x="1335.3" y="1466.37" type="line"/>
      <point x="720.896" y="872.448" type="line"/>
    </contour>
  </outline>
</glyph>
<glyph name="N" format="2">
  <advance width="1479"/>
  <unicode hex="004E"/>
  <outline>
    <contour>
      <point x="1310.72" y="0" type="line"/>
      <point x="1112.06" y="0" type="line"/>
      <point x="342.016" y="1153.02" type="line"/>
      <point x="342.016" y="0" type="line"/>
      <point x="155.648" y="0" type="line"/>
      <point x="155.648" y="1466.37" type="line"/>
      <point x="354.304" y="1466.37" type="line"/>
      <point x="1124.35" y="315.392" type="line"/>
      <point x="1124.35" y="1466.37" type="line"/>
      <point x="1310.72" y="1466.37" type="line"/>
    </contour>
  </outline>
</glyph>
<glyph name="O" format="2">
  <advance width="1593"/>
  <unicode hex="004F"/>
  <outline>
    <contour>
      <point x="1501" y="731" type="line"/>
      <point x="1501" y="518"/>
      <point x="1419" y="348" type="qcurve" smooth="yes"/>
      <point x="1329" y="160"/>
      <point x="1155" y="66" type="qcurve" smooth="yes"/>
      <point x="991" y="-25"/>
      <point x="801" y="-25" type="qcurve" smooth="yes"/>
      <point x="598" y="-25"/>
      <point x="270" y="170"/>
      <point x="182" y="348" type="qcurve" smooth="yes"/>
      <point x="98" y="520"/>
      <point x="98" y="715" type="qcurve" smooth="yes"/>
      <point x="98" y="1055"/>
      <point x="276" y="1266" type="qcurve" smooth="yes"/>
      <point x="467" y="1493"/>
      <point x="801" y="1493" type="qcurve" smooth="yes"/>
      <point x="1001" y="1493"/>
      <point x="1329" y="1300"/>
      <point x="1501" y="950"/>
      <point x="1501" y="731" type="qcurve"/>
    </contour>
    <contour>
      <point x="1300" y="731" type="line"/>
      <point x="1300" y="1102"/>
      <point x="1063" y="1251" type="qcurve" smooth="yes"/>
      <point x="946" y="1325"/>
      <point x="803" y="1325" type="qcurve" smooth="yes"/>
      <point x="543" y="1325"/>
      <point x="414" y="1141" type="qcurve" smooth="yes"/>
      <point x="299" y="981"/>
      <point x="299" y="711" type="qcurve" smooth="yes"/>
      <point x="299" y="469"/>
      <point x="426" y="311" type="qcurve" smooth="yes"/>
      <point x="563" y="141"/>
      <point x="799" y="141" type="qcurve" smooth="yes"/>
      <point x="1044" y="141"/>
      <point x="1180" y="317" type="qcurve" smooth="yes"/>
      <point x="1300" y="479"/>
      <point x="1300" y="731" type="qcurve"/>
    </contour>
  </outline>
</glyph>
<glyph name="P" format="2">
  <advance width="1366"/>
  <unicode hex="0050"/>
  <outline>
    <contour>
      <point x="1277.95" y="1042.43" type="line"/>
      <point x="1277.95" y="595.968"/>
      <point x="727.04" y="595.968" type="qcurve" smooth="yes"/>
      <point x="352.256" y="595.968" type="line"/>
      <point x="352.256" y="0" type="line"/>
      <point x="157.696" y="0" type="line"/>
      <point x="157.696" y="1466.37" type="line"/>
      <point x="710.656" y="1466.37" type="line" smooth="yes"/>
      <point x="854.016" y="1466.37"/>
      <point x="933.888" y="1452.03" type="qcurve" smooth="yes"/>
      <point x="1146.88" y="1415.17"/>
      <point x="1232.9" y="1241.09" type="qcurve" smooth="yes"/>
      <point x="1277.95" y="1150.98"/>
      <point x="1277.95" y="1042.43" type="qcurve"/>
    </contour>
    <contour>
      <point x="1077.25" y="1036.29" type="line"/>
      <point x="1077.25" y="1122.3"/>
      <point x="989.184" y="1257.47"/>
      <point x="907.264" y="1280" type="qcurve" smooth="yes"/>
      <point x="860.16" y="1292.29"/>
      <point x="727.04" y="1292.29" type="qcurve" smooth="yes"/>
      <point x="352.256" y="1292.29" type="line"/>
      <point x="352.256" y="768" type="line"/>
      <point x="731.136" y="768" type="line" smooth="yes"/>
      <point x="1077.25" y="768"/>
      <point x="1077.25" y="1036.29" type="qcurve"/>
    </contour>
  </outline>
</glyph>
<glyph name="Q" format="2">
  <advance width="1593"/>
  <unicode hex="0051"/>
  <outline>
    <contour>
      <point x="1517.57" y="20.48" type="line"/>
      <point x="1460.22" y="-114.688" type="line"/>
      <point x="1302.53" y="-57.344"/>
      <point x="1146.88" y="65.536" type="qcurve"/>
      <point x="983.04" y="-24.576"/>
      <point x="786.432" y="-24.576" type="qcurve" smooth="yes"/>
      <point x="587.776" y="-24.576"/>
      <point x="264.192" y="165.888"/>
      <point x="88.064" y="514.048"/>
      <point x="88.064" y="733.184" type="qcurve" smooth="yes"/>
      <point x="88.064" y="942.08"/>
      <point x="167.936" y="1114.11" type="qcurve" smooth="yes"/>
      <point x="258.048" y="1302.53"/>
      <point x="589.824" y="1492.99"/>
      <point x="790.528" y="1492.99" type="qcurve" smooth="yes"/>
      <point x="991.232" y="1492.99"/>
      <point x="1316.86" y="1302.53"/>
      <point x="1490.94" y="952.32"/>
      <point x="1490.94" y="733.184" type="qcurve" smooth="yes"/>
      <point x="1490.94" y="370.688"/>
      <point x="1269.76" y="157.696" type="qcurve"/>
      <point x="1404.93" y="63.488"/>
      <point x="1517.57" y="20.48" type="qcurve"/>
    </contour>
    <contour>
      <point x="1290.24" y="733.184" type="line"/>
      <point x="1290.24" y="1101.82"/>
      <point x="1052.67" y="1251.33" type="qcurve" smooth="yes"/>
      <point x="935.936" y="1325.06"/>
      <point x="790.528" y="1325.06" type="qcurve" smooth="yes"/>
      <point x="540.672" y="1325.06"/>
      <point x="407.552" y="1148.93" type="qcurve" smooth="yes"/>
      <point x="288.768" y="991.232"/>
      <point x="288.768" y="733.184" type="qcurve" smooth="yes"/>
      <point x="288.768" y="477.184"/>
      <point x="409.6" y="317.44" type="qcurve" smooth="yes"/>
      <point x="542.72" y="141.312"/>
      <point x="790.528" y="141.312" type="qcurve" smooth="yes"/>
      <point x="894.976" y="141.312"/>
      <point x="987.136" y="180.224" type="qcurve"/>
      <point x="894.976" y="239.616"/>
      <point x="794.624" y="264.192" type="qcurve"/>
      <point x="841.728" y="405.504" type="line"/>
      <point x="1009.66" y="358.4"/>
      <point x="1118.21" y="264.192" type="qcurve"/>
      <point x="1290.24" y="421.888"/>
      <point x="1290.24" y="733.184" type="qcurve"/>
    </contour>
  </outline>
</glyph>
<glyph name="R" format="2">
  <advance width="1479"/>
  <unicode hex="0052"/>
  <outline>
    <contour>
      <point x="1452.03" y="0" type="line"/>
      <point x="1208.32" y="0" type="line"/>
      <point x="1015.81" y="305.152" type="line" smooth="yes"/>
      <point x="950.272" y="407.552"/>
      <point x="907.264" y="464.896" type="qcurve" smooth="yes"/>
      <point x="829.44" y="571.392"/>
      <point x="776.192" y="604.16" type="qcurve"/>
      <point x="731.136" y="634.88"/>
      <point x="688.128" y="643.072" type="qcurve"/>
      <point x="657.408" y="651.264"/>
      <point x="579.584" y="651.264" type="qcurve" smooth="yes"/>
      <point x="354.304" y="651.264" type="line"/>
      <point x="354.304" y="0" type="line"/>
      <point x="161.792" y="0" type="line"/>
      <point x="161.792" y="1466.37" type="line"/>
      <point x="811.008" y="1466.37" type="line" smooth="yes"/>
      <point x="980.992" y="1466.37"/>
      <point x="1071.1" y="1439.74" type="qcurve" smooth="yes"/>
      <point x="1202.18" y="1400.83"/>
      <point x="1271.81" y="1286.14" type="qcurve" smooth="yes"/>
      <point x="1333.25" y="1187.84"/>
      <point x="1333.25" y="1067.01" type="qcurve" smooth="yes"/>
      <point x="1333.25" y="722.944"/>
      <point x="919.552" y="667.648" type="qcurve"/>
      <point x="997.376" y="628.736"/>
      <point x="1036.29" y="593.92" type="qcurve" smooth="yes"/>
      <point x="1124.35" y="514.048"/>
      <point x="1198.08" y="399.36" type="qcurve" smooth="yes"/>
    </contour>
    <contour>
      <point x="1132.54" y="1067.01" type="line"/>
      <point x="1132.54" y="1304.58"/>
      <point x="819.2" y="1304.58" type="qcurve" smooth="yes"/>
      <point x="354.304" y="1304.58" type="line"/>
      <point x="354.304" y="819.2" type="line"/>
      <point x="772.096" y="819.2" type="line" smooth="yes"/>
      <point x="1019.9" y="819.2"/>
      <point x="1093.63" y="933.888" type="qcurve" smooth="yes"/>
      <point x="1132.54" y="995.328"/>
      <point x="1132.54" y="1067.01" type="qcurve"/>
    </contour>
  </outline>
</glyph>
<glyph name="S" format="2">
  <advance width="1366"/>
  <unicode hex="0053"/>
  <outline>
    <contour>
      <point x="1259.52" y="413.696" type="line"/>
      <point x="1259.52" y="288.768"/>
      <point x="1116.16" y="86.016"/>
      <point x="999.424" y="32.768" type="qcurve" smooth="yes"/>
      <point x="874.496" y="-24.576"/>
      <point x="716.8" y="-24.576" type="qcurve" smooth="yes"/>
      <point x="325.632" y="-24.576"/>
      <point x="172.032" y="206.848" type="qcurve" smooth="yes"/>
      <point x="96.256" y="323.584"/>
      <point x="92.16" y="471.04" type="qcurve"/>
      <point x="274.432" y="487.424" type="line"/>
      <point x="301.056" y="272.384"/>
      <point x="483.328" y="192.512" type="qcurve" smooth="yes"/>
      <point x="583.68" y="149.504"/>
      <point x="708.608" y="149.504" type="qcurve" smooth="yes"/>
      <point x="942.08" y="149.504"/>
      <point x="1030.14" y="272.384" type="qcurve" smooth="yes"/>
      <point x="1071.1" y="329.728"/>
      <point x="1071.1" y="397.312" type="qcurve" smooth="yes"/>
      <point x="1071.1" y="538.624"/>
      <point x="899.072" y="604.16" type="qcurve" smooth="yes"/>
      <point x="831.488" y="630.784"/>
      <point x="624.64" y="679.936" type="qcurve" smooth="yes"/>
      <point x="446.464" y="720.896"/>
      <point x="356.352" y="768" type="qcurve" smooth="yes"/>
      <point x="147.456" y="878.592"/>
      <point x="147.456" y="1087.49" type="qcurve" smooth="yes"/>
      <point x="147.456" y="1206.27"/>
      <point x="282.624" y="1394.69"/>
      <point x="395.264" y="1441.79" type="qcurve" smooth="yes"/>
      <point x="516.096" y="1490.94"/>
      <point x="663.552" y="1490.94" type="qcurve" smooth="yes"/>
      <point x="1007.62" y="1490.94"/>
      <point x="1142.78" y="1284.1" type="qcurve" smooth="yes"/>
      <point x="1210.37" y="1181.7"/>
      <point x="1214.46" y="1052.67" type="qcurve"/>
      <point x="1028.1" y="1038.34" type="line"/>
      <point x="999.424" y="1320.96"/>
      <point x="671.744" y="1320.96" type="qcurve" smooth="yes"/>
      <point x="538.624" y="1320.96"/>
      <point x="450.56" y="1275.9" type="qcurve" smooth="yes"/>
      <point x="335.872" y="1220.61"/>
      <point x="335.872" y="1099.78" type="qcurve" smooth="yes"/>
      <point x="335.872" y="987.136"/>
      <point x="460.8" y="927.744" type="qcurve" smooth="yes"/>
      <point x="514.048" y="903.168"/>
      <point x="684.032" y="866.304" type="qcurve"/>
      <point x="921.6" y="811.008"/>
      <point x="1009.66" y="772.096" type="qcurve" smooth="yes"/>
      <point x="1259.52" y="657.408"/>
      <point x="1259.52" y="413.696" type="qcurve"/>
    </contour>
  </outline>
</glyph>
<glyph name="U" format="2">
  <advance width="1479"/>
  <unicode hex="0055"/>
  <outline>
    <contour>
      <point x="1314.82" y="618.496" type="line" smooth="yes"/>
      <point x="1314.82" y="417.792"/>
      <point x="1275.9" y="301.056" type="qcurve" smooth="yes"/>
      <point x="1224.7" y="143.36"/>
      <point x="1083.39" y="57.344" type="qcurve" smooth="yes"/>
      <point x="952.32" y="-24.576"/>
      <point x="741.376" y="-24.576" type="qcurve" smooth="yes"/>
      <point x="331.776" y="-24.576"/>
      <point x="217.088" y="251.904" type="qcurve" smooth="yes"/>
      <point x="161.792" y="385.024"/>
      <point x="161.792" y="618.496" type="qcurve" smooth="yes"/>
      <point x="161.792" y="1466.37" type="line"/>
      <point x="354.304" y="1466.37" type="line"/>
      <point x="354.304" y="620.544" type="line" smooth="yes"/>
      <point x="354.304" y="462.848"/>
      <point x="376.832" y="382.976" type="qcurve" smooth="yes"/>
      <point x="409.6" y="256"/>
      <point x="512" y="198.656" type="qcurve" smooth="yes"/>
      <point x="598.016" y="149.504"/>
      <point x="724.992" y="149.504" type="qcurve" smooth="yes"/>
      <point x="958.464" y="149.504"/>
      <point x="1046.53" y="270.336" type="qcurve" smooth="yes"/>
      <point x="1120.26" y="370.688"/>
      <point x="1120.26" y="620.544" type="qcurve" smooth="yes"/>
      <point x="1120.26" y="1466.37" type="line"/>
      <point x="1314.82" y="1466.37" type="line"/>
    </contour>
  </outline>
</glyph>
<glyph name="V" format="2">
  <advance width="1366"/>
  <unicode hex="0056"/>
  <outline>
    <contour>
      <point x="1349.63" y="1466.37" type="line"/>
      <point x="776.192" y="0" type="line"/>
      <point x="577.536" y="0" type="line"/>
      <point x="8.192" y="1466.37" type="line"/>
      <point x="219.136" y="1466.37" type="line"/>
      <point x="600.064" y="401.408" type="line" smooth="yes"/>
      <point x="647.168" y="270.336"/>
      <point x="677.888" y="161.792" type="qcurve"/>
      <point x="710.656" y="276.48"/>
      <point x="755.712" y="401.408" type="qcurve" smooth="yes"/>
      <point x="1153.02" y="1466.37" type="line"/>
    </contour>
  </outline>
</glyph>
<glyph name="W" format="2">
  <advance width="1933"/>
  <unicode hex="0057"/>
  <outline>
    <contour>
      <point x="1910.78" y="1466.37" type="line"/>
      <point x="1507.33" y="0" type="line"/>
      <point x="1320.96" y="0" type="line"/>
      <point x="1011.71" y="1116.16" type="line" smooth="yes"/>
      <point x="972.8" y="1261.57"/>
      <point x="966.656" y="1288.19" type="qcurve"/>
      <point x="944.128" y="1191.94"/>
      <point x="923.648" y="1116.16" type="qcurve" smooth="yes"/>
      <point x="612.352" y="0" type="line"/>
      <point x="413.696" y="0" type="line"/>
      <point x="24.576" y="1466.37" type="line"/>
      <point x="223.232" y="1466.37" type="line"/>
      <point x="446.464" y="505.856" type="line" smooth="yes"/>
      <point x="485.376" y="337.92"/>
      <point x="509.952" y="204.8" type="qcurve"/>
      <point x="575.488" y="475.136" type="line"/>
      <point x="854.016" y="1466.37" type="line"/>
      <point x="1087.49" y="1466.37" type="line"/>
      <point x="1298.43" y="724.992" type="line" smooth="yes"/>
      <point x="1378.3" y="442.368"/>
      <point x="1411.07" y="204.8" type="qcurve"/>
      <point x="1435.65" y="319.488"/>
      <point x="1484.8" y="524.288" type="qcurve" smooth="yes"/>
      <point x="1714.18" y="1466.37" type="line"/>
    </contour>
  </outline>
</glyph>
<glyph name="bracketleft" format="2">
  <advance width="569"/>
  <unicode hex="005B"/>
  <outline>
    <contour>
      <point x="536.576" y="-407.552" type="line"/>
      <point x="139.264" y="-407.552" type="line"/>
      <point x="139.264" y="1466.37" type="line"/>
      <point x="536.576" y="1466.37" type="line"/>
      <point x="536.576" y="1316.86" type="line"/>
      <point x="319.488" y="1316.86" type="line"/>
      <point x="319.488" y="-258.048" type="line"/>
      <point x="536.576" y="-258.048" type="line"/>
    </contour>
  </outline>
</glyph>
<glyph name="backslash" format="2">
  <advance width="569"/>
  <unicode hex="005C"/>
  <outline>
    <contour>
      <point x="569.344" y="-24.576" type="line"/>
      <point x="425.984" y="-24.576" type="line"/>
      <point x="0" y="1490.94" type="line"/>
      <point x="145.408" y="1490.94" type="line"/>
    </contour>
  </outline>
</glyph>
<glyph name="asciicircum" format="2">
  <advance width="961"/>
  <unicode hex="005E"/>
  <outline>
    <contour>
      <point x="907.264" y="690.176" type="line"/>
      <point x="724.992" y="690.176" type="line"/>
      <point x="479.232" y="1286.14" type="line"/>
      <point x="239.616" y="690.176" type="line"/>
      <point x="53.248" y="690.176" type="line"/>
      <point x="407.552" y="1490.94" type="line"/>
      <point x="552.96" y="1490.94" type="line"/>
    </contour>
  </outline>
</glyph>
<glyph name="underscore" format="2">
  <advance width="1139"/>
  <unicode hex="005F"/>
  <outline>
    <contour>
      <point x="1161.22" y="-407.552" type="line"/>
      <point x="-30.72" y="-407.552" type="line"/>
      <point x="-30.72" y="-276.48" type="line"/>
      <point x="1161.22" y="-276.48" type="line"/>
    </contour>
  </outline>
</glyph>
<glyph name="grave" format="2">
  <advance width="682"/>
  <unicode hex="0060"/>
  <outline>
    <contour>
      <point x="464.896" y="1193.98" type="line"/>
      <point x="319.488" y="1193.98" type="line"/>
      <point x="88.064" y="1474.56" type="line"/>
      <point x="329.728" y="1474.56" type="line"/>
    </contour>
  </outline>
</glyph>
<glyph name="c" format="2">
  <advance width="1024"/>
  <unicode hex="0063"/>
  <outline>
    <contour>
      <point x="1005.57" y="366.592" type="line"/>
      <point x="976.896" y="186.368"/>
      <point x="741.376" y="-24.576"/>
      <point x="563.2" y="-24.576" type="qcurve" smooth="yes"/>
      <point x="325.632" y="-24.576"/>
      <point x="196.608" y="135.168" type="qcurve" smooth="yes"/>
      <point x="79.872" y="282.624"/>
      <point x="79.872" y="526.336" type="qcurve" smooth="yes"/>
      <point x="79.872" y="892.928"/>
      <point x="311.296" y="1021.95" type="qcurve" smooth="yes"/>
      <point x="425.984" y="1085.44"/>
      <point x="563.2" y="1085.44" type="qcurve" smooth="yes"/>
      <point x="733.184" y="1085.44"/>
      <point x="956.416" y="915.456"/>
      <point x="987.136" y="749.568" type="qcurve"/>
      <point x="813.056" y="722.944" type="line"/>
      <point x="761.856" y="937.984"/>
      <point x="571.392" y="937.984" type="qcurve" smooth="yes"/>
      <point x="264.192" y="937.984"/>
      <point x="264.192" y="532.48" type="qcurve" smooth="yes"/>
      <point x="264.192" y="124.928"/>
      <point x="561.152" y="124.928" type="qcurve" smooth="yes"/>
      <point x="790.528" y="124.928"/>
      <point x="827.392" y="389.12" type="qcurve"/>
    </contour>
  </outline>
</glyph>
<glyph name="h" format="2">
  <advance width="1139"/>
  <unicode hex="0068"/>
  <outline>
    <contour>
      <point x="999.424" y="0" type="line"/>
      <point x="819.2" y="0" type="line"/>
      <point x="819.2" y="673.792" type="line" smooth="yes"/>
      <point x="819.2" y="931.84"/>
      <point x="595.968" y="931.84" type="qcurve" smooth="yes"/>
      <point x="516.096" y="931.84"/>
      <point x="374.784" y="847.872"/>
      <point x="315.392" y="706.56"/>
      <point x="315.392" y="581.632" type="qcurve" smooth="yes"/>
      <point x="315.392" y="0" type="line"/>
      <point x="135.168" y="0" type="line"/>
      <point x="135.168" y="1466.37" type="line"/>
      <point x="315.392" y="1466.37" type="line"/>
      <point x="315.392" y="940.032" type="line"/>
      <point x="440.32" y="1085.44"/>
      <point x="632.832" y="1085.44" type="qcurve" smooth="yes"/>
      <point x="882.688" y="1085.44"/>
      <point x="962.56" y="911.36" type="qcurve" smooth="yes"/>
      <point x="999.424" y="829.44"/>
      <point x="999.424" y="673.792" type="qcurve" smooth="yes"/>
    </contour>
  </outline>
</glyph>
<glyph name="j" format="2">
  <advance width="455"/>
  <unicode hex="006A"/>
  <outline>
    <contour>
      <point x="313.344" y="1257.47" type="line"/>
      <point x="133.12" y="1257.47" type="line"/>
      <point x="133.12" y="1466.37" type="line"/>
      <point x="313.344" y="1466.37" type="line"/>
    </contour>
    <contour>
      <point x="313.344" y="-57.344" type="line" smooth="yes"/>
      <point x="313.344" y="-253.952"/>
      <point x="262.144" y="-331.776" type="qcurve" smooth="yes"/>
      <point x="196.608" y="-430.08"/>
      <point x="47.104" y="-430.08" type="qcurve" smooth="yes"/>
      <point x="-26.624" y="-430.08"/>
      <point x="-94.208" y="-411.648" type="qcurve"/>
      <point x="-59.392" y="-258.048" type="line"/>
      <point x="-6.144" y="-272.384"/>
      <point x="24.576" y="-272.384" type="qcurve" smooth="yes"/>
      <point x="102.4" y="-272.384"/>
      <point x="124.928" y="-196.608" type="qcurve"/>
      <point x="133.12" y="-159.744"/>
      <point x="133.12" y="-53.248" type="qcurve" smooth="yes"/>
      <point x="133.12" y="1062.91" type="line"/>
      <point x="313.344" y="1062.91" type="line"/>
    </contour>
  </outline>
</glyph>
<glyph name="k" format="2">
  <advance width="1024"/>
  <unicode hex="006B"/>
  <outline>
    <contour>
      <point x="1015.81" y="0" type="line"/>
      <point x="794.624" y="0" type="line"/>
      <point x="442.368" y="542.72" type="line"/>
      <point x="315.392" y="421.888" type="line"/>
      <point x="315.392" y="0" type="line"/>
      <point x="135.168" y="0" type="line"/>
      <point x="135.168" y="1466.37" type="line"/>
      <point x="315.392" y="1466.37" type="line"/>
      <point x="315.392" y="630.784" type="line"/>
      <point x="741.376" y="1062.91" type="line"/>
      <point x="974.848" y="1062.91" type="line"/>
      <point x="569.344" y="667.648" type="line"/>
    </contour>
  </outline>
</glyph>
<glyph name="l" format="2">
  <advance width="455"/>
  <unicode hex="006C"/>
  <outline>
    <contour>
      <point x="311.296" y="0" type="line"/>
      <point x="131.072" y="0" type="line"/>
      <point x="131.072" y="1466.37" type="line"/>
      <point x="311.296" y="1466.37" type="line"/>
    </contour>
  </outline>
</glyph>
<glyph name="o" format="2">
  <advance width="1139"/>
  <unicode hex="006F"/>
  <outline>
    <contour>
      <point x="1063" y="547" type="line"/>
      <point x="1063" y="174"/>
      <point x="823" y="41" type="qcurve" smooth="yes"/>
      <point x="705" y="-25"/>
      <point x="565" y="-25" type="qcurve" smooth="yes"/>
      <point x="324" y="-25"/>
      <point x="190" y="135" type="qcurve" smooth="yes"/>
      <point x="68" y="283"/>
      <point x="68" y="530" type="qcurve" smooth="yes"/>
      <point x="68" y="778"/>
      <point x="193" y="928" type="qcurve" smooth="yes"/>
      <point x="324" y="1085"/>
      <point x="565" y="1085" type="qcurve" smooth="yes"/>
      <point x="801" y="1085"/>
      <point x="936" y="932" type="qcurve" smooth="yes"/>
      <point x="1063" y="784"/>
      <point x="1063" y="547" type="qcurve"/>
    </contour>
    <contour>
      <point x="879" y="537" type="line"/>
      <point x="879" y="702"/>
      <point x="807" y="811" type="qcurve" smooth="yes"/>
      <point x="723" y="938"/>
      <point x="565" y="938" type="qcurve" smooth="yes"/>
      <point x="406" y="938"/>
      <point x="322" y="809" type="qcurve" smooth="yes"/>
      <point x="254" y="702"/>
      <point x="254" y="530" type="qcurve" smooth="yes"/>
      <point x="254" y="360"/>
      <point x="322" y="252" type="qcurve"/>
      <point x="406" y="125"/>
      <point x="565" y="125" type="qcurve" smooth="yes"/>
      <point x="729" y="125"/>
      <point x="811" y="256" type="qcurve" smooth="yes"/>
      <point x="879" y="365"/>
      <point x="879" y="537" type="qcurve"/>
    </contour>
  </outline>
</glyph>
<glyph name="q" format="2">
  <advance width="1139"/>
  <unicode hex="0071"/>
  <outline>
    <contour>
      <point x="991.232" y="-407.552" type="line"/>
      <point x="811.008" y="-407.552" type="line"/>
      <point x="811.008" y="112.64" type="line"/>
      <point x="714.752" y="-24.576"/>
      <point x="534.528" y="-24.576" type="qcurve" smooth="yes"/>
      <point x="315.392" y="-24.576"/>
      <point x="186.368" y="153.6" type="qcurve" smooth="yes"/>
      <point x="71.68" y="313.344"/>
      <point x="71.68" y="540.672" type="qcurve" smooth="yes"/>
      <point x="71.68" y="886.784"/>
      <point x="288.768" y="1019.9" type="qcurve" smooth="yes"/>
      <point x="393.216" y="1085.44"/>
      <point x="520.192" y="1085.44" type="qcurve" smooth="yes"/>
      <point x="716.8" y="1085.44"/>
      <point x="829.44" y="919.552" type="qcurve"/>
      <point x="829.44" y="1062.91" type="line"/>
      <point x="991.232" y="1062.91" type="line"/>
    </contour>
    <contour>
      <point x="829.44" y="518.144" type="line"/>
      <point x="829.44" y="681.984"/>
      <point x="768" y="798.72" type="qcurve" smooth="yes"/>
      <point x="688.128" y="944.128"/>
      <point x="536.576" y="944.128" type="qcurve" smooth="yes"/>
      <point x="387.072" y="944.128"/>
      <point x="313.344" y="806.912" type="qcurve" smooth="yes"/>
      <point x="256" y="698.368"/>
      <point x="256" y="534.528" type="qcurve" smooth="yes"/>
      <point x="256" y="370.688"/>
      <point x="319.488" y="260.096" type="qcurve" smooth="yes"/>
      <point x="397.312" y="124.928"/>
      <point x="548.864" y="124.928" type="qcurve" smooth="yes"/>
      <point x="694.272" y="124.928"/>
      <point x="770.048" y="253.952" type="qcurve"/>
      <point x="829.44" y="360.448"/>
      <point x="829.44" y="518.144" type="qcurve"/>
    </contour>
  </outline>
</glyph>
<glyph name="v" format="2">
  <advance width="1024"/>
  <unicode hex="0076"/>
  <outline>
    <contour>
      <point x="999.424" y="1062.91" type="line"/>
      <point x="598.016" y="0" type="line"/>
      <point x="430.08" y="0" type="line"/>
      <point x="26.624" y="1062.91" type="line"/>
      <point x="215.04" y="1062.91" type="line"/>
      <point x="444.416" y="425.984" type="line" smooth="yes"/>
      <point x="481.28" y="321.536"/>
      <point x="512" y="212.992" type="qcurve"/>
      <point x="536.576" y="294.912"/>
      <point x="579.584" y="413.696" type="qcurve" smooth="yes"/>
      <point x="815.104" y="1062.91" type="line"/>
    </contour>
  </outline>
</glyph>
<glyph name="w" format="2">
  <advance width="1479"/>
  <unicode hex="0077"/>
  <outline>
    <contour>
      <point x="1462.27" y="1062.91" type="line"/>
      <point x="1130.5" y="0" type="line"/>
      <point x="944.128" y="0" type="line"/>
      <point x="774.144" y="636.928" type="line"/>
      <point x="733.184" y="817.152" type="line"/>
      <point x="518.144" y="0" type="line"/>
      <point x="331.776" y="0" type="line"/>
      <point x="6.144" y="1062.91" type="line"/>
      <point x="192.512" y="1062.91" type="line"/>
      <point x="423.936" y="221.184" type="line"/>
      <point x="434.176" y="264.192"/>
      <point x="479.232" y="440.32" type="qcurve"/>
      <point x="647.168" y="1062.91" type="line"/>
      <point x="833.536" y="1062.91" type="line"/>
      <point x="1044.48" y="243.712" type="line"/>
      <point x="1288.19" y="1062.91" type="line"/>
    </contour>
  </outline>
</glyph>
<glyph name="y" format="2">
  <advance width="1024"/>
  <unicode hex="0079"/>
  <outline>
    <contour>
      <point x="1005.57" y="1062.91" type="line"/>
      <point x="602.112" y="-18.432" type="line" smooth="yes"/>
      <point x="536.576" y="-194.56"/>
      <point x="501.76" y="-258.048" type="qcurve" smooth="yes"/>
      <point x="407.552" y="-430.08"/>
      <point x="243.712" y="-430.08" type="qcurve" smooth="yes"/>
      <point x="190.464" y="-430.08"/>
      <point x="126.976" y="-409.6" type="qcurve"/>
      <point x="106.496" y="-239.616" type="line"/>
      <point x="165.888" y="-256"/>
      <point x="210.944" y="-256" type="qcurve" smooth="yes"/>
      <point x="317.44" y="-256"/>
      <point x="364.544" y="-180.224" type="qcurve" smooth="yes"/>
      <point x="382.976" y="-151.552"/>
      <point x="419.84" y="-45.056" type="qcurve" smooth="yes"/>
      <point x="428.032" y="-22.528"/>
      <point x="436.224" y="-2.048" type="qcurve"/>
      <point x="32.768" y="1062.91" type="line"/>
      <point x="227.328" y="1062.91" type="line"/>
      <point x="448.512" y="446.464" type="line" smooth="yes"/>
      <point x="493.568" y="319.488"/>
      <point x="524.288" y="200.704" type="qcurve"/>
      <point x="557.056" y="327.68"/>
      <point x="598.016" y="442.368" type="qcurve" smooth="yes"/>
      <point x="825.344" y="1062.91" type="line"/>
    </contour>
  </outline>
</glyph>
<glyph name="z" format="2">
  <advance width="1024"/>
  <unicode hex="007A"/>
  <outline>
    <contour>
      <point x="980.992" y="0" type="line"/>
      <point x="40.96" y="0" type="line"/>
      <point x="40.96" y="145.408" type="line"/>
      <point x="716.8" y="921.6" type="line"/>
      <point x="600.064" y="915.456"/>
      <point x="512" y="915.456" type="qcurve" smooth="yes"/>
      <point x="79.872" y="915.456" type="line"/>
      <point x="79.872" y="1062.91" type="line"/>
      <point x="948.224" y="1062.91" type="line"/>
      <point x="948.224" y="942.08" type="line"/>
      <point x="262.144" y="145.408" type="line"/>
      <point x="382.976" y="155.648"/>
      <point x="489.472" y="155.648" type="qcurve" smooth="yes"/>
      <point x="980.992" y="155.648" type="line"/>
    </contour>
  </outline>
</glyph>
<glyph name="asciitilde" format="2">
  <advance width="1196"/>
  <unicode hex="007E"/>
  <outline>
    <contour>
      <point x="1110.02" y="673.792" type="line"/>
      <point x="989.184" y="559.104"/>
      <point x="833.536" y="559.104" type="qcurve" smooth="yes"/>
      <point x="727.04" y="559.104"/>
      <point x="544.768" y="641.024" type="qcurve" smooth="yes"/>
      <point x="425.984" y="692.224"/>
      <point x="348.16" y="692.224" type="qcurve" smooth="yes"/>
      <point x="227.328" y="692.224"/>
      <point x="86.016" y="557.056" type="qcurve"/>
      <point x="86.016" y="761.856" type="line"/>
      <point x="192.512" y="882.688"/>
      <point x="364.544" y="882.688" type="qcurve" smooth="yes"/>
      <point x="473.088" y="882.688"/>
      <point x="679.936" y="794.624" type="qcurve" smooth="yes"/>
      <point x="790.528" y="747.52"/>
      <point x="851.968" y="747.52" type="qcurve" smooth="yes"/>
      <point x="985.088" y="747.52"/>
      <point x="1110.02" y="884.736" type="qcurve"/>
    </contour>
  </outline>
</glyph>
<glyph name="uniE001" format="2">
  <advance width="1210"/>
  <unicode hex="E001"/>
  <outline>
    <contour>
      <point x="1210.37" y="409.6" type="line"/>
      <point x="1210.37" y="215.04"/>
      <point x="1103.87" y="69.632" type="qcurve" smooth="yes"/>
      <point x="987.136" y="-92.16"/>
      <point x="800.768" y="-92.16" type="qcurve" smooth="yes"/>
      <point x="632.832" y="-92.16"/>
      <point x="530.432" y="28.672" type="qcurve" smooth="yes"/>
      <point x="434.176" y="141.312"/>
      <point x="434.176" y="311.296" type="qcurve" smooth="yes"/>
      <point x="434.176" y="448.512"/>
      <point x="538.624" y="563.2" type="qcurve" smooth="yes"/>
      <point x="628.736" y="659.456"/>
      <point x="770.048" y="716.8" type="qcurve"/>
      <point x="718.848" y="727.04"/>
      <point x="634.88" y="727.04" type="qcurve"/>
      <point x="606.208" y="636.928"/>
      <point x="450.56" y="524.288"/>
      <point x="356.352" y="524.288" type="qcurve" smooth="yes"/>
      <point x="264.192" y="524.288"/>
      <point x="264.192" y="616.448" type="qcurve" smooth="yes"/>
      <point x="264.192" y="708.608"/>
      <point x="356.352" y="708.608" type="qcurve" smooth="yes"/>
      <point x="401.408" y="708.608"/>
      <point x="464.896" y="774.144"/>
      <point x="464.896" y="819.2" type="qcurve" smooth="yes"/>
      <point x="464.896" y="864.256"/>
      <point x="401.408" y="929.792"/>
      <point x="356.352" y="929.792" type="qcurve" smooth="yes"/>
      <point x="264.192" y="929.792"/>
      <point x="264.192" y="1021.95" type="qcurve" smooth="yes"/>
      <point x="264.192" y="1114.11"/>
      <point x="356.352" y="1114.11" type="qcurve" smooth="yes"/>
      <point x="450.56" y="1114.11"/>
      <point x="606.208" y="1001.47"/>
      <point x="634.88" y="911.36" type="qcurve"/>
      <point x="661.504" y="911.36" type="line" smooth="yes"/>
      <point x="901.12" y="911.36"/>
      <point x="997.376" y="1048.58" type="qcurve" smooth="yes"/>
      <point x="1026.05" y="1089.54"/>
      <point x="1026.05" y="1128.45" type="qcurve" smooth="yes"/>
      <point x="1026.05" y="1165.31"/>
      <point x="997.376" y="1206.27" type="qcurve" smooth="yes"/>
      <point x="901.12" y="1343.49"/>
      <point x="661.504" y="1343.49" type="qcurve" smooth="yes"/>
      <point x="483.328" y="1343.49"/>
      <point x="354.304" y="1257.47" type="qcurve" smooth="yes"/>
      <point x="323.584" y="1236.99"/>
      <point x="296.96" y="1236.99" type="qcurve" smooth="yes"/>
      <point x="260.096" y="1236.99"/>
      <point x="204.8" y="1296.38"/>
      <point x="204.8" y="1333.25" type="qcurve" smooth="yes"/>
      <point x="204.8" y="1372.16"/>
      <point x="241.664" y="1404.93" type="qcurve" smooth="yes"/>
      <point x="311.296" y="1464.32"/>
      <point x="442.368" y="1497.09" type="qcurve"/>
      <point x="555.008" y="1527.81"/>
      <point x="661.504" y="1527.81" type="qcurve" smooth="yes"/>
      <point x="862.208" y="1527.81"/>
      <point x="1021.95" y="1429.5" type="qcurve" smooth="yes"/>
      <point x="1210.37" y="1314.82"/>
      <point x="1210.37" y="1128.45" type="qcurve" smooth="yes"/>
      <point x="1210.37" y="931.84"/>
      <point x="1005.57" y="815.104" type="qcurve"/>
      <point x="1210.37" y="684.032"/>
      <point x="1210.37" y="409.6" type="qcurve"/>
    </contour>
    <contour>
      <point x="1026.05" y="409.6" type="line"/>
      <point x="1026.05" y="509.952"/>
      <point x="980.992" y="581.632" type="qcurve"/>
      <point x="858.112" y="565.248"/>
      <point x="749.568" y="499.712" type="qcurve" smooth="yes"/>
      <point x="618.496" y="417.792"/>
      <point x="618.496" y="311.296" type="qcurve" smooth="yes"/>
      <point x="618.496" y="219.136"/>
      <point x="661.504" y="159.744" type="qcurve" smooth="yes"/>
      <point x="710.656" y="92.16"/>
      <point x="800.768" y="92.16" type="qcurve" smooth="yes"/>
      <point x="907.264" y="92.16"/>
      <point x="970.752" y="202.752" type="qcurve" smooth="yes"/>
      <point x="1026.05" y="294.912"/>
      <point x="1026.05" y="409.6" type="qcurve"/>
    </contour>
  </outline>
</glyph>
<glyph name="uniE002" format="2">
  <advance width="1659"/>
  <unicode hex="E002"/>
  <outline>
    <contour>
      <point x="1658.88" y="819.2" type="line"/>
      <point x="1658.88" y="722.944"/>
      <point x="1544.19" y="561.152"/>
      <point x="1452.03" y="524.288" type="qcurve"/>
      <point x="1433.6" y="518.144"/>
      <point x="1415.17" y="518.144" type="qcurve" smooth="yes"/>
      <point x="1378.3" y="518.144"/>
      <point x="1325.06" y="575.488"/>
      <point x="1325.06" y="614.4" type="qcurve" smooth="yes"/>
      <point x="1325.06" y="659.456"/>
      <point x="1398.78" y="704.512"/>
      <point x="1433.6" y="727.04" type="qcurve"/>
      <point x="1105.92" y="727.04" type="line"/>
      <point x="1210.37" y="602.112"/>
      <point x="1210.37" y="409.6" type="qcurve" smooth="yes"/>
      <point x="1210.37" y="215.04"/>
      <point x="1103.87" y="69.632" type="qcurve" smooth="yes"/>
      <point x="987.136" y="-92.16"/>
      <point x="800.768" y="-92.16" type="qcurve" smooth="yes"/>
      <point x="632.832" y="-92.16"/>
      <point x="530.432" y="28.672" type="qcurve" smooth="yes"/>
      <point x="434.176" y="141.312"/>
      <point x="434.176" y="311.296" type="qcurve" smooth="yes"/>
      <point x="434.176" y="448.512"/>
      <point x="538.624" y="563.2" type="qcurve" smooth="yes"/>
      <point x="628.736" y="659.456"/>
      <point x="770.048" y="716.8" type="qcurve"/>
      <point x="718.848" y="727.04"/>
      <point x="661.504" y="727.04" type="qcurve" smooth="yes"/>
      <point x="567.296" y="727.04"/>
      <point x="567.296" y="819.2" type="qcurve" smooth="yes"/>
      <point x="567.296" y="911.36"/>
      <point x="661.504" y="911.36" type="qcurve" smooth="yes"/>
      <point x="737.28" y="911.36"/>
      <point x="802.816" y="929.792" type="qcurve" smooth="yes"/>
      <point x="882.688" y="950.272"/>
      <point x="946.176" y="997.376" type="qcurve" smooth="yes"/>
      <point x="1026.05" y="1056.77"/>
      <point x="1026.05" y="1128.45" type="qcurve" smooth="yes"/>
      <point x="1026.05" y="1169.41"/>
      <point x="993.28" y="1212.42" type="qcurve" smooth="yes"/>
      <point x="892.928" y="1343.49"/>
      <point x="661.504" y="1343.49" type="qcurve" smooth="yes"/>
      <point x="483.328" y="1343.49"/>
      <point x="354.304" y="1257.47" type="qcurve" smooth="yes"/>
      <point x="323.584" y="1236.99"/>
      <point x="296.96" y="1236.99" type="qcurve" smooth="yes"/>
      <point x="260.096" y="1236.99"/>
      <point x="204.8" y="1296.38"/>
      <point x="204.8" y="1333.25" type="qcurve" smooth="yes"/>
      <point x="204.8" y="1374.21"/>
      <point x="241.664" y="1404.93" type="qcurve" smooth="yes"/>
      <point x="313.344" y="1464.32"/>
      <point x="442.368" y="1497.09" type="qcurve" smooth="yes"/>
      <point x="555.008" y="1527.81"/>
      <point x="661.504" y="1527.81" type="qcurve" smooth="yes"/>
      <point x="862.208" y="1527.81"/>
      <point x="1021.95" y="1429.5" type="qcurve" smooth="yes"/>
      <point x="1210.37" y="1314.82"/>
      <point x="1210.37" y="1128.45" type="qcurve" smooth="yes"/>
      <point x="1210.37" y="1007.62"/>
      <point x="1126.4" y="911.36" type="qcurve"/>
      <point x="1433.6" y="911.36" type="line"/>
      <point x="1398.78" y="933.888"/>
      <point x="1325.06" y="978.944"/>
      <point x="1325.06" y="1024" type="qcurve" smooth="yes"/>
      <point x="1325.06" y="1062.91"/>
      <point x="1378.3" y="1120.26"/>
      <point x="1415.17" y="1120.26" type="qcurve" smooth="yes"/>
      <point x="1433.6" y="1120.26"/>
      <point x="1452.03" y="1114.11" type="qcurve"/>
      <point x="1544.19" y="1077.25"/>
      <point x="1658.88" y="915.456"/>
      <point x="1658.88" y="819.2" type="qcurve"/>
    </contour>
    <contour>
      <point x="1026.05" y="409.6" type="line"/>
      <point x="1026.05" y="509.952"/>
      <point x="980.992" y="581.632" type="qcurve"/>
      <point x="858.112" y="565.248"/>
      <point x="749.568" y="499.712" type="qcurve" smooth="yes"/>
      <point x="618.496" y="417.792"/>
      <point x="618.496" y="311.296" type="qcurve" smooth="yes"/>
      <point x="618.496" y="219.136"/>
      <point x="661.504" y="159.744" type="qcurve" smooth="yes"/>
      <point x="710.656" y="92.16"/>
      <point x="800.768" y="92.16" type="qcurve" smooth="yes"/>
      <point x="907.264" y="92.16"/>
      <point x="970.752" y="202.752" type="qcurve" smooth="yes"/>
      <point x="1026.05" y="294.912"/>
      <point x="1026.05" y="409.6" type="qcurve"/>
    </contour>
  </outline>
</glyph>
<glyph name="uniE004" format="2">
  <advance width="1774"/>
  <unicode hex="E004"/>
  <outline>
    <contour>
      <point x="1773.57" y="149.504" type="line"/>
      <point x="1773.57" y="118.784"/>
      <point x="1746.94" y="88.064" type="qcurve" smooth="yes"/>
      <point x="1665.02" y="-8.192"/>
      <point x="1529.86" y="-8.192" type="qcurve" smooth="yes"/>
      <point x="1433.6" y="-8.192"/>
      <point x="1277.95" y="104.448"/>
      <point x="1249.28" y="194.56" type="qcurve"/>
      <point x="1171.46" y="194.56" type="line"/>
      <point x="1122.3" y="67.584"/>
      <point x="1030.14" y="-8.192" type="qcurve" smooth="yes"/>
      <point x="929.792" y="-92.16"/>
      <point x="800.768" y="-92.16" type="qcurve" smooth="yes"/>
      <point x="632.832" y="-92.16"/>
      <point x="530.432" y="28.672" type="qcurve" smooth="yes"/>
      <point x="434.176" y="141.312"/>
      <point x="434.176" y="311.296" type="qcurve" smooth="yes"/>
      <point x="434.176" y="448.512"/>
      <point x="538.624" y="563.2" type="qcurve" smooth="yes"/>
      <point x="628.736" y="659.456"/>
      <point x="770.048" y="716.8" type="qcurve"/>
      <point x="718.848" y="727.04"/>
      <point x="661.504" y="727.04" type="qcurve" smooth="yes"/>
      <point x="567.296" y="727.04"/>
      <point x="567.296" y="819.2" type="qcurve" smooth="yes"/>
      <point x="567.296" y="911.36"/>
      <point x="661.504" y="911.36" type="qcurve" smooth="yes"/>
      <point x="888.832" y="911.36"/>
      <point x="989.184" y="1038.34" type="qcurve" smooth="yes"/>
      <point x="1026.05" y="1083.39"/>
      <point x="1026.05" y="1128.45" type="qcurve" smooth="yes"/>
      <point x="1026.05" y="1171.46"/>
      <point x="989.184" y="1216.51" type="qcurve" smooth="yes"/>
      <point x="888.832" y="1343.49"/>
      <point x="661.504" y="1343.49" type="qcurve" smooth="yes"/>
      <point x="483.328" y="1343.49"/>
      <point x="354.304" y="1257.47" type="qcurve" smooth="yes"/>
      <point x="323.584" y="1236.99"/>
      <point x="296.96" y="1236.99" type="qcurve" smooth="yes"/>
      <point x="260.096" y="1236.99"/>
      <point x="204.8" y="1296.38"/>
      <point x="204.8" y="1333.25" type="qcurve" smooth="yes"/>
      <point x="204.8" y="1372.16"/>
      <point x="241.664" y="1404.93" type="qcurve"/>
      <point x="311.296" y="1462.27"/>
      <point x="442.368" y="1497.09" type="qcurve" smooth="yes"/>
      <point x="555.008" y="1527.81"/>
      <point x="661.504" y="1527.81" type="qcurve" smooth="yes"/>
      <point x="862.208" y="1527.81"/>
      <point x="1021.95" y="1429.5" type="qcurve" smooth="yes"/>
      <point x="1210.37" y="1314.82"/>
      <point x="1210.37" y="1128.45" type="qcurve" smooth="yes"/>
      <point x="1210.37" y="931.84"/>
      <point x="1005.57" y="815.104" type="qcurve"/>
      <point x="1222.66" y="673.792"/>
      <point x="1208.32" y="378.88" type="qcurve"/>
      <point x="1249.28" y="378.88" type="line"/>
      <point x="1277.95" y="468.992"/>
      <point x="1433.6" y="581.632"/>
      <point x="1529.86" y="581.632" type="qcurve" smooth="yes"/>
      <point x="1622.02" y="581.632"/>
      <point x="1622.02" y="489.472" type="qcurve" smooth="yes"/>
      <point x="1622.02" y="397.312"/>
      <point x="1529.86" y="397.312" type="qcurve" smooth="yes"/>
      <point x="1482.75" y="397.312"/>
      <point x="1419.26" y="331.776"/>
      <point x="1419.26" y="286.72" type="qcurve" smooth="yes"/>
      <point x="1419.26" y="241.664"/>
      <point x="1482.75" y="176.128"/>
      <point x="1529.86" y="176.128" type="qcurve" smooth="yes"/>
      <point x="1570.82" y="176.128"/>
      <point x="1646.59" y="243.712"/>
      <point x="1677.31" y="243.712" type="qcurve" smooth="yes"/>
      <point x="1714.18" y="243.712"/>
      <point x="1773.57" y="188.416"/>
      <point x="1773.57" y="149.504" type="qcurve"/>
    </contour>
    <contour>
      <point x="1026.05" y="409.6" type="line"/>
      <point x="1026.05" y="509.952"/>
      <point x="980.992" y="581.632" type="qcurve"/>
      <point x="858.112" y="565.248"/>
      <point x="749.568" y="499.712" type="qcurve" smooth="yes"/>
      <point x="618.496" y="417.792"/>
      <point x="618.496" y="311.296" type="qcurve" smooth="yes"/>
      <point x="618.496" y="219.136"/>
      <point x="661.504" y="159.744" type="qcurve" smooth="yes"/>
      <point x="710.656" y="92.16"/>
      <point x="800.768" y="92.16" type="qcurve" smooth="yes"/>
      <point x="907.264" y="92.16"/>
      <point x="970.752" y="202.752" type="qcurve" smooth="yes"/>
      <point x="1026.05" y="294.912"/>
      <point x="1026.05" y="409.6" type="qcurve"/>
    </contour>
  </outline>
</glyph>
<glyph name="uniE005" format="2">
  <advance width="1677"/>
  <unicode hex="E005"/>
  <outline>
    <contour>
      <point x="1677.31" y="1230.85" type="line"/>
      <point x="1677.31" y="1200.13"/>
      <point x="1650.69" y="1169.41" type="qcurve" smooth="yes"/>
      <point x="1568.77" y="1073.15"/>
      <point x="1433.6" y="1073.15" type="qcurve" smooth="yes"/>
      <point x="1294.34" y="1073.15"/>
      <point x="1204.22" y="1181.7" type="qcurve"/>
      <point x="1210.37" y="1155.07"/>
      <point x="1210.37" y="1128.45" type="qcurve" smooth="yes"/>
      <point x="1210.37" y="931.84"/>
      <point x="1005.57" y="815.104" type="qcurve"/>
      <point x="1210.37" y="684.032"/>
      <point x="1210.37" y="409.6" type="qcurve" smooth="yes"/>
      <point x="1210.37" y="215.04"/>
      <point x="1103.87" y="69.632" type="qcurve" smooth="yes"/>
      <point x="987.136" y="-92.16"/>
      <point x="800.768" y="-92.16" type="qcurve" smooth="yes"/>
      <point x="632.832" y="-92.16"/>
      <point x="530.432" y="28.672" type="qcurve" smooth="yes"/>
      <point x="434.176" y="141.312"/>
      <point x="434.176" y="311.296" type="qcurve" smooth="yes"/>
      <point x="434.176" y="448.512"/>
      <point x="538.624" y="563.2" type="qcurve" smooth="yes"/>
      <point x="628.736" y="659.456"/>
      <point x="770.048" y="716.8" type="qcurve"/>
      <point x="718.848" y="727.04"/>
      <point x="661.504" y="727.04" type="qcurve" smooth="yes"/>
      <point x="620.544" y="727.04"/>
      <point x="567.296" y="778.24"/>
      <point x="567.296" y="819.2" type="qcurve" smooth="yes"/>
      <point x="567.296" y="860.16"/>
      <point x="620.544" y="911.36"/>
      <point x="661.504" y="911.36" type="qcurve" smooth="yes"/>
      <point x="901.12" y="911.36"/>
      <point x="995.328" y="1048.58" type="qcurve"/>
      <point x="1026.05" y="1089.54"/>
      <point x="1026.05" y="1128.45" type="qcurve" smooth="yes"/>
      <point x="1026.05" y="1165.31"/>
      <point x="995.328" y="1206.27" type="qcurve"/>
      <point x="901.12" y="1343.49"/>
      <point x="661.504" y="1343.49" type="qcurve" smooth="yes"/>
      <point x="491.52" y="1343.49"/>
      <point x="354.304" y="1257.47" type="qcurve" smooth="yes"/>
      <point x="321.536" y="1236.99"/>
      <point x="296.96" y="1236.99" type="qcurve" smooth="yes"/>
      <point x="260.096" y="1236.99"/>
      <point x="204.8" y="1296.38"/>
      <point x="204.8" y="1333.25" type="qcurve" smooth="yes"/>
      <point x="204.8" y="1370.11"/>
      <point x="241.664" y="1404.93" type="qcurve"/>
      <point x="307.2" y="1462.27"/>
      <point x="440.32" y="1497.09" type="qcurve" smooth="yes"/>
      <point x="557.056" y="1527.81"/>
      <point x="661.504" y="1527.81" type="qcurve" smooth="yes"/>
      <point x="796.672" y="1527.81"/>
      <point x="925.696" y="1478.66" type="qcurve" smooth="yes"/>
      <point x="1067.01" y="1423.36"/>
      <point x="1140.74" y="1325.06" type="qcurve"/>
      <point x="1138.69" y="1347.58"/>
      <point x="1138.69" y="1368.06" type="qcurve" smooth="yes"/>
      <point x="1138.69" y="1488.9"/>
      <point x="1310.72" y="1662.98"/>
      <point x="1433.6" y="1662.98" type="qcurve" smooth="yes"/>
      <point x="1525.76" y="1662.98"/>
      <point x="1525.76" y="1570.82" type="qcurve" smooth="yes"/>
      <point x="1525.76" y="1478.66"/>
      <point x="1433.6" y="1478.66" type="qcurve" smooth="yes"/>
      <point x="1388.54" y="1478.66"/>
      <point x="1323.01" y="1413.12"/>
      <point x="1323.01" y="1368.06" type="qcurve" smooth="yes"/>
      <point x="1323.01" y="1323.01"/>
      <point x="1388.54" y="1257.47"/>
      <point x="1433.6" y="1257.47" type="qcurve" smooth="yes"/>
      <point x="1474.56" y="1257.47"/>
      <point x="1550.34" y="1325.06"/>
      <point x="1581.06" y="1325.06" type="qcurve" smooth="yes"/>
      <point x="1619.97" y="1325.06"/>
      <point x="1677.31" y="1269.76"/>
      <point x="1677.31" y="1230.85" type="qcurve"/>
    </contour>
    <contour>
      <point x="1026.05" y="409.6" type="line"/>
      <point x="1026.05" y="509.952"/>
      <point x="980.992" y="581.632" type="qcurve"/>
      <point x="860.16" y="567.296"/>
      <point x="751.616" y="499.712" type="qcurve" smooth="yes"/>
      <point x="618.496" y="417.792"/>
      <point x="618.496" y="311.296" type="qcurve" smooth="yes"/>
      <point x="618.496" y="219.136"/>
      <point x="661.504" y="159.744" type="qcurve" smooth="yes"/>
      <point x="710.656" y="92.16"/>
      <point x="800.768" y="92.16" type="qcurve" smooth="yes"/>
      <point x="907.264" y="92.16"/>
      <point x="970.752" y="202.752" type="qcurve" smooth="yes"/>
      <point x="1026.05" y="294.912"/>
      <point x="1026.05" y="409.6" type="qcurve"/>
    </contour>
  </outline>
</glyph>
<glyph name="uniE008" format="2">
  <advance width="1481"/>
  <unicode hex="E008"/>
  <outline>
    <contour>
      <point x="1480.7" y="409.6" type="line"/>
      <point x="1480.7" y="215.04"/>
      <point x="1374.21" y="69.632" type="qcurve" smooth="yes"/>
      <point x="1257.47" y="-92.16"/>
      <point x="1071.1" y="-92.16" type="qcurve" smooth="yes"/>
      <point x="940.032" y="-92.16"/>
      <point x="747.52" y="65.536"/>
      <point x="716.8" y="196.608" type="qcurve"/>
      <point x="681.984" y="116.736"/>
      <point x="534.528" y="22.528"/>
      <point x="448.512" y="22.528" type="qcurve" smooth="yes"/>
      <point x="309.248" y="22.528"/>
      <point x="229.376" y="118.784" type="qcurve" smooth="yes"/>
      <point x="204.8" y="149.504"/>
      <point x="204.8" y="180.224" type="qcurve" smooth="yes"/>
      <point x="204.8" y="217.088"/>
      <point x="262.144" y="274.432"/>
      <point x="299.008" y="274.432" type="qcurve" smooth="yes"/>
      <point x="331.776" y="274.432"/>
      <point x="407.552" y="206.848"/>
      <point x="448.512" y="206.848" type="qcurve" smooth="yes"/>
      <point x="493.568" y="206.848"/>
      <point x="559.104" y="270.336"/>
      <point x="559.104" y="317.44" type="qcurve" smooth="yes"/>
      <point x="559.104" y="362.496"/>
      <point x="493.568" y="428.032"/>
      <point x="448.512" y="428.032" type="qcurve" smooth="yes"/>
      <point x="356.352" y="428.032"/>
      <point x="356.352" y="520.192" type="qcurve" smooth="yes"/>
      <point x="356.352" y="612.352"/>
      <point x="448.512" y="612.352" type="qcurve" smooth="yes"/>
      <point x="540.672" y="612.352"/>
      <point x="690.176" y="507.904"/>
      <point x="722.944" y="423.936" type="qcurve"/>
      <point x="790.528" y="614.4"/>
      <point x="1040.38" y="716.8" type="qcurve"/>
      <point x="989.184" y="727.04"/>
      <point x="933.888" y="727.04" type="qcurve" smooth="yes"/>
      <point x="837.632" y="727.04"/>
      <point x="837.632" y="819.2" type="qcurve" smooth="yes"/>
      <point x="837.632" y="911.36"/>
      <point x="933.888" y="911.36" type="qcurve" smooth="yes"/>
      <point x="1169.41" y="911.36"/>
      <point x="1267.71" y="1046.53" type="qcurve" smooth="yes"/>
      <point x="1296.38" y="1087.49"/>
      <point x="1296.38" y="1128.45" type="qcurve" smooth="yes"/>
      <point x="1296.38" y="1167.36"/>
      <point x="1267.71" y="1208.32" type="qcurve" smooth="yes"/>
      <point x="1169.41" y="1343.49"/>
      <point x="933.888" y="1343.49" type="qcurve" smooth="yes"/>
      <point x="755.712" y="1343.49"/>
      <point x="624.64" y="1257.47" type="qcurve" smooth="yes"/>
      <point x="593.92" y="1236.99"/>
      <point x="569.344" y="1236.99" type="qcurve" smooth="yes"/>
      <point x="530.432" y="1236.99"/>
      <point x="475.136" y="1296.38"/>
      <point x="475.136" y="1333.25" type="qcurve" smooth="yes"/>
      <point x="475.136" y="1372.16"/>
      <point x="514.048" y="1404.93" type="qcurve" smooth="yes"/>
      <point x="581.632" y="1464.32"/>
      <point x="712.704" y="1497.09" type="qcurve" smooth="yes"/>
      <point x="827.392" y="1527.81"/>
      <point x="933.888" y="1527.81" type="qcurve" smooth="yes"/>
      <point x="1134.59" y="1527.81"/>
      <point x="1294.34" y="1429.5" type="qcurve" smooth="yes"/>
      <point x="1480.7" y="1314.82"/>
      <point x="1480.7" y="1128.45" type="qcurve" smooth="yes"/>
      <point x="1480.7" y="931.84"/>
      <point x="1277.95" y="815.104" type="qcurve"/>
      <point x="1480.7" y="684.032"/>
      <point x="1480.7" y="409.6" type="qcurve"/>
    </contour>
    <contour>
      <point x="1296.38" y="409.6" type="line"/>
      <point x="1296.38" y="509.952"/>
      <point x="1251.33" y="581.632" type="qcurve"/>
      <point x="1128.45" y="565.248"/>
      <point x="1021.95" y="499.712" type="qcurve" smooth="yes"/>
      <point x="888.832" y="417.792"/>
      <point x="888.832" y="311.296" type="qcurve" smooth="yes"/>
      <point x="888.832" y="219.136"/>
      <point x="931.84" y="159.744" type="qcurve" smooth="yes"/>
      <point x="980.992" y="92.16"/>
      <point x="1071.1" y="92.16" type="qcurve" smooth="yes"/>
      <point x="1177.6" y="92.16"/>
      <point x="1241.09" y="202.752" type="qcurve" smooth="yes"/>
      <point x="1296.38" y="294.912"/>
      <point x="1296.38" y="409.6" type="qcurve"/>
    </contour>
  </outline>
</glyph>
<glyph name="uniE009" format="2">
  <advance width="1669"/>
  <unicode hex="E009"/>
  <outline>
    <contour>
      <point x="1669.12" y="83.968" type="line"/>
      <point x="1669.12" y="-18.432"/>
      <point x="1507.33" y="-153.6"/>
      <point x="1400.83" y="-153.6" type="qcurve" smooth="yes"/>
      <point x="1318.91" y="-153.6"/>
      <point x="1259.52" y="-124.928" type="qcurve" smooth="yes"/>
      <point x="1181.7" y="-86.016"/>
      <point x="1181.7" y="-12.288" type="qcurve" smooth="yes"/>
      <point x="1181.7" y="22.528"/>
      <point x="1224.7" y="71.68"/>
      <point x="1259.52" y="71.68" type="qcurve" smooth="yes"/>
      <point x="1282.05" y="71.68"/>
      <point x="1370.11" y="30.72"/>
      <point x="1398.78" y="30.72" type="qcurve" smooth="yes"/>
      <point x="1427.46" y="30.72"/>
      <point x="1484.8" y="59.392"/>
      <point x="1484.8" y="83.968" type="qcurve" smooth="yes"/>
      <point x="1484.8" y="100.352"/>
      <point x="1417.22" y="139.264"/>
      <point x="1400.83" y="139.264" type="qcurve" smooth="yes"/>
      <point x="1273.86" y="139.264"/>
      <point x="1185.79" y="241.664" type="qcurve"/>
      <point x="1144.83" y="96.256"/>
      <point x="1048.58" y="6.144" type="qcurve" smooth="yes"/>
      <point x="942.08" y="-92.16"/>
      <point x="800.768" y="-92.16" type="qcurve" smooth="yes"/>
      <point x="632.832" y="-92.16"/>
      <point x="530.432" y="28.672" type="qcurve" smooth="yes"/>
      <point x="434.176" y="141.312"/>
      <point x="434.176" y="311.296" type="qcurve" smooth="yes"/>
      <point x="434.176" y="448.512"/>
      <point x="538.624" y="563.2" type="qcurve" smooth="yes"/>
      <point x="628.736" y="659.456"/>
      <point x="770.048" y="716.8" type="qcurve"/>
      <point x="718.848" y="727.04"/>
      <point x="661.504" y="727.04" type="qcurve" smooth="yes"/>
      <point x="620.544" y="727.04"/>
      <point x="567.296" y="778.24"/>
      <point x="567.296" y="819.2" type="qcurve" smooth="yes"/>
      <point x="567.296" y="860.16"/>
      <point x="620.544" y="911.36"/>
      <point x="661.504" y="911.36" type="qcurve" smooth="yes"/>
      <point x="901.12" y="911.36"/>
      <point x="995.328" y="1048.58" type="qcurve"/>
      <point x="1026.05" y="1089.54"/>
      <point x="1026.05" y="1128.45" type="qcurve" smooth="yes"/>
      <point x="1026.05" y="1165.31"/>
      <point x="995.328" y="1206.27" type="qcurve"/>
      <point x="901.12" y="1343.49"/>
      <point x="661.504" y="1343.49" type="qcurve" smooth="yes"/>
      <point x="491.52" y="1343.49"/>
      <point x="354.304" y="1257.47" type="qcurve" smooth="yes"/>
      <point x="321.536" y="1236.99"/>
      <point x="296.96" y="1236.99" type="qcurve" smooth="yes"/>
      <point x="260.096" y="1236.99"/>
      <point x="204.8" y="1296.38"/>
      <point x="204.8" y="1333.25" type="qcurve" smooth="yes"/>
      <point x="204.8" y="1370.11"/>
      <point x="241.664" y="1404.93" type="qcurve"/>
      <point x="307.2" y="1462.27"/>
      <point x="440.32" y="1497.09" type="qcurve" smooth="yes"/>
      <point x="557.056" y="1527.81"/>
      <point x="661.504" y="1527.81" type="qcurve" smooth="yes"/>
      <point x="862.208" y="1527.81"/>
      <point x="1021.95" y="1429.5" type="qcurve" smooth="yes"/>
      <point x="1210.37" y="1314.82"/>
      <point x="1210.37" y="1128.45" type="qcurve" smooth="yes"/>
      <point x="1210.37" y="931.84"/>
      <point x="1005.57" y="815.104" type="qcurve"/>
      <point x="1159.17" y="716.8"/>
      <point x="1198.08" y="534.528" type="qcurve"/>
      <point x="1277.95" y="614.4"/>
      <point x="1398.78" y="614.4" type="qcurve" smooth="yes"/>
      <point x="1599.49" y="614.4"/>
      <point x="1599.49" y="497.664" type="qcurve" smooth="yes"/>
      <point x="1599.49" y="460.8"/>
      <point x="1548.29" y="405.504"/>
      <point x="1511.42" y="405.504" type="qcurve" smooth="yes"/>
      <point x="1492.99" y="405.504"/>
      <point x="1421.31" y="430.08"/>
      <point x="1400.83" y="430.08" type="qcurve" smooth="yes"/>
      <point x="1374.21" y="430.08"/>
      <point x="1347.58" y="417.792" type="qcurve"/>
      <point x="1314.82" y="401.408"/>
      <point x="1314.82" y="376.832" type="qcurve" smooth="yes"/>
      <point x="1314.82" y="360.448"/>
      <point x="1382.4" y="323.584"/>
      <point x="1400.83" y="323.584" type="qcurve" smooth="yes"/>
      <point x="1497.09" y="323.584"/>
      <point x="1669.12" y="180.224"/>
      <point x="1669.12" y="83.968" type="qcurve"/>
    </contour>
    <contour>
      <point x="1026.05" y="409.6" type="line"/>
      <point x="1026.05" y="509.952"/>
      <point x="980.992" y="581.632" type="qcurve"/>
      <point x="860.16" y="567.296"/>
      <point x="751.616" y="499.712" type="qcurve" smooth="yes"/>
      <point x="618.496" y="417.792"/>
      <point x="618.496" y="311.296" type="qcurve" smooth="yes"/>
      <point x="618.496" y="219.136"/>
      <point x="661.504" y="159.744" type="qcurve" smooth="yes"/>
      <point x="710.656" y="92.16"/>
      <point x="800.768" y="92.16" type="qcurve" smooth="yes"/>
      <point x="907.264" y="92.16"/>
      <point x="970.752" y="202.752" type="qcurve" smooth="yes"/>
      <point x="1026.05" y="294.912"/>
      <point x="1026.05" y="409.6" type="qcurve"/>
    </contour>
  </outline>
</glyph>
<glyph name="uniE012" format="2">
  <advance width="1444"/>
  <unicode hex="E012"/>
  <outline>
    <contour>
      <point x="1443.84" y="1189.89" type="line"/>
      <point x="1443.84" y="1007.62"/>
      <point x="1306.62" y="915.456" type="qcurve"/>
      <point x="1368.06" y="860.16"/>
      <point x="1368.06" y="788.48" type="qcurve" smooth="yes"/>
      <point x="1368.06" y="706.56"/>
      <point x="1292.29" y="647.168" type="qcurve"/>
      <point x="1419.26" y="538.624"/>
      <point x="1419.26" y="327.68" type="qcurve" smooth="yes"/>
      <point x="1419.26" y="165.888"/>
      <point x="1345.54" y="47.104" type="qcurve" smooth="yes"/>
      <point x="1257.47" y="-92.16"/>
      <point x="1105.92" y="-92.16" type="qcurve" smooth="yes"/>
      <point x="976.896" y="-92.16"/>
      <point x="903.168" y="18.432" type="qcurve" smooth="yes"/>
      <point x="839.68" y="112.64"/>
      <point x="839.68" y="249.856" type="qcurve" smooth="yes"/>
      <point x="839.68" y="448.512"/>
      <point x="1019.9" y="563.2" type="qcurve"/>
      <point x="999.424" y="563.2"/>
      <point x="978.944" y="563.2" type="qcurve" smooth="yes"/>
      <point x="937.984" y="563.2"/>
      <point x="882.688" y="614.4"/>
      <point x="882.688" y="655.36" type="qcurve" smooth="yes"/>
      <point x="882.688" y="696.32"/>
      <point x="937.984" y="747.52"/>
      <point x="978.944" y="747.52" type="qcurve" smooth="yes"/>
      <point x="1103.87" y="747.52"/>
      <point x="1171.46" y="788.48" type="qcurve"/>
      <point x="1101.82" y="829.44"/>
      <point x="978.944" y="829.44" type="qcurve" smooth="yes"/>
      <point x="937.984" y="829.44"/>
      <point x="882.688" y="880.64"/>
      <point x="882.688" y="921.6" type="qcurve" smooth="yes"/>
      <point x="882.688" y="962.56"/>
      <point x="937.984" y="1013.76"/>
      <point x="978.944" y="1013.76" type="qcurve" smooth="yes"/>
      <point x="1075.2" y="1013.76"/>
      <point x="1157.12" y="1052.67" type="qcurve" smooth="yes"/>
      <point x="1259.52" y="1101.82"/>
      <point x="1259.52" y="1189.89" type="qcurve" smooth="yes"/>
      <point x="1259.52" y="1210.37"/>
      <point x="1230.85" y="1239.04" type="qcurve"/>
      <point x="1132.54" y="1343.49"/>
      <point x="897.024" y="1343.49" type="qcurve" smooth="yes"/>
      <point x="778.24" y="1343.49"/>
      <point x="606.208" y="1298.43" type="qcurve" smooth="yes"/>
      <point x="389.12" y="1241.09"/>
      <point x="389.12" y="1161.22" type="qcurve" smooth="yes"/>
      <point x="389.12" y="1116.16"/>
      <point x="454.656" y="1050.62"/>
      <point x="499.712" y="1050.62" type="qcurve" smooth="yes"/>
      <point x="538.624" y="1050.62"/>
      <point x="591.872" y="999.424"/>
      <point x="591.872" y="958.464" type="qcurve" smooth="yes"/>
      <point x="591.872" y="919.552"/>
      <point x="538.624" y="866.304"/>
      <point x="499.712" y="866.304" type="qcurve" smooth="yes"/>
      <point x="378.88" y="866.304"/>
      <point x="204.8" y="1040.38"/>
      <point x="204.8" y="1161.22" type="qcurve" smooth="yes"/>
      <point x="204.8" y="1296.38"/>
      <point x="360.448" y="1394.69" type="qcurve" smooth="yes"/>
      <point x="473.088" y="1466.37"/>
      <point x="636.928" y="1501.18" type="qcurve" smooth="yes"/>
      <point x="763.904" y="1527.81"/>
      <point x="897.024" y="1527.81" type="qcurve" smooth="yes"/>
      <point x="1087.49" y="1527.81"/>
      <point x="1245.18" y="1452.03" type="qcurve" smooth="yes"/>
      <point x="1443.84" y="1357.82"/>
      <point x="1443.84" y="1189.89" type="qcurve"/>
    </contour>
    <contour>
      <point x="1234.94" y="327.68" type="line"/>
      <point x="1234.94" y="395.264"/>
      <point x="1216.51" y="444.416" type="qcurve"/>
      <point x="1138.69" y="425.984"/>
      <point x="1085.44" y="376.832" type="qcurve" smooth="yes"/>
      <point x="1024" y="321.536"/>
      <point x="1024" y="249.856" type="qcurve" smooth="yes"/>
      <point x="1024" y="92.16"/>
      <point x="1105.92" y="92.16" type="qcurve" smooth="yes"/>
      <point x="1173.5" y="92.16"/>
      <point x="1208.32" y="182.272" type="qcurve" smooth="yes"/>
      <point x="1234.94" y="249.856"/>
      <point x="1234.94" y="327.68" type="qcurve"/>
    </contour>
  </outline>
</glyph>
<glyph name="uniE015" format="2">
  <advance width="1772"/>
  <unicode hex="E015"/>
  <outline>
    <contour>
      <point x="1771.52" y="145.408" type="line"/>
      <point x="1771.52" y="36.864"/>
      <point x="1681.41" y="-32.768" type="qcurve" smooth="yes"/>
      <point x="1601.54" y="-92.16"/>
      <point x="1503.23" y="-92.16" type="qcurve" smooth="yes"/>
      <point x="1392.64" y="-92.16"/>
      <point x="1333.25" y="-47.104" type="qcurve" smooth="yes"/>
      <point x="1284.1" y="-8.192"/>
      <point x="1284.1" y="49.152" type="qcurve" smooth="yes"/>
      <point x="1284.1" y="133.12"/>
      <point x="1361.92" y="133.12" type="qcurve" smooth="yes"/>
      <point x="1386.5" y="133.12"/>
      <point x="1415.17" y="118.784" type="qcurve"/>
      <point x="1462.27" y="92.16"/>
      <point x="1501.18" y="92.16" type="qcurve" smooth="yes"/>
      <point x="1542.14" y="92.16"/>
      <point x="1587.2" y="129.024"/>
      <point x="1587.2" y="145.408" type="qcurve" smooth="yes"/>
      <point x="1587.2" y="153.6"/>
      <point x="1533.95" y="200.704"/>
      <point x="1501.18" y="200.704" type="qcurve" smooth="yes"/>
      <point x="1417.22" y="200.704"/>
      <point x="1335.3" y="258.048" type="qcurve" smooth="yes"/>
      <point x="1245.18" y="323.584"/>
      <point x="1234.94" y="415.744" type="qcurve"/>
      <point x="1177.6" y="421.888" type="line"/>
      <point x="1185.79" y="376.832"/>
      <point x="1185.79" y="327.68" type="qcurve" smooth="yes"/>
      <point x="1185.79" y="165.888"/>
      <point x="1110.02" y="47.104" type="qcurve" smooth="yes"/>
      <point x="1024" y="-92.16"/>
      <point x="872.448" y="-92.16" type="qcurve" smooth="yes"/>
      <point x="741.376" y="-92.16"/>
      <point x="669.696" y="18.432" type="qcurve" smooth="yes"/>
      <point x="606.208" y="112.64"/>
      <point x="606.208" y="249.856" type="qcurve" smooth="yes"/>
      <point x="606.208" y="448.512"/>
      <point x="784.384" y="563.2" type="qcurve"/>
      <point x="765.952" y="563.2"/>
      <point x="743.424" y="563.2" type="qcurve" smooth="yes"/>
      <point x="647.168" y="563.2"/>
      <point x="647.168" y="655.36" type="qcurve" smooth="yes"/>
      <point x="647.168" y="747.52"/>
      <point x="743.424" y="747.52" type="qcurve" smooth="yes"/>
      <point x="868.352" y="747.52"/>
      <point x="935.936" y="788.48" type="qcurve"/>
      <point x="868.352" y="829.44"/>
      <point x="743.424" y="829.44" type="qcurve" smooth="yes"/>
      <point x="647.168" y="829.44"/>
      <point x="647.168" y="921.6" type="qcurve" smooth="yes"/>
      <point x="647.168" y="1013.76"/>
      <point x="837.632" y="1013.76"/>
      <point x="919.552" y="1052.67" type="qcurve" smooth="yes"/>
      <point x="1024" y="1101.82"/>
      <point x="1024" y="1189.89" type="qcurve" smooth="yes"/>
      <point x="1024" y="1210.37"/>
      <point x="997.376" y="1239.04" type="qcurve"/>
      <point x="894.976" y="1343.49"/>
      <point x="661.504" y="1343.49" type="qcurve" smooth="yes"/>
      <point x="477.184" y="1343.49"/>
      <point x="346.112" y="1273.86" type="qcurve"/>
      <point x="317.44" y="1257.47"/>
      <point x="296.96" y="1257.47" type="qcurve" smooth="yes"/>
      <point x="258.048" y="1257.47"/>
      <point x="204.8" y="1316.86"/>
      <point x="204.8" y="1355.78" type="qcurve" smooth="yes"/>
      <point x="204.8" y="1441.79"/>
      <point x="397.312" y="1490.94" type="qcurve" smooth="yes"/>
      <point x="536.576" y="1527.81"/>
      <point x="661.504" y="1527.81" type="qcurve" smooth="yes"/>
      <point x="851.968" y="1527.81"/>
      <point x="1009.66" y="1452.03" type="qcurve" smooth="yes"/>
      <point x="1208.32" y="1357.82"/>
      <point x="1208.32" y="1189.89" type="qcurve" smooth="yes"/>
      <point x="1208.32" y="1007.62"/>
      <point x="1073.15" y="915.456" type="qcurve"/>
      <point x="1132.54" y="860.16"/>
      <point x="1132.54" y="788.48" type="qcurve" smooth="yes"/>
      <point x="1132.54" y="706.56"/>
      <point x="1056.77" y="647.168" type="qcurve"/>
      <point x="1075.2" y="632.832"/>
      <point x="1089.54" y="616.448" type="qcurve"/>
      <point x="1298.43" y="593.92" type="line"/>
      <point x="1380.35" y="675.84"/>
      <point x="1501.18" y="675.84" type="qcurve" smooth="yes"/>
      <point x="1603.58" y="675.84"/>
      <point x="1656.83" y="638.976" type="qcurve" smooth="yes"/>
      <point x="1701.89" y="608.256"/>
      <point x="1701.89" y="559.104" type="qcurve" smooth="yes"/>
      <point x="1701.89" y="522.24"/>
      <point x="1650.69" y="466.944"/>
      <point x="1613.82" y="466.944" type="qcurve" smooth="yes"/>
      <point x="1591.3" y="466.944"/>
      <point x="1542.14" y="491.52"/>
      <point x="1503.23" y="491.52" type="qcurve" smooth="yes"/>
      <point x="1460.22" y="491.52"/>
      <point x="1417.22" y="454.656"/>
      <point x="1417.22" y="438.272" type="qcurve" smooth="yes"/>
      <point x="1417.22" y="430.08"/>
      <point x="1470.46" y="385.024"/>
      <point x="1501.18" y="385.024" type="qcurve" smooth="yes"/>
      <point x="1593.34" y="385.024"/>
      <point x="1677.31" y="319.488" type="qcurve" smooth="yes"/>
      <point x="1771.52" y="247.808"/>
      <point x="1771.52" y="145.408" type="qcurve"/>
    </contour>
    <contour>
      <point x="1001.47" y="327.68" type="line"/>
      <point x="1001.47" y="395.264"/>
      <point x="980.992" y="444.416" type="qcurve"/>
      <point x="905.216" y="425.984"/>
      <point x="849.92" y="376.832" type="qcurve" smooth="yes"/>
      <point x="790.528" y="321.536"/>
      <point x="790.528" y="249.856" type="qcurve" smooth="yes"/>
      <point x="790.528" y="92.16"/>
      <point x="872.448" y="92.16" type="qcurve" smooth="yes"/>
      <point x="937.984" y="92.16"/>
      <point x="974.848" y="182.272" type="qcurve" smooth="yes"/>
      <point x="1001.47" y="249.856"/>
      <point x="1001.47" y="327.68" type="qcurve"/>
    </contour>
  </outline>
</glyph>
<glyph name="uniE017" format="2">
  <advance width="1649"/>
  <unicode hex="E017"/>
  <outline>
    <contour>
      <point x="1648.64" y="356.352" type="line"/>
      <point x="1648.64" y="133.12"/>
      <point x="1466.37" y="-63.488" type="qcurve" smooth="yes"/>
      <point x="1437.7" y="-94.208"/>
      <point x="1398.78" y="-94.208" type="qcurve" smooth="yes"/>
      <point x="1361.92" y="-94.208"/>
      <point x="1304.58" y="-36.864"/>
      <point x="1304.58" y="0" type="qcurve" smooth="yes"/>
      <point x="1304.58" y="30.72"/>
      <point x="1337.34" y="71.68" type="qcurve"/>
      <point x="1363.97" y="102.4"/>
      <point x="1390.59" y="133.12" type="qcurve"/>
      <point x="1239.04" y="141.312"/>
      <point x="1181.7" y="268.288" type="qcurve"/>
      <point x="1167.36" y="120.832"/>
      <point x="1093.63" y="22.528" type="qcurve" smooth="yes"/>
      <point x="1009.66" y="-92.16"/>
      <point x="872.448" y="-92.16" type="qcurve" smooth="yes"/>
      <point x="741.376" y="-92.16"/>
      <point x="669.696" y="18.432" type="qcurve" smooth="yes"/>
      <point x="606.208" y="112.64"/>
      <point x="606.208" y="249.856" type="qcurve" smooth="yes"/>
      <point x="606.208" y="448.512"/>
      <point x="784.384" y="563.2" type="qcurve"/>
      <point x="765.952" y="563.2"/>
      <point x="743.424" y="563.2" type="qcurve" smooth="yes"/>
      <point x="647.168" y="563.2"/>
      <point x="647.168" y="655.36" type="qcurve" smooth="yes"/>
      <point x="647.168" y="747.52"/>
      <point x="743.424" y="747.52" type="qcurve" smooth="yes"/>
      <point x="868.352" y="747.52"/>
      <point x="935.936" y="788.48" type="qcurve"/>
      <point x="868.352" y="829.44"/>
      <point x="743.424" y="829.44" type="qcurve" smooth="yes"/>
      <point x="647.168" y="829.44"/>
      <point x="647.168" y="921.6" type="qcurve" smooth="yes"/>
      <point x="647.168" y="1013.76"/>
      <point x="837.632" y="1013.76"/>
      <point x="919.552" y="1052.67" type="qcurve" smooth="yes"/>
      <point x="1024" y="1101.82"/>
      <point x="1024" y="1189.89" type="qcurve" smooth="yes"/>
      <point x="1024" y="1210.37"/>
      <point x="997.376" y="1239.04" type="qcurve"/>
      <point x="894.976" y="1343.49"/>
      <point x="661.504" y="1343.49" type="qcurve" smooth="yes"/>
      <point x="477.184" y="1343.49"/>
      <point x="346.112" y="1273.86" type="qcurve"/>
      <point x="317.44" y="1257.47"/>
      <point x="296.96" y="1257.47" type="qcurve" smooth="yes"/>
      <point x="258.048" y="1257.47"/>
      <point x="204.8" y="1316.86"/>
      <point x="204.8" y="1355.78" type="qcurve" smooth="yes"/>
      <point x="204.8" y="1441.79"/>
      <point x="397.312" y="1490.94" type="qcurve" smooth="yes"/>
      <point x="536.576" y="1527.81"/>
      <point x="661.504" y="1527.81" type="qcurve" smooth="yes"/>
      <point x="851.968" y="1527.81"/>
      <point x="1009.66" y="1452.03" type="qcurve" smooth="yes"/>
      <point x="1208.32" y="1357.82"/>
      <point x="1208.32" y="1189.89" type="qcurve" smooth="yes"/>
      <point x="1208.32" y="1007.62"/>
      <point x="1073.15" y="915.456" type="qcurve"/>
      <point x="1132.54" y="860.16"/>
      <point x="1132.54" y="788.48" type="qcurve" smooth="yes"/>
      <point x="1132.54" y="706.56"/>
      <point x="1056.77" y="647.168" type="qcurve"/>
      <point x="1150.98" y="567.296"/>
      <point x="1175.55" y="430.08" type="qcurve"/>
      <point x="1202.18" y="497.664"/>
      <point x="1331.2" y="581.632"/>
      <point x="1406.98" y="581.632" type="qcurve" smooth="yes"/>
      <point x="1503.23" y="581.632"/>
      <point x="1648.64" y="454.656"/>
      <point x="1648.64" y="356.352" type="qcurve"/>
    </contour>
    <contour>
      <point x="1464.32" y="356.352" type="line"/>
      <point x="1464.32" y="397.312"/>
      <point x="1406.98" y="397.312" type="qcurve" smooth="yes"/>
      <point x="1347.58" y="397.312"/>
      <point x="1347.58" y="356.352" type="qcurve" smooth="yes"/>
      <point x="1347.58" y="317.44"/>
      <point x="1406.98" y="317.44" type="qcurve" smooth="yes"/>
      <point x="1464.32" y="317.44"/>
      <point x="1464.32" y="356.352" type="qcurve"/>
    </contour>
    <contour>
      <point x="1001.47" y="327.68" type="line"/>
      <point x="1001.47" y="395.264"/>
      <point x="980.992" y="444.416" type="qcurve"/>
      <point x="905.216" y="425.984"/>
      <point x="849.92" y="376.832" type="qcurve" smooth="yes"/>
      <point x="790.528" y="321.536"/>
      <point x="790.528" y="249.856" type="qcurve" smooth="yes"/>
      <point x="790.528" y="92.16"/>
      <point x="872.448" y="92.16" type="qcurve" smooth="yes"/>
      <point x="937.984" y="92.16"/>
      <point x="974.848" y="182.272" type="qcurve" smooth="yes"/>
      <point x="1001.47" y="249.856"/>
      <point x="1001.47" y="327.68" type="qcurve"/>
    </contour>
  </outline>
</glyph>
<glyph name="uniE01D" format="2">
  <advance width="1702"/>
  <unicode hex="E01D"/>
  <outline>
    <contour>
      <point x="1701.89" y="976.896" type="line"/>
      <point x="1701.89" y="946.176"/>
      <point x="1677.31" y="915.456" type="qcurve" smooth="yes"/>
      <point x="1597.44" y="819.2"/>
      <point x="1458.18" y="819.2" type="qcurve" smooth="yes"/>
      <point x="1294.34" y="819.2"/>
      <point x="1208.32" y="956.416" type="qcurve"/>
      <point x="1208.32" y="819.2" type="line" smooth="yes"/>
      <point x="1208.32" y="653.312"/>
      <point x="1091.58" y="514.048" type="qcurve" smooth="yes"/>
      <point x="985.088" y="387.072"/>
      <point x="821.248" y="323.584" type="qcurve"/>
      <point x="808.96" y="319.488"/>
      <point x="604.16" y="256" type="qcurve"/>
      <point x="471.04" y="217.088"/>
      <point x="397.312" y="163.84" type="qcurve"/>
      <point x="428.032" y="129.024"/>
      <point x="542.72" y="108.544" type="qcurve" smooth="yes"/>
      <point x="632.832" y="92.16"/>
      <point x="706.56" y="92.16" type="qcurve" smooth="yes"/>
      <point x="907.264" y="92.16"/>
      <point x="1069.06" y="178.176" type="qcurve"/>
      <point x="1095.68" y="190.464"/>
      <point x="1118.21" y="190.464" type="qcurve" smooth="yes"/>
      <point x="1155.07" y="190.464"/>
      <point x="1210.37" y="133.12"/>
      <point x="1210.37" y="94.208" type="qcurve" smooth="yes"/>
      <point x="1210.37" y="49.152"/>
      <point x="1163.26" y="18.432" type="qcurve" smooth="yes"/>
      <point x="993.28" y="-92.16"/>
      <point x="706.56" y="-92.16" type="qcurve" smooth="yes"/>
      <point x="526.336" y="-92.16"/>
      <point x="393.216" y="-40.96" type="qcurve" smooth="yes"/>
      <point x="204.8" y="28.672"/>
      <point x="204.8" y="176.128" type="qcurve" smooth="yes"/>
      <point x="204.8" y="296.96"/>
      <point x="417.792" y="378.88" type="qcurve" smooth="yes"/>
      <point x="614.4" y="452.608"/>
      <point x="811.008" y="528.384" type="qcurve"/>
      <point x="1024" y="636.928"/>
      <point x="1024" y="819.2" type="qcurve" smooth="yes"/>
      <point x="1024" y="933.888" type="line"/>
      <point x="389.12" y="933.888" type="line"/>
      <point x="389.12" y="815.104"/>
      <point x="387.072" y="800.768" type="qcurve"/>
      <point x="370.688" y="727.04"/>
      <point x="296.96" y="727.04" type="qcurve" smooth="yes"/>
      <point x="204.8" y="727.04"/>
      <point x="204.8" y="819.2" type="qcurve" smooth="yes"/>
      <point x="204.8" y="1026.05" type="line" smooth="yes"/>
      <point x="204.8" y="1224.7"/>
      <point x="507.904" y="1527.81"/>
      <point x="708.608" y="1527.81" type="qcurve" smooth="yes"/>
      <point x="858.112" y="1527.81"/>
      <point x="1120.26" y="1341.44"/>
      <point x="1175.55" y="1198.08" type="qcurve"/>
      <point x="1204.22" y="1290.24"/>
      <point x="1359.87" y="1406.98"/>
      <point x="1458.18" y="1406.98" type="qcurve" smooth="yes"/>
      <point x="1550.34" y="1406.98"/>
      <point x="1550.34" y="1314.82" type="qcurve" smooth="yes"/>
      <point x="1550.34" y="1222.66"/>
      <point x="1458.18" y="1222.66" type="qcurve" smooth="yes"/>
      <point x="1413.12" y="1222.66"/>
      <point x="1347.58" y="1159.17"/>
      <point x="1347.58" y="1112.06" type="qcurve" smooth="yes"/>
      <point x="1347.58" y="1067.01"/>
      <point x="1413.12" y="1003.52"/>
      <point x="1458.18" y="1003.52" type="qcurve" smooth="yes"/>
      <point x="1499.14" y="1003.52"/>
      <point x="1574.91" y="1071.1"/>
      <point x="1607.68" y="1071.1" type="qcurve" smooth="yes"/>
      <point x="1644.54" y="1071.1"/>
      <point x="1701.89" y="1013.76"/>
      <point x="1701.89" y="976.896" type="qcurve"/>
    </contour>
    <contour>
      <point x="1009.66" y="1118.21" type="line"/>
      <point x="976.896" y="1212.42"/>
      <point x="804.864" y="1343.49"/>
      <point x="708.608" y="1343.49" type="qcurve" smooth="yes"/>
      <point x="608.256" y="1343.49"/>
      <point x="436.224" y="1212.42"/>
      <point x="405.504" y="1118.21" type="qcurve"/>
    </contour>
  </outline>
</glyph>
<glyph name="uniE01E" format="2">
  <advance width="1657"/>
  <unicode hex="E01E"/>
  <outline>
    <contour>
      <point x="1656.83" y="94.208" type="line"/>
      <point x="1656.83" y="36.864"/>
      <point x="1546.24" y="-16.384" type="qcurve" smooth="yes"/>
      <point x="1382.4" y="-92.16"/>
      <point x="1155.07" y="-92.16" type="qcurve" smooth="yes"/>
      <point x="974.848" y="-92.16"/>
      <point x="841.728" y="-40.96" type="qcurve" smooth="yes"/>
      <point x="653.312" y="28.672"/>
      <point x="653.312" y="176.128" type="qcurve" smooth="yes"/>
      <point x="653.312" y="296.96"/>
      <point x="866.304" y="378.88" type="qcurve" smooth="yes"/>
      <point x="1062.91" y="452.608"/>
      <point x="1259.52" y="528.384" type="qcurve"/>
      <point x="1472.51" y="636.928"/>
      <point x="1472.51" y="819.2" type="qcurve" smooth="yes"/>
      <point x="1472.51" y="933.888" type="line"/>
      <point x="837.632" y="933.888" type="line"/>
      <point x="837.632" y="815.104"/>
      <point x="833.536" y="800.768" type="qcurve"/>
      <point x="819.2" y="727.04"/>
      <point x="745.472" y="727.04" type="qcurve" smooth="yes"/>
      <point x="671.744" y="727.04"/>
      <point x="655.36" y="800.768" type="qcurve"/>
      <point x="653.312" y="815.104"/>
      <point x="653.312" y="933.888" type="qcurve"/>
      <point x="499.712" y="933.888" type="line" smooth="yes"/>
      <point x="454.656" y="933.888"/>
      <point x="389.12" y="868.352"/>
      <point x="389.12" y="823.296" type="qcurve" smooth="yes"/>
      <point x="389.12" y="776.192"/>
      <point x="454.656" y="712.704"/>
      <point x="499.712" y="712.704" type="qcurve" smooth="yes"/>
      <point x="591.872" y="712.704"/>
      <point x="591.872" y="620.544" type="qcurve" smooth="yes"/>
      <point x="591.872" y="528.384"/>
      <point x="499.712" y="528.384" type="qcurve" smooth="yes"/>
      <point x="378.88" y="528.384"/>
      <point x="204.8" y="700.416"/>
      <point x="204.8" y="823.296" type="qcurve" smooth="yes"/>
      <point x="204.8" y="944.128"/>
      <point x="378.88" y="1118.21"/>
      <point x="499.712" y="1118.21" type="qcurve" smooth="yes"/>
      <point x="661.504" y="1118.21" type="line"/>
      <point x="698.368" y="1290.24"/>
      <point x="980.992" y="1527.81"/>
      <point x="1155.07" y="1527.81" type="qcurve" smooth="yes"/>
      <point x="1355.78" y="1527.81"/>
      <point x="1656.83" y="1224.7"/>
      <point x="1656.83" y="1026.05" type="qcurve" smooth="yes"/>
      <point x="1656.83" y="819.2" type="line" smooth="yes"/>
      <point x="1656.83" y="653.312"/>
      <point x="1540.1" y="514.048" type="qcurve" smooth="yes"/>
      <point x="1433.6" y="387.072"/>
      <point x="1269.76" y="323.584" type="qcurve" smooth="yes"/>
      <point x="1253.38" y="317.44"/>
      <point x="1052.67" y="256" type="qcurve" smooth="yes"/>
      <point x="921.6" y="217.088"/>
      <point x="845.824" y="163.84" type="qcurve"/>
      <point x="880.64" y="129.024"/>
      <point x="991.232" y="108.544" type="qcurve" smooth="yes"/>
      <point x="1079.3" y="92.16"/>
      <point x="1155.07" y="92.16" type="qcurve" smooth="yes"/>
      <point x="1345.54" y="92.16"/>
      <point x="1517.57" y="178.176" type="qcurve"/>
      <point x="1546.24" y="190.464"/>
      <point x="1566.72" y="190.464" type="qcurve" smooth="yes"/>
      <point x="1603.58" y="190.464"/>
      <point x="1656.83" y="133.12"/>
      <point x="1656.83" y="94.208" type="qcurve"/>
    </contour>
    <contour>
      <point x="1456.13" y="1118.21" type="line"/>
      <point x="1423.36" y="1212.42"/>
      <point x="1255.42" y="1343.49"/>
      <point x="1157.12" y="1343.49" type="qcurve" smooth="yes"/>
      <point x="1056.77" y="1343.49"/>
      <point x="886.784" y="1212.42"/>
      <point x="854.016" y="1118.21" type="qcurve"/>
    </contour>
  </outline>
</glyph>
<glyph name="uniE023" format="2">
  <advance width="1581"/>
  <unicode hex="E023"/>
  <outline>
    <contour>
      <point x="1581.06" y="356.352" type="line"/>
      <point x="1581.06" y="157.696"/>
      <point x="1449.98" y="-4.096" type="qcurve" smooth="yes"/>
      <point x="1433.6" y="-24.576"/>
      <point x="1398.78" y="-63.488" type="qcurve"/>
      <point x="1366.02" y="-94.208"/>
      <point x="1331.2" y="-94.208" type="qcurve" smooth="yes"/>
      <point x="1294.34" y="-94.208"/>
      <point x="1236.99" y="-36.864"/>
      <point x="1236.99" y="0" type="qcurve" smooth="yes"/>
      <point x="1236.99" y="30.72"/>
      <point x="1269.76" y="71.68" type="qcurve"/>
      <point x="1296.38" y="102.4"/>
      <point x="1323.01" y="133.12" type="qcurve"/>
      <point x="1280" y="139.264" type="line"/>
      <point x="1177.6" y="38.912"/>
      <point x="851.968" y="-92.16"/>
      <point x="706.56" y="-92.16" type="qcurve" smooth="yes"/>
      <point x="526.336" y="-92.16"/>
      <point x="393.216" y="-40.96" type="qcurve" smooth="yes"/>
      <point x="204.8" y="28.672"/>
      <point x="204.8" y="176.128" type="qcurve" smooth="yes"/>
      <point x="204.8" y="296.96"/>
      <point x="417.792" y="378.88" type="qcurve" smooth="yes"/>
      <point x="614.4" y="452.608"/>
      <point x="811.008" y="528.384" type="qcurve"/>
      <point x="1024" y="636.928"/>
      <point x="1024" y="819.2" type="qcurve" smooth="yes"/>
      <point x="1024" y="933.888" type="line"/>
      <point x="389.12" y="933.888" type="line"/>
      <point x="389.12" y="815.104"/>
      <point x="387.072" y="800.768" type="qcurve"/>
      <point x="370.688" y="727.04"/>
      <point x="296.96" y="727.04" type="qcurve" smooth="yes"/>
      <point x="204.8" y="727.04"/>
      <point x="204.8" y="819.2" type="qcurve" smooth="yes"/>
      <point x="204.8" y="1026.05" type="line" smooth="yes"/>
      <point x="204.8" y="1224.7"/>
      <point x="507.904" y="1527.81"/>
      <point x="708.608" y="1527.81" type="qcurve" smooth="yes"/>
      <point x="907.264" y="1527.81"/>
      <point x="1208.32" y="1224.7"/>
      <point x="1208.32" y="1026.05" type="qcurve" smooth="yes"/>
      <point x="1208.32" y="819.2" type="line" smooth="yes"/>
      <point x="1208.32" y="653.312"/>
      <point x="1091.58" y="514.048" type="qcurve" smooth="yes"/>
      <point x="985.088" y="387.072"/>
      <point x="821.248" y="323.584" type="qcurve"/>
      <point x="808.96" y="319.488"/>
      <point x="604.16" y="256" type="qcurve" smooth="yes"/>
      <point x="473.088" y="217.088"/>
      <point x="397.312" y="163.84" type="qcurve"/>
      <point x="430.08" y="129.024"/>
      <point x="542.72" y="108.544" type="qcurve" smooth="yes"/>
      <point x="632.832" y="92.16"/>
      <point x="706.56" y="92.16" type="qcurve" smooth="yes"/>
      <point x="806.912" y="92.16"/>
      <point x="1048.58" y="182.272"/>
      <point x="1126.4" y="247.808" type="qcurve"/>
      <point x="1095.68" y="296.96"/>
      <point x="1095.68" y="356.352" type="qcurve" smooth="yes"/>
      <point x="1095.68" y="452.608"/>
      <point x="1241.09" y="581.632"/>
      <point x="1339.39" y="581.632" type="qcurve" smooth="yes"/>
      <point x="1435.65" y="581.632"/>
      <point x="1581.06" y="452.608"/>
      <point x="1581.06" y="356.352" type="qcurve"/>
    </contour>
    <contour>
      <point x="1009.66" y="1118.21" type="line"/>
      <point x="976.896" y="1212.42"/>
      <point x="804.864" y="1343.49"/>
      <point x="708.608" y="1343.49" type="qcurve" smooth="yes"/>
      <point x="608.256" y="1343.49"/>
      <point x="436.224" y="1212.42"/>
      <point x="405.504" y="1118.21" type="qcurve"/>
    </contour>
    <contour>
      <point x="1396.74" y="356.352" type="line"/>
      <point x="1396.74" y="397.312"/>
      <point x="1339.39" y="397.312" type="qcurve" smooth="yes"/>
      <point x="1280" y="397.312"/>
      <point x="1280" y="356.352" type="qcurve" smooth="yes"/>
      <point x="1280" y="317.44"/>
      <point x="1339.39" y="317.44" type="qcurve" smooth="yes"/>
      <point x="1396.74" y="317.44"/>
      <point x="1396.74" y="356.352" type="qcurve"/>
    </contour>
  </outline>
</glyph>
<glyph name="uniE02C" format="2">
  <advance width="1718"/>
  <unicode hex="E02C"/>
  <outline>
    <contour>
      <point x="1720.32" y="94.208" type="line"/>
      <point x="1720.32" y="49.152"/>
      <point x="1673.22" y="18.432" type="qcurve" smooth="yes"/>
      <point x="1507.33" y="-92.16"/>
      <point x="1216.51" y="-92.16" type="qcurve" smooth="yes"/>
      <point x="1064.96" y="-92.16"/>
      <point x="940.032" y="-53.248" type="qcurve" smooth="yes"/>
      <point x="768" y="-2.048"/>
      <point x="727.04" y="108.544" type="qcurve"/>
      <point x="698.368" y="18.432"/>
      <point x="542.72" y="-92.16"/>
      <point x="448.512" y="-92.16" type="qcurve" smooth="yes"/>
      <point x="311.296" y="-92.16"/>
      <point x="229.376" y="4.096" type="qcurve"/>
      <point x="204.8" y="34.816"/>
      <point x="204.8" y="65.536" type="qcurve" smooth="yes"/>
      <point x="204.8" y="104.448"/>
      <point x="262.144" y="159.744"/>
      <point x="299.008" y="159.744" type="qcurve" smooth="yes"/>
      <point x="331.776" y="159.744"/>
      <point x="407.552" y="92.16"/>
      <point x="448.512" y="92.16" type="qcurve" smooth="yes"/>
      <point x="493.568" y="92.16"/>
      <point x="559.104" y="157.696"/>
      <point x="559.104" y="202.752" type="qcurve" smooth="yes"/>
      <point x="559.104" y="247.808"/>
      <point x="493.568" y="313.344"/>
      <point x="448.512" y="313.344" type="qcurve" smooth="yes"/>
      <point x="356.352" y="313.344"/>
      <point x="356.352" y="405.504" type="qcurve" smooth="yes"/>
      <point x="356.352" y="497.664"/>
      <point x="448.512" y="497.664" type="qcurve" smooth="yes"/>
      <point x="557.056" y="497.664"/>
      <point x="720.896" y="358.4"/>
      <point x="739.328" y="251.904" type="qcurve"/>
      <point x="794.624" y="333.824"/>
      <point x="980.992" y="403.456" type="qcurve"/>
      <point x="1124.35" y="450.56"/>
      <point x="1267.71" y="495.616" type="qcurve"/>
      <point x="1331.2" y="518.144"/>
      <point x="1404.93" y="534.528" type="qcurve"/>
      <point x="1359.87" y="577.536"/>
      <point x="1271.81" y="663.552" type="qcurve"/>
      <point x="1230.85" y="706.56"/>
      <point x="1230.85" y="745.472" type="qcurve" smooth="yes"/>
      <point x="1230.85" y="823.296"/>
      <point x="1335.3" y="823.296" type="qcurve" smooth="yes"/>
      <point x="1533.95" y="823.296" type="line"/>
      <point x="1533.95" y="933.888" type="line"/>
      <point x="899.072" y="933.888" type="line"/>
      <point x="901.12" y="921.6"/>
      <point x="901.12" y="894.976" type="qcurve" smooth="yes"/>
      <point x="901.12" y="872.448"/>
      <point x="901.12" y="858.112" type="qcurve" smooth="yes"/>
      <point x="901.12" y="727.04"/>
      <point x="806.912" y="727.04" type="qcurve" smooth="yes"/>
      <point x="714.752" y="727.04"/>
      <point x="714.752" y="819.2" type="qcurve" smooth="yes"/>
      <point x="714.752" y="1026.05" type="line" smooth="yes"/>
      <point x="714.752" y="1224.7"/>
      <point x="1017.86" y="1527.81"/>
      <point x="1218.56" y="1527.81" type="qcurve" smooth="yes"/>
      <point x="1417.22" y="1527.81"/>
      <point x="1718.27" y="1224.7"/>
      <point x="1718.27" y="1026.05" type="qcurve" smooth="yes"/>
      <point x="1718.27" y="731.136" type="line" smooth="yes"/>
      <point x="1718.27" y="667.648"/>
      <point x="1665.02" y="649.216" type="qcurve" smooth="yes"/>
      <point x="1636.35" y="638.976"/>
      <point x="1556.48" y="638.976" type="qcurve"/>
      <point x="1626.11" y="559.104"/>
      <point x="1626.11" y="495.616" type="qcurve" smooth="yes"/>
      <point x="1626.11" y="397.312"/>
      <point x="1458.18" y="356.352" type="qcurve" smooth="yes"/>
      <point x="1038.34" y="256"/>
      <point x="907.264" y="163.84" type="qcurve"/>
      <point x="987.136" y="92.16"/>
      <point x="1216.51" y="92.16" type="qcurve" smooth="yes"/>
      <point x="1406.98" y="92.16"/>
      <point x="1581.06" y="178.176" type="qcurve"/>
      <point x="1609.73" y="190.464"/>
      <point x="1630.21" y="190.464" type="qcurve" smooth="yes"/>
      <point x="1667.07" y="190.464"/>
      <point x="1720.32" y="133.12"/>
      <point x="1720.32" y="94.208" type="qcurve"/>
    </contour>
    <contour>
      <point x="1519.62" y="1118.21" type="line"/>
      <point x="1486.85" y="1212.42"/>
      <point x="1316.86" y="1343.49"/>
      <point x="1218.56" y="1343.49" type="qcurve" smooth="yes"/>
      <point x="1120.26" y="1343.49"/>
      <point x="948.224" y="1212.42"/>
      <point x="915.456" y="1118.21" type="qcurve"/>
    </contour>
  </outline>
</glyph>
<glyph name="uniE02D" format="2">
  <advance width="1706"/>
  <unicode hex="E02D"/>
  <outline>
    <contour>
      <point x="1705.98" y="81.92" type="line"/>
      <point x="1705.98" y="-22.528"/>
      <point x="1542.14" y="-155.648"/>
      <point x="1435.65" y="-155.648" type="qcurve" smooth="yes"/>
      <point x="1355.78" y="-155.648"/>
      <point x="1294.34" y="-126.976" type="qcurve"/>
      <point x="1218.56" y="-88.064"/>
      <point x="1218.56" y="-14.336" type="qcurve" smooth="yes"/>
      <point x="1218.56" y="69.632"/>
      <point x="1294.34" y="69.632" type="qcurve" smooth="yes"/>
      <point x="1318.91" y="69.632"/>
      <point x="1404.93" y="28.672"/>
      <point x="1435.65" y="28.672" type="qcurve" smooth="yes"/>
      <point x="1462.27" y="28.672"/>
      <point x="1521.66" y="57.344"/>
      <point x="1521.66" y="81.92" type="qcurve" smooth="yes"/>
      <point x="1521.66" y="98.304"/>
      <point x="1454.08" y="135.168"/>
      <point x="1435.65" y="135.168" type="qcurve" smooth="yes"/>
      <point x="1378.3" y="135.168"/>
      <point x="1314.82" y="167.936" type="qcurve"/>
      <point x="1220.61" y="43.008"/>
      <point x="1040.38" y="-26.624" type="qcurve" smooth="yes"/>
      <point x="876.544" y="-92.16"/>
      <point x="706.56" y="-92.16" type="qcurve" smooth="yes"/>
      <point x="526.336" y="-92.16"/>
      <point x="393.216" y="-40.96" type="qcurve" smooth="yes"/>
      <point x="204.8" y="28.672"/>
      <point x="204.8" y="176.128" type="qcurve" smooth="yes"/>
      <point x="204.8" y="294.912"/>
      <point x="428.032" y="387.072" type="qcurve"/>
      <point x="591.872" y="442.368"/>
      <point x="755.712" y="495.616" type="qcurve" smooth="yes"/>
      <point x="815.104" y="516.096"/>
      <point x="894.976" y="534.528" type="qcurve"/>
      <point x="886.784" y="542.72"/>
      <point x="761.856" y="663.552" type="qcurve" smooth="yes"/>
      <point x="718.848" y="704.512"/>
      <point x="718.848" y="745.472" type="qcurve" smooth="yes"/>
      <point x="718.848" y="823.296"/>
      <point x="823.296" y="823.296" type="qcurve" smooth="yes"/>
      <point x="1024" y="823.296" type="line"/>
      <point x="1024" y="933.888" type="line"/>
      <point x="389.12" y="933.888" type="line"/>
      <point x="389.12" y="815.104"/>
      <point x="387.072" y="800.768" type="qcurve"/>
      <point x="370.688" y="727.04"/>
      <point x="296.96" y="727.04" type="qcurve" smooth="yes"/>
      <point x="204.8" y="727.04"/>
      <point x="204.8" y="819.2" type="qcurve" smooth="yes"/>
      <point x="204.8" y="1026.05" type="line" smooth="yes"/>
      <point x="204.8" y="1224.7"/>
      <point x="507.904" y="1527.81"/>
      <point x="708.608" y="1527.81" type="qcurve" smooth="yes"/>
      <point x="907.264" y="1527.81"/>
      <point x="1208.32" y="1224.7"/>
      <point x="1208.32" y="1026.05" type="qcurve" smooth="yes"/>
      <point x="1208.32" y="731.136" type="line" smooth="yes"/>
      <point x="1208.32" y="692.224"/>
      <point x="1157.12" y="638.976"/>
      <point x="1046.53" y="638.976" type="qcurve"/>
      <point x="1114.11" y="559.104"/>
      <point x="1114.11" y="495.616" type="qcurve" smooth="yes"/>
      <point x="1114.11" y="395.264"/>
      <point x="946.176" y="356.352" type="qcurve" smooth="yes"/>
      <point x="532.48" y="260.096"/>
      <point x="397.312" y="163.84" type="qcurve"/>
      <point x="428.032" y="129.024"/>
      <point x="542.72" y="108.544" type="qcurve" smooth="yes"/>
      <point x="632.832" y="92.16"/>
      <point x="706.56" y="92.16" type="qcurve" smooth="yes"/>
      <point x="835.584" y="92.16"/>
      <point x="970.752" y="143.36" type="qcurve" smooth="yes"/>
      <point x="1124.35" y="202.752"/>
      <point x="1183.74" y="299.008" type="qcurve"/>
      <point x="1167.36" y="333.824"/>
      <point x="1167.36" y="374.784" type="qcurve" smooth="yes"/>
      <point x="1167.36" y="477.184"/>
      <point x="1251.33" y="546.816" type="qcurve" smooth="yes"/>
      <point x="1329.15" y="612.352"/>
      <point x="1435.65" y="612.352" type="qcurve" smooth="yes"/>
      <point x="1634.3" y="612.352"/>
      <point x="1634.3" y="495.616" type="qcurve" smooth="yes"/>
      <point x="1634.3" y="458.752"/>
      <point x="1583.1" y="403.456"/>
      <point x="1548.29" y="403.456" type="qcurve" smooth="yes"/>
      <point x="1529.86" y="403.456"/>
      <point x="1464.32" y="428.032"/>
      <point x="1435.65" y="428.032" type="qcurve" smooth="yes"/>
      <point x="1409.02" y="428.032"/>
      <point x="1384.45" y="415.744" type="qcurve" smooth="yes"/>
      <point x="1351.68" y="399.36"/>
      <point x="1351.68" y="374.784" type="qcurve" smooth="yes"/>
      <point x="1351.68" y="358.4"/>
      <point x="1419.26" y="319.488"/>
      <point x="1435.65" y="319.488" type="qcurve" smooth="yes"/>
      <point x="1533.95" y="319.488"/>
      <point x="1705.98" y="178.176"/>
      <point x="1705.98" y="81.92" type="qcurve"/>
    </contour>
    <contour>
      <point x="1009.66" y="1118.21" type="line"/>
      <point x="976.896" y="1212.42"/>
      <point x="804.864" y="1343.49"/>
      <point x="708.608" y="1343.49" type="qcurve" smooth="yes"/>
      <point x="608.256" y="1343.49"/>
      <point x="436.224" y="1212.42"/>
      <point x="405.504" y="1118.21" type="qcurve"/>
    </contour>
  </outline>
</glyph>
<glyph name="uniE034" format="2">
  <advance width="1710"/>
  <unicode hex="E034"/>
  <outline>
    <contour>
      <point x="1712.13" y="290.816" type="line"/>
      <point x="1712.13" y="260.096"/>
      <point x="1685.5" y="229.376" type="qcurve"/>
      <point x="1607.68" y="131.072"/>
      <point x="1468.42" y="131.072" type="qcurve" smooth="yes"/>
      <point x="1290.24" y="131.072"/>
      <point x="1206.27" y="288.768" type="qcurve"/>
      <point x="1185.79" y="118.784"/>
      <point x="1005.57" y="8.192" type="qcurve" smooth="yes"/>
      <point x="847.872" y="-90.112"/>
      <point x="661.504" y="-90.112" type="qcurve" smooth="yes"/>
      <point x="555.008" y="-90.112"/>
      <point x="442.368" y="-59.392" type="qcurve" smooth="yes"/>
      <point x="311.296" y="-24.576"/>
      <point x="241.664" y="34.816" type="qcurve" smooth="yes"/>
      <point x="204.8" y="65.536"/>
      <point x="204.8" y="104.448" type="qcurve" smooth="yes"/>
      <point x="204.8" y="143.36"/>
      <point x="260.096" y="200.704"/>
      <point x="296.96" y="200.704" type="qcurve" smooth="yes"/>
      <point x="323.584" y="200.704"/>
      <point x="354.304" y="180.224" type="qcurve" smooth="yes"/>
      <point x="485.376" y="94.208"/>
      <point x="661.504" y="94.208" type="qcurve" smooth="yes"/>
      <point x="780.288" y="94.208"/>
      <point x="892.928" y="155.648" type="qcurve" smooth="yes"/>
      <point x="1026.05" y="227.328"/>
      <point x="1026.05" y="335.872" type="qcurve" smooth="yes"/>
      <point x="1026.05" y="452.608"/>
      <point x="901.12" y="548.864" type="qcurve" smooth="yes"/>
      <point x="784.384" y="638.976"/>
      <point x="661.504" y="638.976" type="qcurve" smooth="yes"/>
      <point x="569.344" y="638.976"/>
      <point x="569.344" y="731.136" type="qcurve" smooth="yes"/>
      <point x="569.344" y="823.296"/>
      <point x="661.504" y="823.296" type="qcurve" smooth="yes"/>
      <point x="782.336" y="823.296"/>
      <point x="897.024" y="903.168" type="qcurve"/>
      <point x="1026.05" y="989.184"/>
      <point x="1026.05" y="1103.87" type="qcurve" smooth="yes"/>
      <point x="1026.05" y="1212.42"/>
      <point x="892.928" y="1284.1" type="qcurve" smooth="yes"/>
      <point x="780.288" y="1345.54"/>
      <point x="661.504" y="1345.54" type="qcurve" smooth="yes"/>
      <point x="485.376" y="1345.54"/>
      <point x="354.304" y="1259.52" type="qcurve"/>
      <point x="323.584" y="1236.99"/>
      <point x="296.96" y="1236.99" type="qcurve" smooth="yes"/>
      <point x="260.096" y="1236.99"/>
      <point x="204.8" y="1296.38"/>
      <point x="204.8" y="1333.25" type="qcurve" smooth="yes"/>
      <point x="204.8" y="1372.16"/>
      <point x="241.664" y="1404.93" type="qcurve" smooth="yes"/>
      <point x="311.296" y="1464.32"/>
      <point x="442.368" y="1499.14" type="qcurve" smooth="yes"/>
      <point x="555.008" y="1529.86"/>
      <point x="661.504" y="1529.86" type="qcurve" smooth="yes"/>
      <point x="862.208" y="1529.86"/>
      <point x="1026.05" y="1419.26" type="qcurve" smooth="yes"/>
      <point x="1210.37" y="1294.34"/>
      <point x="1210.37" y="1103.87" type="qcurve" smooth="yes"/>
      <point x="1210.37" y="872.448"/>
      <point x="966.656" y="727.04" type="qcurve"/>
      <point x="1118.21" y="630.784"/>
      <point x="1179.65" y="485.376" type="qcurve"/>
      <point x="1200.13" y="587.776"/>
      <point x="1361.92" y="720.896"/>
      <point x="1468.42" y="720.896" type="qcurve" smooth="yes"/>
      <point x="1560.58" y="720.896"/>
      <point x="1560.58" y="628.736" type="qcurve" smooth="yes"/>
      <point x="1560.58" y="536.576"/>
      <point x="1468.42" y="536.576" type="qcurve" smooth="yes"/>
      <point x="1423.36" y="536.576"/>
      <point x="1357.82" y="471.04"/>
      <point x="1357.82" y="425.984" type="qcurve" smooth="yes"/>
      <point x="1357.82" y="380.928"/>
      <point x="1423.36" y="315.392"/>
      <point x="1468.42" y="315.392" type="qcurve" smooth="yes"/>
      <point x="1509.38" y="315.392"/>
      <point x="1585.15" y="385.024"/>
      <point x="1615.87" y="385.024" type="qcurve" smooth="yes"/>
      <point x="1654.78" y="385.024"/>
      <point x="1712.13" y="327.68"/>
      <point x="1712.13" y="290.816" type="qcurve"/>
    </contour>
  </outline>
</glyph>
<glyph name="uniE038" format="2">
  <advance width="1544"/>
  <unicode hex="E038"/>
  <outline>
    <contour>
      <point x="1544.19" y="335.872" type="line"/>
      <point x="1544.19" y="143.36"/>
      <point x="1361.92" y="20.48" type="qcurve" smooth="yes"/>
      <point x="1198.08" y="-90.112"/>
      <point x="997.376" y="-90.112" type="qcurve" smooth="yes"/>
      <point x="804.864" y="-90.112"/>
      <point x="651.264" y="-12.288" type="qcurve"/>
      <point x="565.248" y="-92.16"/>
      <point x="448.512" y="-92.16" type="qcurve" smooth="yes"/>
      <point x="309.248" y="-92.16"/>
      <point x="229.376" y="4.096" type="qcurve"/>
      <point x="204.8" y="36.864"/>
      <point x="204.8" y="65.536" type="qcurve" smooth="yes"/>
      <point x="204.8" y="104.448"/>
      <point x="262.144" y="159.744"/>
      <point x="299.008" y="159.744" type="qcurve" smooth="yes"/>
      <point x="331.776" y="159.744"/>
      <point x="407.552" y="92.16"/>
      <point x="448.512" y="92.16" type="qcurve" smooth="yes"/>
      <point x="493.568" y="92.16"/>
      <point x="559.104" y="157.696"/>
      <point x="559.104" y="202.752" type="qcurve" smooth="yes"/>
      <point x="559.104" y="247.808"/>
      <point x="493.568" y="313.344"/>
      <point x="448.512" y="313.344" type="qcurve" smooth="yes"/>
      <point x="356.352" y="313.344"/>
      <point x="356.352" y="405.504" type="qcurve" smooth="yes"/>
      <point x="356.352" y="497.664"/>
      <point x="448.512" y="497.664" type="qcurve" smooth="yes"/>
      <point x="571.392" y="497.664"/>
      <point x="743.424" y="323.584"/>
      <point x="743.424" y="202.752" type="qcurve" smooth="yes"/>
      <point x="743.424" y="176.128"/>
      <point x="739.328" y="149.504" type="qcurve"/>
      <point x="851.968" y="94.208"/>
      <point x="997.376" y="94.208" type="qcurve" smooth="yes"/>
      <point x="1116.16" y="94.208"/>
      <point x="1228.8" y="155.648" type="qcurve" smooth="yes"/>
      <point x="1359.87" y="227.328"/>
      <point x="1359.87" y="335.872" type="qcurve" smooth="yes"/>
      <point x="1359.87" y="452.608"/>
      <point x="1234.94" y="548.864" type="qcurve" smooth="yes"/>
      <point x="1118.21" y="638.976"/>
      <point x="997.376" y="638.976" type="qcurve" smooth="yes"/>
      <point x="905.216" y="638.976"/>
      <point x="905.216" y="731.136" type="qcurve" smooth="yes"/>
      <point x="905.216" y="823.296"/>
      <point x="997.376" y="823.296" type="qcurve" smooth="yes"/>
      <point x="1116.16" y="823.296"/>
      <point x="1232.9" y="903.168" type="qcurve" smooth="yes"/>
      <point x="1359.87" y="989.184"/>
      <point x="1359.87" y="1103.87" type="qcurve" smooth="yes"/>
      <point x="1359.87" y="1212.42"/>
      <point x="1228.8" y="1284.1" type="qcurve" smooth="yes"/>
      <point x="1116.16" y="1345.54"/>
      <point x="997.376" y="1345.54" type="qcurve" smooth="yes"/>
      <point x="821.248" y="1345.54"/>
      <point x="690.176" y="1259.52" type="qcurve"/>
      <point x="659.456" y="1236.99"/>
      <point x="632.832" y="1236.99" type="qcurve" smooth="yes"/>
      <point x="595.968" y="1236.99"/>
      <point x="540.672" y="1296.38"/>
      <point x="540.672" y="1333.25" type="qcurve" smooth="yes"/>
      <point x="540.672" y="1372.16"/>
      <point x="577.536" y="1404.93" type="qcurve" smooth="yes"/>
      <point x="647.168" y="1464.32"/>
      <point x="776.192" y="1499.14" type="qcurve" smooth="yes"/>
      <point x="888.832" y="1529.86"/>
      <point x="997.376" y="1529.86" type="qcurve" smooth="yes"/>
      <point x="1198.08" y="1529.86"/>
      <point x="1361.92" y="1419.26" type="qcurve" smooth="yes"/>
      <point x="1544.19" y="1294.34"/>
      <point x="1544.19" y="1103.87" type="qcurve" smooth="yes"/>
      <point x="1544.19" y="872.448"/>
      <point x="1302.53" y="727.04" type="qcurve"/>
      <point x="1544.19" y="571.392"/>
      <point x="1544.19" y="335.872" type="qcurve"/>
    </contour>
  </outline>
</glyph>
<glyph name="uniE040" format="2">
  <advance width="1729"/>
  <unicode hex="E040"/>
  <outline>
    <contour>
      <point x="1728.51" y="200.704" type="line"/>
      <point x="1728.51" y="167.936"/>
      <point x="1701.89" y="139.264" type="qcurve"/>
      <point x="1619.97" y="40.96"/>
      <point x="1484.8" y="40.96" type="qcurve" smooth="yes"/>
      <point x="1386.5" y="40.96"/>
      <point x="1228.8" y="161.792"/>
      <point x="1200.13" y="256" type="qcurve"/>
      <point x="1163.26" y="96.256"/>
      <point x="991.232" y="-4.096" type="qcurve" smooth="yes"/>
      <point x="837.632" y="-92.16"/>
      <point x="661.504" y="-92.16" type="qcurve" smooth="yes"/>
      <point x="555.008" y="-92.16"/>
      <point x="440.32" y="-61.44" type="qcurve" smooth="yes"/>
      <point x="309.248" y="-26.624"/>
      <point x="241.664" y="32.768" type="qcurve" smooth="yes"/>
      <point x="204.8" y="65.536"/>
      <point x="204.8" y="102.4" type="qcurve" smooth="yes"/>
      <point x="204.8" y="141.312"/>
      <point x="260.096" y="198.656"/>
      <point x="296.96" y="198.656" type="qcurve" smooth="yes"/>
      <point x="321.536" y="198.656"/>
      <point x="354.304" y="178.176" type="qcurve" smooth="yes"/>
      <point x="491.52" y="92.16"/>
      <point x="661.504" y="92.16" type="qcurve" smooth="yes"/>
      <point x="780.288" y="92.16"/>
      <point x="892.928" y="153.6" type="qcurve" smooth="yes"/>
      <point x="1026.05" y="225.28"/>
      <point x="1026.05" y="333.824" type="qcurve" smooth="yes"/>
      <point x="1026.05" y="446.464"/>
      <point x="894.976" y="518.144" type="qcurve"/>
      <point x="784.384" y="581.632"/>
      <point x="661.504" y="581.632" type="qcurve" smooth="yes"/>
      <point x="620.544" y="581.632"/>
      <point x="565.248" y="632.832"/>
      <point x="565.248" y="673.792" type="qcurve" smooth="yes"/>
      <point x="565.248" y="714.752"/>
      <point x="620.544" y="765.952"/>
      <point x="661.504" y="765.952" type="qcurve" smooth="yes"/>
      <point x="849.92" y="765.952"/>
      <point x="942.08" y="821.248" type="qcurve"/>
      <point x="847.872" y="876.544"/>
      <point x="661.504" y="876.544" type="qcurve" smooth="yes"/>
      <point x="620.544" y="876.544"/>
      <point x="567.296" y="927.744"/>
      <point x="567.296" y="968.704" type="qcurve" smooth="yes"/>
      <point x="567.296" y="1009.66"/>
      <point x="620.544" y="1060.86"/>
      <point x="661.504" y="1060.86" type="qcurve" smooth="yes"/>
      <point x="868.352" y="1060.86"/>
      <point x="995.328" y="1173.5" type="qcurve" smooth="yes"/>
      <point x="1026.05" y="1202.18"/>
      <point x="1026.05" y="1214.46" type="qcurve" smooth="yes"/>
      <point x="1026.05" y="1265.66"/>
      <point x="868.352" y="1308.67" type="qcurve" smooth="yes"/>
      <point x="737.28" y="1345.54"/>
      <point x="661.504" y="1345.54" type="qcurve" smooth="yes"/>
      <point x="491.52" y="1345.54"/>
      <point x="354.304" y="1259.52" type="qcurve"/>
      <point x="321.536" y="1236.99"/>
      <point x="296.96" y="1236.99" type="qcurve" smooth="yes"/>
      <point x="260.096" y="1236.99"/>
      <point x="204.8" y="1296.38"/>
      <point x="204.8" y="1333.25" type="qcurve" smooth="yes"/>
      <point x="204.8" y="1372.16"/>
      <point x="241.664" y="1404.93" type="qcurve" smooth="yes"/>
      <point x="309.248" y="1464.32"/>
      <point x="440.32" y="1499.14" type="qcurve" smooth="yes"/>
      <point x="555.008" y="1529.86"/>
      <point x="661.504" y="1529.86" type="qcurve" smooth="yes"/>
      <point x="837.632" y="1529.86"/>
      <point x="1001.47" y="1458.18" type="qcurve" smooth="yes"/>
      <point x="1210.37" y="1366.02"/>
      <point x="1210.37" y="1214.46" type="qcurve" smooth="yes"/>
      <point x="1210.37" y="1077.25"/>
      <point x="1038.34" y="978.944" type="qcurve"/>
      <point x="1142.78" y="915.456"/>
      <point x="1142.78" y="821.248" type="qcurve" smooth="yes"/>
      <point x="1142.78" y="718.848"/>
      <point x="1024" y="655.36" type="qcurve"/>
      <point x="1165.31" y="559.104"/>
      <point x="1200.13" y="415.744" type="qcurve"/>
      <point x="1226.75" y="509.952"/>
      <point x="1384.45" y="630.784"/>
      <point x="1484.8" y="630.784" type="qcurve" smooth="yes"/>
      <point x="1576.96" y="630.784"/>
      <point x="1576.96" y="538.624" type="qcurve" smooth="yes"/>
      <point x="1576.96" y="446.464"/>
      <point x="1484.8" y="446.464" type="qcurve" smooth="yes"/>
      <point x="1437.7" y="446.464"/>
      <point x="1374.21" y="382.976"/>
      <point x="1374.21" y="335.872" type="qcurve" smooth="yes"/>
      <point x="1374.21" y="290.816"/>
      <point x="1437.7" y="225.28"/>
      <point x="1484.8" y="225.28" type="qcurve" smooth="yes"/>
      <point x="1525.76" y="225.28"/>
      <point x="1601.54" y="294.912"/>
      <point x="1632.26" y="294.912" type="qcurve" smooth="yes"/>
      <point x="1671.17" y="294.912"/>
      <point x="1728.51" y="237.568"/>
      <point x="1728.51" y="200.704" type="qcurve"/>
    </contour>
  </outline>
</glyph>
<glyph name="uniE043" format="2">
  <advance width="2023"/>
  <unicode hex="E043"/>
  <outline>
    <contour>
      <point x="2023.42" y="819.2" type="line"/>
      <point x="2023.42" y="706.56"/>
      <point x="1939.46" y="651.264" type="qcurve" smooth="yes"/>
      <point x="1869.82" y="606.208"/>
      <point x="1769.47" y="606.208" type="qcurve" smooth="yes"/>
      <point x="1669.12" y="606.208"/>
      <point x="1564.67" y="686.08" type="qcurve"/>
      <point x="1509.38" y="610.304"/>
      <point x="1476.61" y="544.768" type="qcurve"/>
      <point x="1452.03" y="491.52"/>
      <point x="1396.74" y="491.52" type="qcurve" smooth="yes"/>
      <point x="1359.87" y="491.52"/>
      <point x="1300.48" y="544.768"/>
      <point x="1300.48" y="581.632" type="qcurve" smooth="yes"/>
      <point x="1300.48" y="620.544"/>
      <point x="1368.06" y="727.04" type="qcurve"/>
      <point x="1110.02" y="727.04" type="line"/>
      <point x="1079.3" y="686.08"/>
      <point x="1024" y="655.36" type="qcurve"/>
      <point x="1210.37" y="530.432"/>
      <point x="1210.37" y="333.824" type="qcurve" smooth="yes"/>
      <point x="1210.37" y="143.36"/>
      <point x="1026.05" y="18.432" type="qcurve" smooth="yes"/>
      <point x="862.208" y="-92.16"/>
      <point x="661.504" y="-92.16" type="qcurve" smooth="yes"/>
      <point x="555.008" y="-92.16"/>
      <point x="442.368" y="-61.44" type="qcurve" smooth="yes"/>
      <point x="313.344" y="-26.624"/>
      <point x="241.664" y="32.768" type="qcurve" smooth="yes"/>
      <point x="204.8" y="63.488"/>
      <point x="204.8" y="102.4" type="qcurve" smooth="yes"/>
      <point x="204.8" y="141.312"/>
      <point x="260.096" y="198.656"/>
      <point x="296.96" y="198.656" type="qcurve" smooth="yes"/>
      <point x="323.584" y="198.656"/>
      <point x="354.304" y="178.176" type="qcurve" smooth="yes"/>
      <point x="485.376" y="92.16"/>
      <point x="661.504" y="92.16" type="qcurve" smooth="yes"/>
      <point x="780.288" y="92.16"/>
      <point x="892.928" y="153.6" type="qcurve" smooth="yes"/>
      <point x="1026.05" y="225.28"/>
      <point x="1026.05" y="333.824" type="qcurve" smooth="yes"/>
      <point x="1026.05" y="409.6"/>
      <point x="954.368" y="475.136" type="qcurve" smooth="yes"/>
      <point x="897.024" y="528.384"/>
      <point x="815.104" y="557.056" type="qcurve" smooth="yes"/>
      <point x="741.376" y="581.632"/>
      <point x="661.504" y="581.632" type="qcurve" smooth="yes"/>
      <point x="565.248" y="581.632"/>
      <point x="565.248" y="673.792" type="qcurve" smooth="yes"/>
      <point x="565.248" y="765.952"/>
      <point x="661.504" y="765.952" type="qcurve" smooth="yes"/>
      <point x="849.92" y="765.952"/>
      <point x="942.08" y="821.248" type="qcurve"/>
      <point x="849.92" y="876.544"/>
      <point x="661.504" y="876.544" type="qcurve" smooth="yes"/>
      <point x="567.296" y="876.544"/>
      <point x="567.296" y="968.704" type="qcurve" smooth="yes"/>
      <point x="567.296" y="1060.86"/>
      <point x="661.504" y="1060.86" type="qcurve" smooth="yes"/>
      <point x="866.304" y="1060.86"/>
      <point x="995.328" y="1173.5" type="qcurve"/>
      <point x="1026.05" y="1202.18"/>
      <point x="1026.05" y="1214.46" type="qcurve" smooth="yes"/>
      <point x="1026.05" y="1265.66"/>
      <point x="868.352" y="1308.67" type="qcurve" smooth="yes"/>
      <point x="737.28" y="1345.54"/>
      <point x="661.504" y="1345.54" type="qcurve" smooth="yes"/>
      <point x="485.376" y="1345.54"/>
      <point x="354.304" y="1259.52" type="qcurve"/>
      <point x="323.584" y="1236.99"/>
      <point x="296.96" y="1236.99" type="qcurve" smooth="yes"/>
      <point x="260.096" y="1236.99"/>
      <point x="204.8" y="1296.38"/>
      <point x="204.8" y="1333.25" type="qcurve" smooth="yes"/>
      <point x="204.8" y="1372.16"/>
      <point x="241.664" y="1404.93" type="qcurve" smooth="yes"/>
      <point x="311.296" y="1464.32"/>
      <point x="442.368" y="1499.14" type="qcurve" smooth="yes"/>
      <point x="555.008" y="1529.86"/>
      <point x="661.504" y="1529.86" type="qcurve" smooth="yes"/>
      <point x="837.632" y="1529.86"/>
      <point x="1001.47" y="1458.18" type="qcurve" smooth="yes"/>
      <point x="1210.37" y="1366.02"/>
      <point x="1210.37" y="1214.46" type="qcurve" smooth="yes"/>
      <point x="1210.37" y="1077.25"/>
      <point x="1038.34" y="978.944" type="qcurve"/>
      <point x="1087.49" y="950.272"/>
      <point x="1114.11" y="911.36" type="qcurve"/>
      <point x="1368.06" y="911.36" type="line"/>
      <point x="1300.48" y="1017.86"/>
      <point x="1300.48" y="1056.77" type="qcurve" smooth="yes"/>
      <point x="1300.48" y="1093.63"/>
      <point x="1359.87" y="1146.88"/>
      <point x="1396.74" y="1146.88" type="qcurve" smooth="yes"/>
      <point x="1452.03" y="1146.88"/>
      <point x="1476.61" y="1093.63" type="qcurve"/>
      <point x="1509.38" y="1028.1"/>
      <point x="1564.67" y="952.32" type="qcurve"/>
      <point x="1669.12" y="1032.19"/>
      <point x="1769.47" y="1032.19" type="qcurve" smooth="yes"/>
      <point x="1869.82" y="1032.19"/>
      <point x="1939.46" y="987.136" type="qcurve" smooth="yes"/>
      <point x="2023.42" y="931.84"/>
      <point x="2023.42" y="819.2" type="qcurve"/>
    </contour>
    <contour>
      <point x="1839.1" y="819.2" type="line"/>
      <point x="1839.1" y="827.392"/>
      <point x="1835.01" y="835.584" type="qcurve"/>
      <point x="1816.58" y="847.872"/>
      <point x="1769.47" y="847.872" type="qcurve" smooth="yes"/>
      <point x="1734.66" y="847.872"/>
      <point x="1691.65" y="819.2" type="qcurve"/>
      <point x="1734.66" y="790.528"/>
      <point x="1769.47" y="790.528" type="qcurve" smooth="yes"/>
      <point x="1814.53" y="790.528"/>
      <point x="1837.06" y="804.864" type="qcurve"/>
      <point x="1839.1" y="811.008"/>
      <point x="1839.1" y="819.2" type="qcurve"/>
    </contour>
  </outline>
</glyph>
<glyph name="uniE045" format="2">
  <advance width="1714"/>
  <unicode hex="E045"/>
  <outline>
    <contour>
      <point x="1714.18" y="145.408" type="line"/>
      <point x="1714.18" y="43.008"/>
      <point x="1552.38" y="-92.16"/>
      <point x="1445.89" y="-92.16" type="qcurve" smooth="yes"/>
      <point x="1363.97" y="-92.16"/>
      <point x="1304.58" y="-63.488" type="qcurve" smooth="yes"/>
      <point x="1226.75" y="-24.576"/>
      <point x="1226.75" y="49.152" type="qcurve" smooth="yes"/>
      <point x="1226.75" y="133.12"/>
      <point x="1304.58" y="133.12" type="qcurve" smooth="yes"/>
      <point x="1327.1" y="133.12"/>
      <point x="1415.17" y="92.16"/>
      <point x="1445.89" y="92.16" type="qcurve" smooth="yes"/>
      <point x="1472.51" y="92.16"/>
      <point x="1529.86" y="120.832"/>
      <point x="1529.86" y="145.408" type="qcurve" smooth="yes"/>
      <point x="1529.86" y="161.792"/>
      <point x="1464.32" y="200.704"/>
      <point x="1445.89" y="200.704" type="qcurve" smooth="yes"/>
      <point x="1380.35" y="200.704"/>
      <point x="1245.18" y="274.432"/>
      <point x="1210.37" y="329.728" type="qcurve"/>
      <point x="1208.32" y="141.312"/>
      <point x="1024" y="18.432" type="qcurve" smooth="yes"/>
      <point x="862.208" y="-92.16"/>
      <point x="661.504" y="-92.16" type="qcurve" smooth="yes"/>
      <point x="555.008" y="-92.16"/>
      <point x="440.32" y="-61.44" type="qcurve" smooth="yes"/>
      <point x="309.248" y="-26.624"/>
      <point x="241.664" y="32.768" type="qcurve" smooth="yes"/>
      <point x="204.8" y="65.536"/>
      <point x="204.8" y="102.4" type="qcurve" smooth="yes"/>
      <point x="204.8" y="141.312"/>
      <point x="260.096" y="198.656"/>
      <point x="296.96" y="198.656" type="qcurve" smooth="yes"/>
      <point x="321.536" y="198.656"/>
      <point x="354.304" y="178.176" type="qcurve" smooth="yes"/>
      <point x="491.52" y="92.16"/>
      <point x="661.504" y="92.16" type="qcurve" smooth="yes"/>
      <point x="780.288" y="92.16"/>
      <point x="892.928" y="153.6" type="qcurve" smooth="yes"/>
      <point x="1026.05" y="225.28"/>
      <point x="1026.05" y="333.824" type="qcurve" smooth="yes"/>
      <point x="1026.05" y="409.6"/>
      <point x="956.416" y="475.136" type="qcurve" smooth="yes"/>
      <point x="897.024" y="528.384"/>
      <point x="815.104" y="557.056" type="qcurve" smooth="yes"/>
      <point x="741.376" y="581.632"/>
      <point x="661.504" y="581.632" type="qcurve" smooth="yes"/>
      <point x="620.544" y="581.632"/>
      <point x="565.248" y="632.832"/>
      <point x="565.248" y="673.792" type="qcurve" smooth="yes"/>
      <point x="565.248" y="714.752"/>
      <point x="620.544" y="765.952"/>
      <point x="661.504" y="765.952" type="qcurve" smooth="yes"/>
      <point x="849.92" y="765.952"/>
      <point x="942.08" y="821.248" type="qcurve"/>
      <point x="847.872" y="876.544"/>
      <point x="661.504" y="876.544" type="qcurve" smooth="yes"/>
      <point x="620.544" y="876.544"/>
      <point x="567.296" y="927.744"/>
      <point x="567.296" y="968.704" type="qcurve" smooth="yes"/>
      <point x="567.296" y="1009.66"/>
      <point x="620.544" y="1060.86"/>
      <point x="661.504" y="1060.86" type="qcurve" smooth="yes"/>
      <point x="870.4" y="1060.86"/>
      <point x="995.328" y="1173.5" type="qcurve" smooth="yes"/>
      <point x="1026.05" y="1202.18"/>
      <point x="1026.05" y="1214.46" type="qcurve" smooth="yes"/>
      <point x="1026.05" y="1265.66"/>
      <point x="868.352" y="1308.67" type="qcurve" smooth="yes"/>
      <point x="737.28" y="1345.54"/>
      <point x="661.504" y="1345.54" type="qcurve" smooth="yes"/>
      <point x="491.52" y="1345.54"/>
      <point x="354.304" y="1259.52" type="qcurve"/>
      <point x="321.536" y="1236.99"/>
      <point x="296.96" y="1236.99" type="qcurve" smooth="yes"/>
      <point x="260.096" y="1236.99"/>
      <point x="204.8" y="1296.38"/>
      <point x="204.8" y="1333.25" type="qcurve" smooth="yes"/>
      <point x="204.8" y="1372.16"/>
      <point x="241.664" y="1404.93" type="qcurve" smooth="yes"/>
      <point x="309.248" y="1464.32"/>
      <point x="440.32" y="1499.14" type="qcurve" smooth="yes"/>
      <point x="555.008" y="1529.86"/>
      <point x="661.504" y="1529.86" type="qcurve" smooth="yes"/>
      <point x="837.632" y="1529.86"/>
      <point x="1001.47" y="1458.18" type="qcurve" smooth="yes"/>
      <point x="1210.37" y="1366.02"/>
      <point x="1210.37" y="1214.46" type="qcurve" smooth="yes"/>
      <point x="1210.37" y="1077.25"/>
      <point x="1038.34" y="978.944" type="qcurve"/>
      <point x="1142.78" y="915.456"/>
      <point x="1142.78" y="821.248" type="qcurve" smooth="yes"/>
      <point x="1142.78" y="718.848"/>
      <point x="1024" y="655.36" type="qcurve"/>
      <point x="1134.59" y="581.632"/>
      <point x="1179.65" y="475.136" type="qcurve"/>
      <point x="1193.98" y="565.248"/>
      <point x="1275.9" y="622.592" type="qcurve" smooth="yes"/>
      <point x="1351.68" y="675.84"/>
      <point x="1445.89" y="675.84" type="qcurve" smooth="yes"/>
      <point x="1644.54" y="675.84"/>
      <point x="1644.54" y="559.104" type="qcurve" smooth="yes"/>
      <point x="1644.54" y="522.24"/>
      <point x="1593.34" y="466.944"/>
      <point x="1556.48" y="466.944" type="qcurve" smooth="yes"/>
      <point x="1540.1" y="466.944"/>
      <point x="1474.56" y="491.52"/>
      <point x="1445.89" y="491.52" type="qcurve" smooth="yes"/>
      <point x="1419.26" y="491.52"/>
      <point x="1361.92" y="462.848"/>
      <point x="1361.92" y="438.272" type="qcurve" smooth="yes"/>
      <point x="1361.92" y="423.936"/>
      <point x="1427.46" y="385.024"/>
      <point x="1445.89" y="385.024" type="qcurve" smooth="yes"/>
      <point x="1542.14" y="385.024"/>
      <point x="1714.18" y="241.664"/>
      <point x="1714.18" y="145.408" type="qcurve"/>
    </contour>
  </outline>
</glyph>
<glyph name="uniE049" format="2">
  <advance width="1597"/>
  <unicode hex="E049"/>
  <outline>
    <contour>
      <point x="1597.44" y="1435.65" type="line"/>
      <point x="1597.44" y="1343.49"/>
      <point x="1505.28" y="1343.49" type="qcurve" smooth="yes"/>
      <point x="1093.63" y="1343.49" type="line"/>
      <point x="1093.63" y="49.152" type="line" smooth="yes"/>
      <point x="1093.63" y="-12.288"/>
      <point x="1001.47" y="-92.16"/>
      <point x="940.032" y="-92.16" type="qcurve" smooth="yes"/>
      <point x="481.28" y="-92.16" type="line" smooth="yes"/>
      <point x="389.12" y="-92.16"/>
      <point x="389.12" y="0" type="qcurve" smooth="yes"/>
      <point x="389.12" y="92.16"/>
      <point x="481.28" y="92.16" type="qcurve" smooth="yes"/>
      <point x="909.312" y="92.16" type="line"/>
      <point x="909.312" y="526.336" type="line"/>
      <point x="657.408" y="544.768"/>
      <point x="522.24" y="630.784" type="qcurve"/>
      <point x="434.176" y="524.288"/>
      <point x="296.96" y="524.288" type="qcurve" smooth="yes"/>
      <point x="204.8" y="524.288"/>
      <point x="204.8" y="616.448" type="qcurve" smooth="yes"/>
      <point x="204.8" y="708.608"/>
      <point x="296.96" y="708.608" type="qcurve" smooth="yes"/>
      <point x="342.016" y="708.608"/>
      <point x="407.552" y="774.144"/>
      <point x="407.552" y="819.2" type="qcurve" smooth="yes"/>
      <point x="407.552" y="864.256"/>
      <point x="342.016" y="929.792"/>
      <point x="296.96" y="929.792" type="qcurve" smooth="yes"/>
      <point x="204.8" y="929.792"/>
      <point x="204.8" y="1021.95" type="qcurve" smooth="yes"/>
      <point x="204.8" y="1114.11"/>
      <point x="296.96" y="1114.11" type="qcurve" smooth="yes"/>
      <point x="434.176" y="1114.11"/>
      <point x="522.24" y="1007.62" type="qcurve"/>
      <point x="657.408" y="1093.63"/>
      <point x="909.312" y="1112.06" type="qcurve"/>
      <point x="909.312" y="1386.5" type="line" smooth="yes"/>
      <point x="909.312" y="1445.89"/>
      <point x="1001.47" y="1527.81"/>
      <point x="1060.86" y="1527.81" type="qcurve" smooth="yes"/>
      <point x="1505.28" y="1527.81" type="line" smooth="yes"/>
      <point x="1597.44" y="1527.81"/>
      <point x="1597.44" y="1435.65" type="qcurve"/>
    </contour>
    <contour>
      <point x="909.312" y="710.656" type="line"/>
      <point x="909.312" y="929.792" type="line"/>
      <point x="636.928" y="909.312"/>
      <point x="593.92" y="815.104" type="qcurve"/>
      <point x="643.072" y="729.088"/>
      <point x="909.312" y="710.656" type="qcurve"/>
    </contour>
  </outline>
</glyph>
<glyph name="uniE04A" format="2">
  <advance width="1452"/>
  <unicode hex="E04A"/>
  <outline>
    <contour>
      <point x="1452.03" y="815.104" type="line"/>
      <point x="1452.03" y="718.848"/>
      <point x="1335.3" y="555.008"/>
      <point x="1245.18" y="520.192" type="qcurve"/>
      <point x="1224.7" y="514.048"/>
      <point x="1206.27" y="514.048" type="qcurve" smooth="yes"/>
      <point x="1169.41" y="514.048"/>
      <point x="1118.21" y="571.392"/>
      <point x="1118.21" y="610.304" type="qcurve" smooth="yes"/>
      <point x="1118.21" y="655.36"/>
      <point x="1189.89" y="702.464"/>
      <point x="1224.7" y="722.944" type="qcurve"/>
      <point x="909.312" y="722.944" type="line"/>
      <point x="909.312" y="49.152" type="line" smooth="yes"/>
      <point x="909.312" y="-12.288"/>
      <point x="817.152" y="-92.16"/>
      <point x="755.712" y="-92.16" type="qcurve" smooth="yes"/>
      <point x="296.96" y="-92.16" type="line" smooth="yes"/>
      <point x="204.8" y="-92.16"/>
      <point x="204.8" y="0" type="qcurve" smooth="yes"/>
      <point x="204.8" y="92.16"/>
      <point x="296.96" y="92.16" type="qcurve" smooth="yes"/>
      <point x="724.992" y="92.16" type="line"/>
      <point x="724.992" y="526.336" type="line"/>
      <point x="538.624" y="540.672"/>
      <point x="409.6" y="593.92" type="qcurve" smooth="yes"/>
      <point x="223.232" y="671.744"/>
      <point x="223.232" y="819.2" type="qcurve" smooth="yes"/>
      <point x="223.232" y="966.656"/>
      <point x="409.6" y="1044.48" type="qcurve" smooth="yes"/>
      <point x="538.624" y="1097.73"/>
      <point x="724.992" y="1112.06" type="qcurve"/>
      <point x="724.992" y="1386.5" type="line" smooth="yes"/>
      <point x="724.992" y="1445.89"/>
      <point x="817.152" y="1527.81"/>
      <point x="876.544" y="1527.81" type="qcurve" smooth="yes"/>
      <point x="1320.96" y="1527.81" type="line" smooth="yes"/>
      <point x="1413.12" y="1527.81"/>
      <point x="1413.12" y="1435.65" type="qcurve" smooth="yes"/>
      <point x="1413.12" y="1343.49"/>
      <point x="1320.96" y="1343.49" type="qcurve" smooth="yes"/>
      <point x="909.312" y="1343.49" type="line"/>
      <point x="909.312" y="907.264" type="line"/>
      <point x="1224.7" y="907.264" type="line"/>
      <point x="1189.89" y="929.792"/>
      <point x="1118.21" y="974.848"/>
      <point x="1118.21" y="1021.95" type="qcurve" smooth="yes"/>
      <point x="1118.21" y="1058.82"/>
      <point x="1169.41" y="1118.21"/>
      <point x="1206.27" y="1118.21" type="qcurve" smooth="yes"/>
      <point x="1224.7" y="1118.21"/>
      <point x="1245.18" y="1110.02" type="qcurve" smooth="yes"/>
      <point x="1335.3" y="1075.2"/>
      <point x="1452.03" y="911.36"/>
      <point x="1452.03" y="815.104" type="qcurve"/>
    </contour>
    <contour>
      <point x="724.992" y="710.656" type="line"/>
      <point x="724.992" y="929.792" type="line"/>
      <point x="452.608" y="909.312"/>
      <point x="409.6" y="815.104" type="qcurve"/>
      <point x="458.752" y="729.088"/>
      <point x="724.992" y="710.656" type="qcurve"/>
    </contour>
  </outline>
</glyph>
<glyph name="uniE04D" format="2">
  <advance width="1737"/>
  <unicode hex="E04D"/>
  <outline>
    <contour>
      <point x="1736.7" y="1099.78" type="line"/>
      <point x="1736.7" y="1015.81"/>
      <point x="1658.88" y="972.8" type="qcurve" smooth="yes"/>
      <point x="1595.39" y="937.984"/>
      <point x="1505.28" y="937.984" type="qcurve" smooth="yes"/>
      <point x="1384.45" y="937.984"/>
      <point x="1210.37" y="1112.06"/>
      <point x="1210.37" y="1232.9" type="qcurve" smooth="yes"/>
      <point x="1210.37" y="1290.24"/>
      <point x="1232.9" y="1343.49" type="qcurve"/>
      <point x="909.312" y="1343.49" type="line"/>
      <point x="909.312" y="49.152" type="line" smooth="yes"/>
      <point x="909.312" y="-12.288"/>
      <point x="817.152" y="-92.16"/>
      <point x="755.712" y="-92.16" type="qcurve" smooth="yes"/>
      <point x="296.96" y="-92.16" type="line" smooth="yes"/>
      <point x="204.8" y="-92.16"/>
      <point x="204.8" y="0" type="qcurve" smooth="yes"/>
      <point x="204.8" y="92.16"/>
      <point x="296.96" y="92.16" type="qcurve" smooth="yes"/>
      <point x="724.992" y="92.16" type="line"/>
      <point x="724.992" y="526.336" type="line"/>
      <point x="538.624" y="540.672"/>
      <point x="409.6" y="593.92" type="qcurve" smooth="yes"/>
      <point x="223.232" y="671.744"/>
      <point x="223.232" y="819.2" type="qcurve" smooth="yes"/>
      <point x="223.232" y="966.656"/>
      <point x="409.6" y="1044.48" type="qcurve" smooth="yes"/>
      <point x="538.624" y="1097.73"/>
      <point x="724.992" y="1112.06" type="qcurve"/>
      <point x="724.992" y="1386.5" type="line" smooth="yes"/>
      <point x="724.992" y="1445.89"/>
      <point x="817.152" y="1527.81"/>
      <point x="876.544" y="1527.81" type="qcurve" smooth="yes"/>
      <point x="1505.28" y="1527.81" type="line" smooth="yes"/>
      <point x="1601.54" y="1527.81"/>
      <point x="1601.54" y="1435.65" type="qcurve" smooth="yes"/>
      <point x="1601.54" y="1343.49"/>
      <point x="1505.28" y="1343.49" type="qcurve" smooth="yes"/>
      <point x="1460.22" y="1343.49"/>
      <point x="1394.69" y="1277.95"/>
      <point x="1394.69" y="1232.9" type="qcurve" smooth="yes"/>
      <point x="1394.69" y="1187.84"/>
      <point x="1460.22" y="1122.3"/>
      <point x="1505.28" y="1122.3" type="qcurve" smooth="yes"/>
      <point x="1548.29" y="1122.3"/>
      <point x="1630.21" y="1200.13"/>
      <point x="1660.93" y="1200.13" type="qcurve" smooth="yes"/>
      <point x="1695.74" y="1200.13"/>
      <point x="1736.7" y="1136.64"/>
      <point x="1736.7" y="1099.78" type="qcurve"/>
    </contour>
    <contour>
      <point x="724.992" y="710.656" type="line"/>
      <point x="724.992" y="929.792" type="line"/>
      <point x="452.608" y="909.312"/>
      <point x="409.6" y="815.104" type="qcurve"/>
      <point x="458.752" y="729.088"/>
      <point x="724.992" y="710.656" type="qcurve"/>
    </contour>
  </outline>
</glyph>
<glyph name="uniE051" format="2">
  <advance width="1548"/>
  <unicode hex="E051"/>
  <outline>
    <contour>
      <point x="1548.29" y="145.408" type="line"/>
      <point x="1548.29" y="43.008"/>
      <point x="1386.5" y="-92.16"/>
      <point x="1280" y="-92.16" type="qcurve" smooth="yes"/>
      <point x="1198.08" y="-92.16"/>
      <point x="1138.69" y="-63.488" type="qcurve" smooth="yes"/>
      <point x="1060.86" y="-24.576"/>
      <point x="1060.86" y="49.152" type="qcurve" smooth="yes"/>
      <point x="1060.86" y="133.12"/>
      <point x="1138.69" y="133.12" type="qcurve" smooth="yes"/>
      <point x="1161.22" y="133.12"/>
      <point x="1249.28" y="92.16"/>
      <point x="1280" y="92.16" type="qcurve" smooth="yes"/>
      <point x="1306.62" y="92.16"/>
      <point x="1363.97" y="120.832"/>
      <point x="1363.97" y="145.408" type="qcurve" smooth="yes"/>
      <point x="1363.97" y="161.792"/>
      <point x="1298.43" y="200.704"/>
      <point x="1280" y="200.704" type="qcurve" smooth="yes"/>
      <point x="1210.37" y="200.704"/>
      <point x="1067.01" y="284.672"/>
      <point x="1034.24" y="346.112" type="qcurve"/>
      <point x="909.312" y="346.112" type="line"/>
      <point x="909.312" y="49.152" type="line" smooth="yes"/>
      <point x="909.312" y="-12.288"/>
      <point x="817.152" y="-92.16"/>
      <point x="755.712" y="-92.16" type="qcurve" smooth="yes"/>
      <point x="296.96" y="-92.16" type="line" smooth="yes"/>
      <point x="204.8" y="-92.16"/>
      <point x="204.8" y="0" type="qcurve" smooth="yes"/>
      <point x="204.8" y="92.16"/>
      <point x="296.96" y="92.16" type="qcurve" smooth="yes"/>
      <point x="724.992" y="92.16" type="line"/>
      <point x="724.992" y="526.336" type="line"/>
      <point x="538.624" y="540.672"/>
      <point x="409.6" y="593.92" type="qcurve" smooth="yes"/>
      <point x="223.232" y="671.744"/>
      <point x="223.232" y="819.2" type="qcurve" smooth="yes"/>
      <point x="223.232" y="966.656"/>
      <point x="409.6" y="1044.48" type="qcurve" smooth="yes"/>
      <point x="538.624" y="1097.73"/>
      <point x="724.992" y="1112.06" type="qcurve"/>
      <point x="724.992" y="1386.5" type="line" smooth="yes"/>
      <point x="724.992" y="1445.89"/>
      <point x="817.152" y="1527.81"/>
      <point x="876.544" y="1527.81" type="qcurve" smooth="yes"/>
      <point x="1320.96" y="1527.81" type="line" smooth="yes"/>
      <point x="1413.12" y="1527.81"/>
      <point x="1413.12" y="1435.65" type="qcurve" smooth="yes"/>
      <point x="1413.12" y="1343.49"/>
      <point x="1320.96" y="1343.49" type="qcurve" smooth="yes"/>
      <point x="909.312" y="1343.49" type="line"/>
      <point x="909.312" y="530.432" type="line"/>
      <point x="1030.14" y="530.432" type="line"/>
      <point x="1060.86" y="595.968"/>
      <point x="1134.59" y="636.928" type="qcurve" smooth="yes"/>
      <point x="1202.18" y="675.84"/>
      <point x="1280" y="675.84" type="qcurve" smooth="yes"/>
      <point x="1478.66" y="675.84"/>
      <point x="1478.66" y="559.104" type="qcurve" smooth="yes"/>
      <point x="1478.66" y="522.24"/>
      <point x="1427.46" y="466.944"/>
      <point x="1390.59" y="466.944" type="qcurve" smooth="yes"/>
      <point x="1374.21" y="466.944"/>
      <point x="1308.67" y="491.52"/>
      <point x="1280" y="491.52" type="qcurve" smooth="yes"/>
      <point x="1253.38" y="491.52"/>
      <point x="1196.03" y="462.848"/>
      <point x="1196.03" y="438.272" type="qcurve" smooth="yes"/>
      <point x="1196.03" y="423.936"/>
      <point x="1261.57" y="385.024"/>
      <point x="1280" y="385.024" type="qcurve" smooth="yes"/>
      <point x="1376.26" y="385.024"/>
      <point x="1548.29" y="241.664"/>
      <point x="1548.29" y="145.408" type="qcurve"/>
    </contour>
    <contour>
      <point x="724.992" y="710.656" type="line"/>
      <point x="724.992" y="929.792" type="line"/>
      <point x="452.608" y="909.312"/>
      <point x="409.6" y="815.104" type="qcurve"/>
      <point x="458.752" y="729.088"/>
      <point x="724.992" y="710.656" type="qcurve"/>
    </contour>
  </outline>
</glyph>
<glyph name="uniE055" format="2">
  <advance width="1526"/>
  <unicode hex="E055"/>
  <outline>
    <contour>
      <point x="1525.76" y="1435.65" type="line"/>
      <point x="1525.76" y="1394.69"/>
      <point x="1474.56" y="1343.49"/>
      <point x="1433.6" y="1343.49" type="qcurve" smooth="yes"/>
      <point x="1189.89" y="1343.49" type="line"/>
      <point x="1273.86" y="684.032" type="line"/>
      <point x="1277.95" y="661.504"/>
      <point x="1277.95" y="649.216" type="qcurve" smooth="yes"/>
      <point x="1277.95" y="593.92"/>
      <point x="1179.65" y="522.24"/>
      <point x="1124.35" y="522.24" type="qcurve" smooth="yes"/>
      <point x="993.28" y="522.24" type="line"/>
      <point x="1042.43" y="81.92" type="line" smooth="yes"/>
      <point x="1046.53" y="51.2"/>
      <point x="1046.53" y="40.96" type="qcurve" smooth="yes"/>
      <point x="1046.53" y="-20.48"/>
      <point x="956.416" y="-92.16"/>
      <point x="892.928" y="-92.16" type="qcurve" smooth="yes"/>
      <point x="495.616" y="-92.16" type="line" smooth="yes"/>
      <point x="454.656" y="-92.16"/>
      <point x="403.456" y="-40.96"/>
      <point x="403.456" y="0" type="qcurve" smooth="yes"/>
      <point x="403.456" y="40.96"/>
      <point x="454.656" y="92.16"/>
      <point x="495.616" y="92.16" type="qcurve" smooth="yes"/>
      <point x="856.064" y="92.16" type="line"/>
      <point x="806.912" y="522.24" type="line"/>
      <point x="614.4" y="522.24"/>
      <point x="528.384" y="565.248" type="qcurve"/>
      <point x="438.272" y="452.608"/>
      <point x="296.96" y="452.608" type="qcurve" smooth="yes"/>
      <point x="204.8" y="452.608"/>
      <point x="204.8" y="544.768" type="qcurve" smooth="yes"/>
      <point x="204.8" y="636.928"/>
      <point x="296.96" y="636.928" type="qcurve" smooth="yes"/>
      <point x="342.016" y="636.928"/>
      <point x="407.552" y="702.464"/>
      <point x="407.552" y="747.52" type="qcurve" smooth="yes"/>
      <point x="407.552" y="792.576"/>
      <point x="342.016" y="858.112"/>
      <point x="296.96" y="858.112" type="qcurve" smooth="yes"/>
      <point x="204.8" y="858.112"/>
      <point x="204.8" y="950.272" type="qcurve" smooth="yes"/>
      <point x="204.8" y="1042.43"/>
      <point x="296.96" y="1042.43" type="qcurve" smooth="yes"/>
      <point x="419.84" y="1042.43"/>
      <point x="505.856" y="956.416" type="qcurve"/>
      <point x="577.536" y="993.28"/>
      <point x="710.656" y="1089.54" type="qcurve"/>
      <point x="782.336" y="1157.12"/>
      <point x="825.344" y="1157.12" type="qcurve" smooth="yes"/>
      <point x="921.6" y="1157.12"/>
      <point x="937.984" y="1011.71" type="qcurve" smooth="yes"/>
      <point x="972.8" y="704.512" type="line"/>
      <point x="1085.44" y="704.512" type="line"/>
      <point x="1001.47" y="1363.97" type="line"/>
      <point x="999.424" y="1388.54"/>
      <point x="999.424" y="1402.88" type="qcurve" smooth="yes"/>
      <point x="999.424" y="1456.13"/>
      <point x="1095.68" y="1527.81"/>
      <point x="1153.02" y="1527.81" type="qcurve" smooth="yes"/>
      <point x="1433.6" y="1527.81" type="line" smooth="yes"/>
      <point x="1474.56" y="1527.81"/>
      <point x="1525.76" y="1476.61"/>
      <point x="1525.76" y="1435.65" type="qcurve"/>
    </contour>
    <contour>
      <point x="786.432" y="706.56" type="line"/>
      <point x="763.904" y="899.072" type="line"/>
      <point x="710.656" y="872.448"/>
      <point x="659.456" y="843.776" type="qcurve"/>
      <point x="602.112" y="804.864"/>
      <point x="602.112" y="747.52" type="qcurve" smooth="yes"/>
      <point x="602.112" y="706.56"/>
      <point x="737.28" y="706.56" type="qcurve" smooth="yes"/>
    </contour>
  </outline>
</glyph>
<glyph name="uniE06B" format="2">
  <advance width="1618"/>
  <unicode hex="E06B"/>
  <outline>
    <contour>
      <point x="1617.92" y="356.352" type="line"/>
      <point x="1617.92" y="153.6"/>
      <point x="1480.7" y="-10.24" type="qcurve"/>
      <point x="1466.37" y="-28.672"/>
      <point x="1402.88" y="-94.208"/>
      <point x="1368.06" y="-94.208" type="qcurve" smooth="yes"/>
      <point x="1331.2" y="-94.208"/>
      <point x="1273.86" y="-36.864"/>
      <point x="1273.86" y="0" type="qcurve" smooth="yes"/>
      <point x="1273.86" y="30.72"/>
      <point x="1306.62" y="71.68" type="qcurve"/>
      <point x="1333.25" y="102.4"/>
      <point x="1359.87" y="133.12" type="qcurve"/>
      <point x="1310.72" y="135.168"/>
      <point x="1265.66" y="155.648" type="qcurve"/>
      <point x="1019.9" y="-92.16"/>
      <point x="706.56" y="-92.16" type="qcurve" smooth="yes"/>
      <point x="526.336" y="-92.16"/>
      <point x="393.216" y="-40.96" type="qcurve" smooth="yes"/>
      <point x="204.8" y="28.672"/>
      <point x="204.8" y="176.128" type="qcurve" smooth="yes"/>
      <point x="204.8" y="266.24"/>
      <point x="313.344" y="331.776" type="qcurve" smooth="yes"/>
      <point x="368.64" y="364.544"/>
      <point x="501.76" y="409.6" type="qcurve" smooth="yes"/>
      <point x="563.2" y="430.08"/>
      <point x="686.08" y="473.088" type="qcurve"/>
      <point x="849.92" y="534.528"/>
      <point x="929.792" y="606.208" type="qcurve"/>
      <point x="731.136" y="616.448"/>
      <point x="602.112" y="667.648" type="qcurve" smooth="yes"/>
      <point x="409.6" y="745.472"/>
      <point x="409.6" y="901.12" type="qcurve" smooth="yes"/>
      <point x="409.6" y="1073.15"/>
      <point x="645.12" y="1148.93" type="qcurve" smooth="yes"/>
      <point x="800.768" y="1198.08"/>
      <point x="1024" y="1198.08" type="qcurve"/>
      <point x="1024" y="1343.49" type="line"/>
      <point x="296.96" y="1343.49" type="line" smooth="yes"/>
      <point x="204.8" y="1343.49"/>
      <point x="204.8" y="1435.65" type="qcurve" smooth="yes"/>
      <point x="204.8" y="1527.81"/>
      <point x="296.96" y="1527.81" type="qcurve" smooth="yes"/>
      <point x="1067.01" y="1527.81" type="line" smooth="yes"/>
      <point x="1124.35" y="1527.81"/>
      <point x="1208.32" y="1443.84"/>
      <point x="1208.32" y="1386.5" type="qcurve" smooth="yes"/>
      <point x="1208.32" y="819.2" type="line" smooth="yes"/>
      <point x="1208.32" y="653.312"/>
      <point x="1091.58" y="514.048" type="qcurve" smooth="yes"/>
      <point x="985.088" y="387.072"/>
      <point x="821.248" y="323.584" type="qcurve"/>
      <point x="808.96" y="319.488"/>
      <point x="604.16" y="256" type="qcurve"/>
      <point x="471.04" y="217.088"/>
      <point x="397.312" y="163.84" type="qcurve"/>
      <point x="428.032" y="129.024"/>
      <point x="542.72" y="108.544" type="qcurve" smooth="yes"/>
      <point x="632.832" y="92.16"/>
      <point x="706.56" y="92.16" type="qcurve" smooth="yes"/>
      <point x="948.224" y="92.16"/>
      <point x="1142.78" y="292.864" type="qcurve"/>
      <point x="1132.54" y="323.584"/>
      <point x="1132.54" y="356.352" type="qcurve" smooth="yes"/>
      <point x="1132.54" y="452.608"/>
      <point x="1277.95" y="581.632"/>
      <point x="1376.26" y="581.632" type="qcurve" smooth="yes"/>
      <point x="1472.51" y="581.632"/>
      <point x="1617.92" y="452.608"/>
      <point x="1617.92" y="356.352" type="qcurve"/>
    </contour>
    <contour>
      <point x="1433.6" y="356.352" type="line"/>
      <point x="1433.6" y="397.312"/>
      <point x="1376.26" y="397.312" type="qcurve" smooth="yes"/>
      <point x="1316.86" y="397.312"/>
      <point x="1316.86" y="356.352" type="qcurve" smooth="yes"/>
      <point x="1316.86" y="317.44"/>
      <point x="1376.26" y="317.44" type="qcurve" smooth="yes"/>
      <point x="1433.6" y="317.44"/>
      <point x="1433.6" y="356.352" type="qcurve"/>
    </contour>
    <contour>
      <point x="1024" y="819.2" type="line"/>
      <point x="1024" y="1013.76" type="line"/>
      <point x="1013.76" y="1013.76" type="line" smooth="yes"/>
      <point x="907.264" y="1013.76"/>
      <point x="778.24" y="991.232" type="qcurve" smooth="yes"/>
      <point x="593.92" y="958.464"/>
      <point x="593.92" y="901.12" type="qcurve" smooth="yes"/>
      <point x="593.92" y="841.728"/>
      <point x="782.336" y="811.008" type="qcurve" smooth="yes"/>
      <point x="913.408" y="788.48"/>
      <point x="1021.95" y="788.48" type="qcurve"/>
      <point x="1024" y="802.816"/>
      <point x="1024" y="819.2" type="qcurve"/>
    </contour>
  </outline>
</glyph>
<glyph name="uniE080" format="2">
  <advance width="1298"/>
  <unicode hex="E080"/>
  <outline>
    <contour>
      <point x="1298.43" y="368.64" type="line" smooth="yes"/>
      <point x="1298.43" y="182.272"/>
      <point x="1236.99" y="63.488" type="qcurve" smooth="yes"/>
      <point x="1155.07" y="-92.16"/>
      <point x="987.136" y="-92.16" type="qcurve" smooth="yes"/>
      <point x="897.024" y="-92.16"/>
      <point x="753.664" y="10.24"/>
      <point x="722.944" y="94.208" type="qcurve"/>
      <point x="690.176" y="10.24"/>
      <point x="538.624" y="-92.16"/>
      <point x="448.512" y="-92.16" type="qcurve" smooth="yes"/>
      <point x="311.296" y="-92.16"/>
      <point x="229.376" y="4.096" type="qcurve"/>
      <point x="204.8" y="34.816"/>
      <point x="204.8" y="65.536" type="qcurve" smooth="yes"/>
      <point x="204.8" y="104.448"/>
      <point x="262.144" y="159.744"/>
      <point x="299.008" y="159.744" type="qcurve" smooth="yes"/>
      <point x="331.776" y="159.744"/>
      <point x="407.552" y="92.16"/>
      <point x="448.512" y="92.16" type="qcurve" smooth="yes"/>
      <point x="493.568" y="92.16"/>
      <point x="559.104" y="157.696"/>
      <point x="559.104" y="202.752" type="qcurve" smooth="yes"/>
      <point x="559.104" y="247.808"/>
      <point x="493.568" y="313.344"/>
      <point x="448.512" y="313.344" type="qcurve" smooth="yes"/>
      <point x="356.352" y="313.344"/>
      <point x="356.352" y="405.504" type="qcurve" smooth="yes"/>
      <point x="356.352" y="497.664"/>
      <point x="448.512" y="497.664" type="qcurve" smooth="yes"/>
      <point x="540.672" y="497.664"/>
      <point x="690.176" y="393.216"/>
      <point x="722.944" y="309.248" type="qcurve"/>
      <point x="761.856" y="423.936"/>
      <point x="880.64" y="497.664" type="qcurve"/>
      <point x="980.992" y="563.2"/>
      <point x="1114.11" y="585.728" type="qcurve"/>
      <point x="1114.11" y="1343.49" type="line"/>
      <point x="387.072" y="1343.49" type="line" smooth="yes"/>
      <point x="296.96" y="1343.49"/>
      <point x="296.96" y="1435.65" type="qcurve" smooth="yes"/>
      <point x="296.96" y="1527.81"/>
      <point x="387.072" y="1527.81" type="qcurve" smooth="yes"/>
      <point x="1157.12" y="1527.81" type="line" smooth="yes"/>
      <point x="1216.51" y="1527.81"/>
      <point x="1298.43" y="1443.84"/>
      <point x="1298.43" y="1386.5" type="qcurve" smooth="yes"/>
    </contour>
    <contour>
      <point x="1114.11" y="397.312" type="line"/>
      <point x="1026.05" y="376.832"/>
      <point x="964.608" y="331.776" type="qcurve" smooth="yes"/>
      <point x="888.832" y="276.48"/>
      <point x="888.832" y="196.608" type="qcurve" smooth="yes"/>
      <point x="888.832" y="153.6"/>
      <point x="944.128" y="92.16"/>
      <point x="987.136" y="92.16" type="qcurve" smooth="yes"/>
      <point x="1114.11" y="92.16"/>
      <point x="1114.11" y="397.312" type="qcurve"/>
    </contour>
  </outline>
</glyph>
<glyph name="uniE089" format="2">
  <advance width="1790"/>
  <unicode hex="E089"/>
  <outline>
    <contour>
      <point x="1789.95" y="1097.73" type="line"/>
      <point x="1789.95" y="1064.96"/>
      <point x="1765.38" y="1034.24" type="qcurve"/>
      <point x="1681.41" y="937.984"/>
      <point x="1546.24" y="937.984" type="qcurve" smooth="yes"/>
      <point x="1452.03" y="937.984"/>
      <point x="1298.43" y="1048.58"/>
      <point x="1267.71" y="1136.64" type="qcurve"/>
      <point x="1216.51" y="1136.64" type="line"/>
      <point x="1216.51" y="817.152" type="line" smooth="yes"/>
      <point x="1216.51" y="778.24"/>
      <point x="1163.26" y="727.04"/>
      <point x="1124.35" y="727.04" type="qcurve" smooth="yes"/>
      <point x="890.88" y="727.04" type="line"/>
      <point x="1060.86" y="413.696" type="line" smooth="yes"/>
      <point x="1093.63" y="354.304"/>
      <point x="1093.63" y="278.528" type="qcurve" smooth="yes"/>
      <point x="1093.63" y="131.072"/>
      <point x="999.424" y="22.528" type="qcurve" smooth="yes"/>
      <point x="903.168" y="-92.16"/>
      <point x="759.808" y="-92.16" type="qcurve" smooth="yes"/>
      <point x="641.024" y="-92.16"/>
      <point x="479.232" y="75.776"/>
      <point x="479.232" y="196.608" type="qcurve" smooth="yes"/>
      <point x="479.232" y="325.632"/>
      <point x="565.248" y="423.936" type="qcurve" smooth="yes"/>
      <point x="643.072" y="509.952"/>
      <point x="774.144" y="555.008" type="qcurve"/>
      <point x="661.504" y="759.808" type="line" smooth="yes"/>
      <point x="641.024" y="796.672"/>
      <point x="641.024" y="821.248" type="qcurve" smooth="yes"/>
      <point x="641.024" y="911.36"/>
      <point x="751.616" y="911.36" type="qcurve" smooth="yes"/>
      <point x="1032.19" y="911.36" type="line"/>
      <point x="1032.19" y="1343.49" type="line"/>
      <point x="305.152" y="1343.49" type="line" smooth="yes"/>
      <point x="212.992" y="1343.49"/>
      <point x="212.992" y="1435.65" type="qcurve" smooth="yes"/>
      <point x="212.992" y="1527.81"/>
      <point x="305.152" y="1527.81" type="qcurve" smooth="yes"/>
      <point x="1075.2" y="1527.81" type="line" smooth="yes"/>
      <point x="1132.54" y="1527.81"/>
      <point x="1216.51" y="1443.84"/>
      <point x="1216.51" y="1386.5" type="qcurve" smooth="yes"/>
      <point x="1216.51" y="1320.96" type="line"/>
      <point x="1265.66" y="1320.96" type="line"/>
      <point x="1294.34" y="1413.12"/>
      <point x="1449.98" y="1527.81"/>
      <point x="1546.24" y="1527.81" type="qcurve" smooth="yes"/>
      <point x="1638.4" y="1527.81"/>
      <point x="1638.4" y="1435.65" type="qcurve" smooth="yes"/>
      <point x="1638.4" y="1343.49"/>
      <point x="1546.24" y="1343.49" type="qcurve" smooth="yes"/>
      <point x="1501.18" y="1343.49"/>
      <point x="1435.65" y="1277.95"/>
      <point x="1435.65" y="1232.9" type="qcurve" smooth="yes"/>
      <point x="1435.65" y="1187.84"/>
      <point x="1501.18" y="1122.3"/>
      <point x="1546.24" y="1122.3" type="qcurve" smooth="yes"/>
      <point x="1587.2" y="1122.3"/>
      <point x="1662.98" y="1189.89"/>
      <point x="1695.74" y="1189.89" type="qcurve" smooth="yes"/>
      <point x="1732.61" y="1189.89"/>
      <point x="1789.95" y="1134.59"/>
      <point x="1789.95" y="1097.73" type="qcurve"/>
    </contour>
    <contour>
      <point x="911.36" y="274.432" type="line"/>
      <point x="911.36" y="305.152"/>
      <point x="864.256" y="391.168" type="qcurve"/>
      <point x="663.552" y="335.872"/>
      <point x="663.552" y="196.608" type="qcurve" smooth="yes"/>
      <point x="663.552" y="153.6"/>
      <point x="716.8" y="92.16"/>
      <point x="759.808" y="92.16" type="qcurve" smooth="yes"/>
      <point x="821.248" y="92.16"/>
      <point x="911.36" y="210.944"/>
      <point x="911.36" y="274.432" type="qcurve"/>
    </contour>
  </outline>
</glyph>
<glyph name="uniE08A" format="2">
  <advance width="1421"/>
  <unicode hex="E08A"/>
  <outline>
    <contour>
      <point x="1421.31" y="1386.5" type="line"/>
      <point x="1421.31" y="817.152" type="line" smooth="yes"/>
      <point x="1421.31" y="778.24"/>
      <point x="1368.06" y="727.04"/>
      <point x="1329.15" y="727.04" type="qcurve" smooth="yes"/>
      <point x="1095.68" y="727.04" type="line"/>
      <point x="1265.66" y="413.696" type="line" smooth="yes"/>
      <point x="1298.43" y="354.304"/>
      <point x="1298.43" y="278.528" type="qcurve" smooth="yes"/>
      <point x="1298.43" y="131.072"/>
      <point x="1204.22" y="22.528" type="qcurve" smooth="yes"/>
      <point x="1107.97" y="-92.16"/>
      <point x="964.608" y="-92.16" type="qcurve" smooth="yes"/>
      <point x="845.824" y="-92.16"/>
      <point x="684.032" y="75.776"/>
      <point x="684.032" y="196.608" type="qcurve" smooth="yes"/>
      <point x="684.032" y="325.632"/>
      <point x="770.048" y="423.936" type="qcurve" smooth="yes"/>
      <point x="847.872" y="509.952"/>
      <point x="978.944" y="555.008" type="qcurve"/>
      <point x="866.304" y="759.808" type="line" smooth="yes"/>
      <point x="845.824" y="796.672"/>
      <point x="845.824" y="821.248" type="qcurve" smooth="yes"/>
      <point x="845.824" y="911.36"/>
      <point x="956.416" y="911.36" type="qcurve" smooth="yes"/>
      <point x="1236.99" y="911.36" type="line"/>
      <point x="1236.99" y="1343.49" type="line"/>
      <point x="499.712" y="1343.49" type="line" smooth="yes"/>
      <point x="454.656" y="1343.49"/>
      <point x="389.12" y="1277.95"/>
      <point x="389.12" y="1232.9" type="qcurve" smooth="yes"/>
      <point x="389.12" y="1187.84"/>
      <point x="454.656" y="1122.3"/>
      <point x="499.712" y="1122.3" type="qcurve" smooth="yes"/>
      <point x="591.872" y="1122.3"/>
      <point x="591.872" y="1030.14" type="qcurve" smooth="yes"/>
      <point x="591.872" y="937.984"/>
      <point x="499.712" y="937.984" type="qcurve" smooth="yes"/>
      <point x="378.88" y="937.984"/>
      <point x="204.8" y="1112.06"/>
      <point x="204.8" y="1232.9" type="qcurve" smooth="yes"/>
      <point x="204.8" y="1353.73"/>
      <point x="378.88" y="1527.81"/>
      <point x="499.712" y="1527.81" type="qcurve" smooth="yes"/>
      <point x="1280" y="1527.81" type="line" smooth="yes"/>
      <point x="1337.34" y="1527.81"/>
      <point x="1421.31" y="1443.84"/>
      <point x="1421.31" y="1386.5" type="qcurve"/>
    </contour>
    <contour>
      <point x="1116.16" y="274.432" type="line"/>
      <point x="1116.16" y="303.104"/>
      <point x="1069.06" y="391.168" type="qcurve"/>
      <point x="868.352" y="335.872"/>
      <point x="868.352" y="196.608" type="qcurve" smooth="yes"/>
      <point x="868.352" y="153.6"/>
      <point x="921.6" y="92.16"/>
      <point x="964.608" y="92.16" type="qcurve" smooth="yes"/>
      <point x="1026.05" y="92.16"/>
      <point x="1116.16" y="210.944"/>
      <point x="1116.16" y="274.432" type="qcurve"/>
    </contour>
  </outline>
</glyph>
<glyph name="uniE09A" format="2">
  <advance width="1917"/>
  <unicode hex="E09A"/>
  <outline>
    <contour>
      <point x="1916.93" y="1179.65" type="line"/>
      <point x="1916.93" y="1046.53"/>
      <point x="1744.9" y="821.248"/>
      <point x="1617.92" y="776.192" type="qcurve"/>
      <point x="1597.44" y="770.048"/>
      <point x="1581.06" y="770.048" type="qcurve" smooth="yes"/>
      <point x="1542.14" y="770.048"/>
      <point x="1490.94" y="827.392"/>
      <point x="1490.94" y="866.304" type="qcurve" smooth="yes"/>
      <point x="1490.94" y="917.504"/>
      <point x="1550.34" y="948.224" type="qcurve" smooth="yes"/>
      <point x="1732.61" y="1040.38"/>
      <point x="1732.61" y="1179.65" type="qcurve" smooth="yes"/>
      <point x="1732.61" y="1282.05"/>
      <point x="1636.35" y="1318.91" type="qcurve"/>
      <point x="1576.96" y="1343.49"/>
      <point x="1454.08" y="1343.49" type="qcurve" smooth="yes"/>
      <point x="1425.41" y="1343.49"/>
      <point x="1392.64" y="1325.06" type="qcurve"/>
      <point x="1353.73" y="1306.62"/>
      <point x="1353.73" y="1280" type="qcurve" smooth="yes"/>
      <point x="1353.73" y="1228.8"/>
      <point x="1452.03" y="1228.8" type="qcurve" smooth="yes"/>
      <point x="1544.19" y="1228.8"/>
      <point x="1544.19" y="1136.64" type="qcurve" smooth="yes"/>
      <point x="1544.19" y="1044.48"/>
      <point x="1452.03" y="1044.48" type="qcurve" smooth="yes"/>
      <point x="1280" y="1044.48"/>
      <point x="1208.32" y="1146.88" type="qcurve"/>
      <point x="1208.32" y="368.64" type="line" smooth="yes"/>
      <point x="1208.32" y="182.272"/>
      <point x="1144.83" y="63.488" type="qcurve" smooth="yes"/>
      <point x="1062.91" y="-92.16"/>
      <point x="894.976" y="-92.16" type="qcurve" smooth="yes"/>
      <point x="776.192" y="-92.16"/>
      <point x="614.4" y="75.776"/>
      <point x="614.4" y="196.608" type="qcurve" smooth="yes"/>
      <point x="614.4" y="356.352"/>
      <point x="743.424" y="464.896" type="qcurve" smooth="yes"/>
      <point x="854.016" y="557.056"/>
      <point x="1024" y="585.728" type="qcurve"/>
      <point x="1024" y="1230.85" type="line"/>
      <point x="874.496" y="1136.64"/>
      <point x="706.56" y="1136.64" type="qcurve" smooth="yes"/>
      <point x="471.04" y="1136.64"/>
      <point x="286.72" y="1312.77" type="qcurve"/>
      <point x="243.712" y="1351.68"/>
      <point x="202.752" y="1406.98"/>
      <point x="202.752" y="1435.65" type="qcurve" smooth="yes"/>
      <point x="202.752" y="1472.51"/>
      <point x="262.144" y="1529.86"/>
      <point x="299.008" y="1529.86" type="qcurve" smooth="yes"/>
      <point x="331.776" y="1529.86"/>
      <point x="366.592" y="1497.09" type="qcurve"/>
      <point x="393.216" y="1468.42"/>
      <point x="419.84" y="1439.74" type="qcurve"/>
      <point x="548.864" y="1320.96"/>
      <point x="706.56" y="1320.96" type="qcurve" smooth="yes"/>
      <point x="888.832" y="1320.96"/>
      <point x="1044.48" y="1495.04" type="qcurve"/>
      <point x="1087.49" y="1540.1"/>
      <point x="1128.45" y="1540.1" type="qcurve" smooth="yes"/>
      <point x="1208.32" y="1540.1"/>
      <point x="1208.32" y="1406.98" type="qcurve"/>
      <point x="1245.18" y="1460.22"/>
      <point x="1386.5" y="1527.81"/>
      <point x="1454.08" y="1527.81" type="qcurve" smooth="yes"/>
      <point x="1916.93" y="1527.81"/>
      <point x="1916.93" y="1179.65" type="qcurve"/>
    </contour>
    <contour>
      <point x="1024" y="397.312" type="line"/>
      <point x="798.72" y="348.16"/>
      <point x="798.72" y="196.608" type="qcurve" smooth="yes"/>
      <point x="798.72" y="153.6"/>
      <point x="851.968" y="92.16"/>
      <point x="894.976" y="92.16" type="qcurve" smooth="yes"/>
      <point x="1024" y="92.16"/>
      <point x="1024" y="397.312" type="qcurve"/>
    </contour>
  </outline>
</glyph>
<glyph name="uniE0A1" format="2">
  <advance width="1790"/>
  <unicode hex="E0A1"/>
  <outline>
    <contour>
      <point x="1789.95" y="1097.73" type="line"/>
      <point x="1789.95" y="1064.96"/>
      <point x="1765.38" y="1034.24" type="qcurve"/>
      <point x="1681.41" y="937.984"/>
      <point x="1546.24" y="937.984" type="qcurve" smooth="yes"/>
      <point x="1452.03" y="937.984"/>
      <point x="1298.43" y="1048.58"/>
      <point x="1267.71" y="1136.64" type="qcurve"/>
      <point x="1216.51" y="1136.64" type="line"/>
      <point x="1216.51" y="817.152" type="line" smooth="yes"/>
      <point x="1216.51" y="778.24"/>
      <point x="1163.26" y="727.04"/>
      <point x="1124.35" y="727.04" type="qcurve" smooth="yes"/>
      <point x="890.88" y="727.04" type="line"/>
      <point x="1060.86" y="413.696" type="line" smooth="yes"/>
      <point x="1093.63" y="354.304"/>
      <point x="1093.63" y="278.528" type="qcurve" smooth="yes"/>
      <point x="1093.63" y="133.12"/>
      <point x="903.168" y="-92.16"/>
      <point x="759.808" y="-92.16" type="qcurve" smooth="yes"/>
      <point x="641.024" y="-92.16"/>
      <point x="479.232" y="75.776"/>
      <point x="479.232" y="196.608" type="qcurve" smooth="yes"/>
      <point x="479.232" y="325.632"/>
      <point x="565.248" y="423.936" type="qcurve" smooth="yes"/>
      <point x="643.072" y="509.952"/>
      <point x="774.144" y="555.008" type="qcurve"/>
      <point x="661.504" y="759.808" type="line" smooth="yes"/>
      <point x="641.024" y="796.672"/>
      <point x="641.024" y="821.248" type="qcurve" smooth="yes"/>
      <point x="641.024" y="911.36"/>
      <point x="751.616" y="911.36" type="qcurve" smooth="yes"/>
      <point x="1032.19" y="911.36" type="line"/>
      <point x="1032.19" y="1230.85" type="line"/>
      <point x="882.688" y="1136.64"/>
      <point x="712.704" y="1136.64" type="qcurve" smooth="yes"/>
      <point x="479.232" y="1136.64"/>
      <point x="292.864" y="1312.77" type="qcurve" smooth="yes"/>
      <point x="210.944" y="1390.59"/>
      <point x="210.944" y="1435.65" type="qcurve" smooth="yes"/>
      <point x="210.944" y="1472.51"/>
      <point x="268.288" y="1529.86"/>
      <point x="307.2" y="1529.86" type="qcurve" smooth="yes"/>
      <point x="339.968" y="1529.86"/>
      <point x="397.312" y="1472.51"/>
      <point x="421.888" y="1443.84" type="qcurve"/>
      <point x="550.912" y="1320.96"/>
      <point x="712.704" y="1320.96" type="qcurve" smooth="yes"/>
      <point x="892.928" y="1320.96"/>
      <point x="1052.67" y="1495.04" type="qcurve" smooth="yes"/>
      <point x="1095.68" y="1540.1"/>
      <point x="1136.64" y="1540.1" type="qcurve" smooth="yes"/>
      <point x="1218.56" y="1540.1"/>
      <point x="1218.56" y="1396.74" type="qcurve" smooth="yes"/>
      <point x="1218.56" y="1380.35"/>
      <point x="1216.51" y="1353.73" type="qcurve"/>
      <point x="1216.51" y="1329.15"/>
      <point x="1216.51" y="1320.96" type="qcurve"/>
      <point x="1265.66" y="1320.96" type="line"/>
      <point x="1294.34" y="1413.12"/>
      <point x="1449.98" y="1527.81"/>
      <point x="1546.24" y="1527.81" type="qcurve" smooth="yes"/>
      <point x="1638.4" y="1527.81"/>
      <point x="1638.4" y="1435.65" type="qcurve" smooth="yes"/>
      <point x="1638.4" y="1343.49"/>
      <point x="1546.24" y="1343.49" type="qcurve" smooth="yes"/>
      <point x="1501.18" y="1343.49"/>
      <point x="1435.65" y="1277.95"/>
      <point x="1435.65" y="1232.9" type="qcurve" smooth="yes"/>
      <point x="1435.65" y="1187.84"/>
      <point x="1501.18" y="1122.3"/>
      <point x="1546.24" y="1122.3" type="qcurve" smooth="yes"/>
      <point x="1587.2" y="1122.3"/>
      <point x="1662.98" y="1189.89"/>
      <point x="1695.74" y="1189.89" type="qcurve" smooth="yes"/>
      <point x="1732.61" y="1189.89"/>
      <point x="1789.95" y="1134.59"/>
      <point x="1789.95" y="1097.73" type="qcurve"/>
    </contour>
    <contour>
      <point x="911.36" y="274.432" type="line"/>
      <point x="911.36" y="305.152"/>
      <point x="864.256" y="391.168" type="qcurve"/>
      <point x="663.552" y="335.872"/>
      <point x="663.552" y="196.608" type="qcurve" smooth="yes"/>
      <point x="663.552" y="153.6"/>
      <point x="716.8" y="92.16"/>
      <point x="759.808" y="92.16" type="qcurve" smooth="yes"/>
      <point x="821.248" y="92.16"/>
      <point x="911.36" y="210.944"/>
      <point x="911.36" y="274.432" type="qcurve"/>
    </contour>
  </outline>
</glyph>
<glyph name="uniE0A4" format="2">
  <advance width="1501"/>
  <unicode hex="E0A4"/>
  <outline>
    <contour>
      <point x="1501.18" y="1435.65" type="line"/>
      <point x="1501.18" y="817.152" type="line" smooth="yes"/>
      <point x="1501.18" y="778.24"/>
      <point x="1447.94" y="727.04"/>
      <point x="1409.02" y="727.04" type="qcurve" smooth="yes"/>
      <point x="1175.55" y="727.04" type="line"/>
      <point x="1347.58" y="413.696" type="line"/>
      <point x="1378.3" y="354.304"/>
      <point x="1378.3" y="278.528" type="qcurve" smooth="yes"/>
      <point x="1378.3" y="133.12"/>
      <point x="1286.14" y="22.528" type="qcurve" smooth="yes"/>
      <point x="1187.84" y="-92.16"/>
      <point x="1044.48" y="-92.16" type="qcurve" smooth="yes"/>
      <point x="950.272" y="-92.16"/>
      <point x="802.816" y="20.48"/>
      <point x="776.192" y="112.64" type="qcurve"/>
      <point x="729.088" y="112.64" type="line"/>
      <point x="700.416" y="22.528"/>
      <point x="544.768" y="-92.16"/>
      <point x="448.512" y="-92.16" type="qcurve" smooth="yes"/>
      <point x="374.784" y="-92.16"/>
      <point x="296.96" y="-49.152" type="qcurve" smooth="yes"/>
      <point x="204.8" y="0"/>
      <point x="204.8" y="65.536" type="qcurve" smooth="yes"/>
      <point x="204.8" y="104.448"/>
      <point x="262.144" y="159.744"/>
      <point x="299.008" y="159.744" type="qcurve" smooth="yes"/>
      <point x="331.776" y="159.744"/>
      <point x="407.552" y="92.16"/>
      <point x="448.512" y="92.16" type="qcurve" smooth="yes"/>
      <point x="493.568" y="92.16"/>
      <point x="559.104" y="157.696"/>
      <point x="559.104" y="202.752" type="qcurve" smooth="yes"/>
      <point x="559.104" y="247.808"/>
      <point x="493.568" y="313.344"/>
      <point x="448.512" y="313.344" type="qcurve" smooth="yes"/>
      <point x="356.352" y="313.344"/>
      <point x="356.352" y="405.504" type="qcurve" smooth="yes"/>
      <point x="356.352" y="497.664"/>
      <point x="448.512" y="497.664" type="qcurve" smooth="yes"/>
      <point x="542.72" y="497.664"/>
      <point x="698.368" y="387.072"/>
      <point x="727.04" y="296.96" type="qcurve"/>
      <point x="778.24" y="296.96" type="line"/>
      <point x="833.536" y="477.184"/>
      <point x="1058.82" y="555.008" type="qcurve"/>
      <point x="948.224" y="759.808" type="line" smooth="yes"/>
      <point x="927.744" y="796.672"/>
      <point x="927.744" y="821.248" type="qcurve" smooth="yes"/>
      <point x="927.744" y="911.36"/>
      <point x="1036.29" y="911.36" type="qcurve" smooth="yes"/>
      <point x="1316.86" y="911.36" type="line"/>
      <point x="1316.86" y="1230.85" type="line"/>
      <point x="1169.41" y="1136.64"/>
      <point x="999.424" y="1136.64" type="qcurve" smooth="yes"/>
      <point x="765.952" y="1136.64"/>
      <point x="579.584" y="1312.77" type="qcurve" smooth="yes"/>
      <point x="495.616" y="1390.59"/>
      <point x="495.616" y="1435.65" type="qcurve" smooth="yes"/>
      <point x="495.616" y="1472.51"/>
      <point x="555.008" y="1529.86"/>
      <point x="591.872" y="1529.86" type="qcurve" smooth="yes"/>
      <point x="624.64" y="1529.86"/>
      <point x="657.408" y="1499.14" type="qcurve"/>
      <point x="681.984" y="1472.51"/>
      <point x="708.608" y="1443.84" type="qcurve"/>
      <point x="837.632" y="1320.96"/>
      <point x="999.424" y="1320.96" type="qcurve" smooth="yes"/>
      <point x="1179.65" y="1320.96"/>
      <point x="1339.39" y="1495.04" type="qcurve" smooth="yes"/>
      <point x="1380.35" y="1540.1"/>
      <point x="1421.31" y="1540.1" type="qcurve" smooth="yes"/>
      <point x="1501.18" y="1540.1"/>
      <point x="1501.18" y="1435.65" type="qcurve"/>
    </contour>
    <contour>
      <point x="1196.03" y="274.432" type="line"/>
      <point x="1196.03" y="303.104"/>
      <point x="1148.93" y="391.168" type="qcurve"/>
      <point x="948.224" y="335.872"/>
      <point x="948.224" y="196.608" type="qcurve" smooth="yes"/>
      <point x="948.224" y="153.6"/>
      <point x="1001.47" y="92.16"/>
      <point x="1044.48" y="92.16" type="qcurve" smooth="yes"/>
      <point x="1105.92" y="92.16"/>
      <point x="1196.03" y="210.944"/>
      <point x="1196.03" y="274.432" type="qcurve"/>
    </contour>
  </outline>
</glyph>
<glyph name="uniE0A9" format="2">
  <advance width="1178"/>
  <unicode hex="E0A9"/>
  <outline>
    <contour>
      <point x="1177.6" y="1431.55" type="line"/>
      <point x="1177.6" y="204.8" type="line" smooth="yes"/>
      <point x="1177.6" y="83.968"/>
      <point x="1036.29" y="-8.192" type="qcurve" smooth="yes"/>
      <point x="909.312" y="-92.16"/>
      <point x="782.336" y="-92.16" type="qcurve" smooth="yes"/>
      <point x="546.816" y="-92.16"/>
      <point x="409.6" y="32.768" type="qcurve" smooth="yes"/>
      <point x="376.832" y="63.488"/>
      <point x="376.832" y="100.352" type="qcurve" smooth="yes"/>
      <point x="376.832" y="139.264"/>
      <point x="434.176" y="196.608"/>
      <point x="471.04" y="196.608" type="qcurve" smooth="yes"/>
      <point x="501.76" y="196.608"/>
      <point x="532.48" y="172.032" type="qcurve" smooth="yes"/>
      <point x="630.784" y="92.16"/>
      <point x="782.336" y="92.16" type="qcurve" smooth="yes"/>
      <point x="890.88" y="92.16"/>
      <point x="972.8" y="178.176" type="qcurve" smooth="yes"/>
      <point x="993.28" y="200.704"/>
      <point x="993.28" y="204.8" type="qcurve" smooth="yes"/>
      <point x="993.28" y="737.28" type="line"/>
      <point x="944.128" y="727.04"/>
      <point x="880.64" y="727.04" type="qcurve" smooth="yes"/>
      <point x="630.784" y="727.04"/>
      <point x="534.528" y="821.248" type="qcurve"/>
      <point x="446.464" y="700.416"/>
      <point x="296.96" y="700.416" type="qcurve" smooth="yes"/>
      <point x="204.8" y="700.416"/>
      <point x="204.8" y="792.576" type="qcurve" smooth="yes"/>
      <point x="204.8" y="884.736"/>
      <point x="296.96" y="884.736" type="qcurve" smooth="yes"/>
      <point x="342.016" y="884.736"/>
      <point x="407.552" y="950.272"/>
      <point x="407.552" y="995.328" type="qcurve" smooth="yes"/>
      <point x="407.552" y="1040.38"/>
      <point x="342.016" y="1105.92"/>
      <point x="296.96" y="1105.92" type="qcurve" smooth="yes"/>
      <point x="204.8" y="1105.92"/>
      <point x="204.8" y="1198.08" type="qcurve" smooth="yes"/>
      <point x="204.8" y="1290.24"/>
      <point x="296.96" y="1290.24" type="qcurve" smooth="yes"/>
      <point x="458.752" y="1290.24"/>
      <point x="546.816" y="1153.02" type="qcurve"/>
      <point x="624.64" y="1245.18"/>
      <point x="927.744" y="1470.46"/>
      <point x="1040.38" y="1517.57" type="qcurve"/>
      <point x="1067.01" y="1527.81"/>
      <point x="1087.49" y="1527.81" type="qcurve" smooth="yes"/>
      <point x="1128.45" y="1527.81"/>
      <point x="1177.6" y="1472.51"/>
      <point x="1177.6" y="1431.55" type="qcurve"/>
    </contour>
    <contour>
      <point x="993.28" y="929.792" type="line"/>
      <point x="993.28" y="1286.14" type="line"/>
      <point x="925.696" y="1241.09"/>
      <point x="804.864" y="1146.88" type="qcurve"/>
      <point x="653.312" y="1024"/>
      <point x="653.312" y="995.328" type="qcurve" smooth="yes"/>
      <point x="653.312" y="911.36"/>
      <point x="841.728" y="911.36" type="qcurve" smooth="yes"/>
      <point x="948.224" y="911.36"/>
      <point x="993.28" y="929.792" type="qcurve"/>
    </contour>
  </outline>
</glyph>
<glyph name="uniE0AD" format="2">
  <advance width="1511"/>
  <unicode hex="E0AD"/>
  <outline>
    <contour>
      <point x="1511.42" y="1093.63" type="line"/>
      <point x="1511.42" y="1060.86"/>
      <point x="1486.85" y="1032.19" type="qcurve" smooth="yes"/>
      <point x="1402.88" y="933.888"/>
      <point x="1267.71" y="933.888" type="qcurve" smooth="yes"/>
      <point x="1171.46" y="933.888"/>
      <point x="1017.86" y="1048.58"/>
      <point x="987.136" y="1138.69" type="qcurve"/>
      <point x="987.136" y="204.8" type="line" smooth="yes"/>
      <point x="987.136" y="83.968"/>
      <point x="845.824" y="-8.192" type="qcurve" smooth="yes"/>
      <point x="718.848" y="-92.16"/>
      <point x="591.872" y="-92.16" type="qcurve" smooth="yes"/>
      <point x="356.352" y="-92.16"/>
      <point x="219.136" y="32.768" type="qcurve" smooth="yes"/>
      <point x="186.368" y="63.488"/>
      <point x="186.368" y="100.352" type="qcurve" smooth="yes"/>
      <point x="186.368" y="139.264"/>
      <point x="243.712" y="196.608"/>
      <point x="280.576" y="196.608" type="qcurve" smooth="yes"/>
      <point x="311.296" y="196.608"/>
      <point x="342.016" y="172.032" type="qcurve" smooth="yes"/>
      <point x="440.32" y="92.16"/>
      <point x="591.872" y="92.16" type="qcurve" smooth="yes"/>
      <point x="704.512" y="92.16"/>
      <point x="786.432" y="184.32" type="qcurve"/>
      <point x="802.816" y="200.704"/>
      <point x="802.816" y="204.8" type="qcurve" smooth="yes"/>
      <point x="802.816" y="737.28" type="line"/>
      <point x="755.712" y="727.04"/>
      <point x="690.176" y="727.04" type="qcurve" smooth="yes"/>
      <point x="278.528" y="727.04"/>
      <point x="278.528" y="995.328" type="qcurve" smooth="yes"/>
      <point x="278.528" y="1110.02"/>
      <point x="507.904" y="1296.38" type="qcurve" smooth="yes"/>
      <point x="700.416" y="1454.08"/>
      <point x="849.92" y="1517.57" type="qcurve"/>
      <point x="876.544" y="1527.81"/>
      <point x="899.072" y="1527.81" type="qcurve" smooth="yes"/>
      <point x="970.752" y="1527.81"/>
      <point x="985.088" y="1449.98" type="qcurve" smooth="yes"/>
      <point x="987.136" y="1437.7"/>
      <point x="987.136" y="1318.91" type="qcurve"/>
      <point x="1015.81" y="1411.07"/>
      <point x="1171.46" y="1523.71"/>
      <point x="1267.71" y="1523.71" type="qcurve" smooth="yes"/>
      <point x="1359.87" y="1523.71"/>
      <point x="1359.87" y="1431.55" type="qcurve" smooth="yes"/>
      <point x="1359.87" y="1339.39"/>
      <point x="1267.71" y="1339.39" type="qcurve" smooth="yes"/>
      <point x="1222.66" y="1339.39"/>
      <point x="1157.12" y="1273.86"/>
      <point x="1157.12" y="1228.8" type="qcurve" smooth="yes"/>
      <point x="1157.12" y="1183.74"/>
      <point x="1222.66" y="1118.21"/>
      <point x="1267.71" y="1118.21" type="qcurve" smooth="yes"/>
      <point x="1308.67" y="1118.21"/>
      <point x="1384.45" y="1187.84"/>
      <point x="1417.22" y="1187.84" type="qcurve" smooth="yes"/>
      <point x="1454.08" y="1187.84"/>
      <point x="1511.42" y="1130.5"/>
      <point x="1511.42" y="1093.63" type="qcurve"/>
    </contour>
    <contour>
      <point x="802.816" y="929.792" type="line"/>
      <point x="802.816" y="1286.14" type="line"/>
      <point x="735.232" y="1241.09"/>
      <point x="616.448" y="1146.88" type="qcurve" smooth="yes"/>
      <point x="462.848" y="1024"/>
      <point x="462.848" y="995.328" type="qcurve" smooth="yes"/>
      <point x="462.848" y="911.36"/>
      <point x="651.264" y="911.36" type="qcurve" smooth="yes"/>
      <point x="757.76" y="911.36"/>
      <point x="802.816" y="929.792" type="qcurve"/>
    </contour>
  </outline>
</glyph>
<glyph name="uniE0B4" format="2">
  <advance width="1006"/>
  <unicode hex="E0B4"/>
  <outline>
    <contour>
      <point x="1005.57" y="559.104" type="line" smooth="yes"/>
      <point x="1005.57" y="522.24"/>
      <point x="950.272" y="466.944"/>
      <point x="913.408" y="466.944" type="qcurve" smooth="yes"/>
      <point x="870.4" y="466.944" type="line"/>
      <point x="1005.57" y="294.912"/>
      <point x="1005.57" y="204.8" type="qcurve" smooth="yes"/>
      <point x="1005.57" y="83.968"/>
      <point x="864.256" y="-8.192" type="qcurve" smooth="yes"/>
      <point x="735.232" y="-92.16"/>
      <point x="608.256" y="-92.16" type="qcurve" smooth="yes"/>
      <point x="370.688" y="-92.16"/>
      <point x="237.568" y="32.768" type="qcurve" smooth="yes"/>
      <point x="204.8" y="63.488"/>
      <point x="204.8" y="100.352" type="qcurve" smooth="yes"/>
      <point x="204.8" y="139.264"/>
      <point x="262.144" y="196.608"/>
      <point x="299.008" y="196.608" type="qcurve" smooth="yes"/>
      <point x="329.728" y="196.608"/>
      <point x="358.4" y="172.032" type="qcurve"/>
      <point x="458.752" y="92.16"/>
      <point x="608.256" y="92.16" type="qcurve" smooth="yes"/>
      <point x="716.8" y="92.16"/>
      <point x="796.672" y="180.224" type="qcurve"/>
      <point x="815.104" y="202.752"/>
      <point x="819.2" y="210.944" type="qcurve"/>
      <point x="802.816" y="249.856"/>
      <point x="675.84" y="401.408" type="qcurve" smooth="yes"/>
      <point x="563.2" y="536.576"/>
      <point x="563.2" y="595.968" type="qcurve" smooth="yes"/>
      <point x="563.2" y="651.264"/>
      <point x="661.504" y="651.264" type="qcurve" smooth="yes"/>
      <point x="821.248" y="651.264" type="line"/>
      <point x="821.248" y="737.28" type="line"/>
      <point x="772.096" y="727.04"/>
      <point x="708.608" y="727.04" type="qcurve" smooth="yes"/>
      <point x="296.96" y="727.04"/>
      <point x="296.96" y="995.328" type="qcurve" smooth="yes"/>
      <point x="296.96" y="1110.02"/>
      <point x="526.336" y="1296.38" type="qcurve" smooth="yes"/>
      <point x="718.848" y="1454.08"/>
      <point x="868.352" y="1517.57" type="qcurve"/>
      <point x="894.976" y="1527.81"/>
      <point x="915.456" y="1527.81" type="qcurve" smooth="yes"/>
      <point x="1005.57" y="1527.81"/>
      <point x="1005.57" y="1425.41" type="qcurve" smooth="yes"/>
    </contour>
    <contour>
      <point x="821.248" y="929.792" type="line"/>
      <point x="821.248" y="1286.14" type="line"/>
      <point x="751.616" y="1241.09"/>
      <point x="632.832" y="1146.88" type="qcurve" smooth="yes"/>
      <point x="481.28" y="1024"/>
      <point x="481.28" y="995.328" type="qcurve" smooth="yes"/>
      <point x="481.28" y="911.36"/>
      <point x="669.696" y="911.36" type="qcurve" smooth="yes"/>
      <point x="774.144" y="911.36"/>
      <point x="821.248" y="929.792" type="qcurve"/>
    </contour>
  </outline>
</glyph>
<glyph name="uniE0BD" format="2">
  <advance width="1599"/>
  <unicode hex="E0BD"/>
  <outline>
    <contour>
      <point x="1599.49" y="145.408" type="line"/>
      <point x="1599.49" y="43.008"/>
      <point x="1437.7" y="-92.16"/>
      <point x="1331.2" y="-92.16" type="qcurve" smooth="yes"/>
      <point x="1249.28" y="-92.16"/>
      <point x="1189.89" y="-63.488" type="qcurve" smooth="yes"/>
      <point x="1112.06" y="-24.576"/>
      <point x="1112.06" y="49.152" type="qcurve" smooth="yes"/>
      <point x="1112.06" y="133.12"/>
      <point x="1189.89" y="133.12" type="qcurve" smooth="yes"/>
      <point x="1212.42" y="133.12"/>
      <point x="1300.48" y="92.16"/>
      <point x="1331.2" y="92.16" type="qcurve" smooth="yes"/>
      <point x="1357.82" y="92.16"/>
      <point x="1415.17" y="120.832"/>
      <point x="1415.17" y="145.408" type="qcurve" smooth="yes"/>
      <point x="1415.17" y="161.792"/>
      <point x="1349.63" y="200.704"/>
      <point x="1331.2" y="200.704" type="qcurve" smooth="yes"/>
      <point x="1245.18" y="200.704"/>
      <point x="1161.22" y="260.096" type="qcurve"/>
      <point x="1005.57" y="198.656" type="line"/>
      <point x="1001.47" y="79.872"/>
      <point x="862.208" y="-10.24" type="qcurve" smooth="yes"/>
      <point x="735.232" y="-92.16"/>
      <point x="608.256" y="-92.16" type="qcurve" smooth="yes"/>
      <point x="366.592" y="-92.16"/>
      <point x="237.568" y="32.768" type="qcurve" smooth="yes"/>
      <point x="204.8" y="65.536"/>
      <point x="204.8" y="100.352" type="qcurve" smooth="yes"/>
      <point x="204.8" y="139.264"/>
      <point x="262.144" y="196.608"/>
      <point x="299.008" y="196.608" type="qcurve" smooth="yes"/>
      <point x="327.68" y="196.608"/>
      <point x="358.4" y="172.032" type="qcurve"/>
      <point x="423.936" y="122.88"/>
      <point x="477.184" y="106.496" type="qcurve" smooth="yes"/>
      <point x="524.288" y="92.16"/>
      <point x="608.256" y="92.16" type="qcurve" smooth="yes"/>
      <point x="665.6" y="92.16"/>
      <point x="794.624" y="161.792"/>
      <point x="819.2" y="210.944" type="qcurve"/>
      <point x="800.768" y="256"/>
      <point x="673.792" y="403.456" type="qcurve" smooth="yes"/>
      <point x="563.2" y="534.528"/>
      <point x="563.2" y="595.968" type="qcurve" smooth="yes"/>
      <point x="563.2" y="651.264"/>
      <point x="661.504" y="651.264" type="qcurve" smooth="yes"/>
      <point x="821.248" y="651.264" type="line"/>
      <point x="821.248" y="737.28" type="line"/>
      <point x="772.096" y="727.04"/>
      <point x="708.608" y="727.04" type="qcurve" smooth="yes"/>
      <point x="296.96" y="727.04"/>
      <point x="296.96" y="995.328" type="qcurve" smooth="yes"/>
      <point x="296.96" y="1110.02"/>
      <point x="526.336" y="1298.43" type="qcurve" smooth="yes"/>
      <point x="722.944" y="1458.18"/>
      <point x="868.352" y="1517.57" type="qcurve" smooth="yes"/>
      <point x="894.976" y="1527.81"/>
      <point x="915.456" y="1527.81" type="qcurve" smooth="yes"/>
      <point x="1005.57" y="1527.81"/>
      <point x="1005.57" y="1425.41" type="qcurve" smooth="yes"/>
      <point x="1005.57" y="559.104" type="line" smooth="yes"/>
      <point x="1005.57" y="522.24"/>
      <point x="950.272" y="466.944"/>
      <point x="913.408" y="466.944" type="qcurve" smooth="yes"/>
      <point x="870.4" y="466.944" type="line"/>
      <point x="917.504" y="407.552"/>
      <point x="940.032" y="372.736" type="qcurve"/>
      <point x="1062.91" y="419.84" type="line"/>
      <point x="1062.91" y="430.08"/>
      <point x="1062.91" y="438.272" type="qcurve" smooth="yes"/>
      <point x="1062.91" y="542.72"/>
      <point x="1146.88" y="610.304" type="qcurve" smooth="yes"/>
      <point x="1224.7" y="675.84"/>
      <point x="1331.2" y="675.84" type="qcurve" smooth="yes"/>
      <point x="1529.86" y="675.84"/>
      <point x="1529.86" y="559.104" type="qcurve" smooth="yes"/>
      <point x="1529.86" y="522.24"/>
      <point x="1478.66" y="466.944"/>
      <point x="1441.79" y="466.944" type="qcurve" smooth="yes"/>
      <point x="1425.41" y="466.944"/>
      <point x="1359.87" y="491.52"/>
      <point x="1331.2" y="491.52" type="qcurve" smooth="yes"/>
      <point x="1304.58" y="491.52"/>
      <point x="1247.23" y="462.848"/>
      <point x="1247.23" y="438.272" type="qcurve" smooth="yes"/>
      <point x="1247.23" y="423.936"/>
      <point x="1312.77" y="385.024"/>
      <point x="1331.2" y="385.024" type="qcurve" smooth="yes"/>
      <point x="1427.46" y="385.024"/>
      <point x="1599.49" y="241.664"/>
      <point x="1599.49" y="145.408" type="qcurve"/>
    </contour>
    <contour>
      <point x="821.248" y="929.792" type="line"/>
      <point x="821.248" y="1286.14" type="line"/>
      <point x="749.568" y="1239.04"/>
      <point x="630.784" y="1144.83" type="qcurve" smooth="yes"/>
      <point x="481.28" y="1024"/>
      <point x="481.28" y="995.328" type="qcurve" smooth="yes"/>
      <point x="481.28" y="911.36"/>
      <point x="657.408" y="911.36" type="qcurve" smooth="yes"/>
      <point x="706.56" y="911.36" type="line" smooth="yes"/>
      <point x="774.144" y="911.36"/>
      <point x="821.248" y="929.792" type="qcurve"/>
    </contour>
  </outline>
</glyph>
